<svg id="Layer_1" data-name="Layer 1" xmlns="http://www.w3.org/2000/svg" viewBox="0 0 639.51 639.51"><defs><style>.cls-1,.cls-2{fill:#fff;}.cls-1{opacity:0.18;}</style></defs><title>Insurance Icons2</title><circle class="cls-1" cx="319.76" cy="319.76" r="319.76"/><path class="cls-2" d="M207.44,449.59A28.42,28.42,0,1,0,179,421.18,28.44,28.44,0,0,0,207.44,449.59Zm0-39.34a10.93,10.93,0,1,1-10.94,10.93A10.94,10.94,0,0,1,207.44,410.25Z"/><path class="cls-2" d="M452.2,392.76a28.42,28.42,0,1,0,28.43,28.42A28.45,28.45,0,0,0,452.2,392.76Zm0,39.35a10.93,10.93,0,1,1,10.94-10.93A10.94,10.94,0,0,1,452.2,432.11Z"/><path class="cls-2" d="M556.77,303.9C546.27,286.05,528.51,277,504,277H439.37C427.92,253,378,157,313.76,157H111.54a8.74,8.74,0,0,0-8.75,8.74V357.36c0,48.68,0,67.4,31.36,71.5a73.68,73.68,0,0,0,146.44,1.06H314.4a8.75,8.75,0,1,0,0-17.49H280.59a73.67,73.67,0,0,0-146.18-1c-13.81-1.73-14.13-8.53-14.13-54.11V329.73H239.2a8.74,8.74,0,1,0,0-17.48H120.28V294.49H504c17.73,0,29.92,5.58,37.36,17.76H310.9a8.74,8.74,0,1,0,0,17.48H548a131.07,131.07,0,0,1,2.52,27.63c0,33.58-1.12,50.13-25.42,52.86a73.68,73.68,0,0,0-146,2.21H343.26a8.75,8.75,0,1,0,0,17.49h35.79a73.68,73.68,0,0,0,146.54-2.2C568,423.67,568,388.56,568,357.36,568,333.89,564.41,316.9,556.77,303.9ZM207.44,365a56.2,56.2,0,1,1-56.2,56.2A56.26,56.26,0,0,1,207.44,365Zm41.09-88H120.28V174.47H248.53ZM266,277V174.47h47.74c48.46,0,90.83,72.91,106,102.53ZM452.2,477.38a56.2,56.2,0,1,1,56.21-56.2A56.27,56.27,0,0,1,452.2,477.38Z"/><path class="cls-2" d="M267.18,312.25a8.74,8.74,0,0,0,0,17.48H283.8a8.74,8.74,0,0,0,0-17.48Z"/></svg>