<svg id="Layer_1" data-name="Layer 1" xmlns="http://www.w3.org/2000/svg" xmlns:xlink="http://www.w3.org/1999/xlink" viewBox="0 0 669.94 669.94"><defs><style>.cls-1{fill:url(#linear-gradient);}.cls-2{fill:#3c9950;}.cls-3{fill:#fff;}.cls-4{fill:url(#linear-gradient-2);}.cls-5{fill:url(#linear-gradient-3);}.cls-6{fill:url(#linear-gradient-4);}.cls-7{fill:url(#linear-gradient-5);}.cls-8{fill:url(#linear-gradient-6);}.cls-9{fill:url(#linear-gradient-7);}.cls-10{fill:url(#linear-gradient-8);}.cls-11{fill:url(#linear-gradient-9);}</style><linearGradient id="linear-gradient" x1="-628.32" y1="-690.24" x2="1276.87" y2="1333.2" gradientTransform="translate(343.45 -143.16) rotate(45)" gradientUnits="userSpaceOnUse"><stop offset="0.04" stop-color="#283c86"/><stop offset="1" stop-color="#45a247"/></linearGradient><linearGradient id="linear-gradient-2" x1="9.51" y1="298.71" x2="548.74" y2="635.73" gradientTransform="matrix(1, 0, 0, 1, 0, 0)" xlink:href="#linear-gradient"/><linearGradient id="linear-gradient-3" x1="78.26" y1="188.7" x2="617.5" y2="525.72" gradientTransform="matrix(1, 0, 0, 1, 0, 0)" xlink:href="#linear-gradient"/><linearGradient id="linear-gradient-4" x1="67.18" y1="206.42" x2="606.42" y2="543.44" gradientTransform="matrix(1, 0, 0, 1, 0, 0)" xlink:href="#linear-gradient"/><linearGradient id="linear-gradient-5" x1="73.65" y1="196.08" x2="612.88" y2="533.1" gradientTransform="matrix(1, 0, 0, 1, 0, 0)" xlink:href="#linear-gradient"/><linearGradient id="linear-gradient-6" x1="-29.42" y1="272.81" x2="405.64" y2="732.39" gradientTransform="matrix(1, 0, 0, 1, 0, 0)" xlink:href="#linear-gradient"/><linearGradient id="linear-gradient-7" x1="70.11" y1="178.59" x2="505.18" y2="638.16" gradientTransform="matrix(1, 0, 0, 1, 0, 0)" xlink:href="#linear-gradient"/><linearGradient id="linear-gradient-8" x1="11.98" y1="233.62" x2="447.04" y2="693.2" gradientTransform="matrix(1, 0, 0, 1, 0, 0)" xlink:href="#linear-gradient"/><linearGradient id="linear-gradient-9" x1="240.35" y1="17.43" x2="675.42" y2="477" gradientTransform="matrix(1, 0, 0, 1, 0, 0)" xlink:href="#linear-gradient"/></defs><title>Insurance Icons2</title><circle class="cls-1" cx="344.54" cy="343" r="319.54" transform="translate(-141.63 344.09) rotate(-45)"/><circle class="cls-2" cx="324.54" cy="323" r="319.54"/><circle class="cls-3" cx="323.78" cy="323.51" r="319.76"/><path class="cls-4" d="M211.46,453.35A28.42,28.42,0,1,0,183,424.93,28.45,28.45,0,0,0,211.46,453.35Zm0-39.35a10.93,10.93,0,1,1-10.93,10.93A11,11,0,0,1,211.46,414Z"/><path class="cls-5" d="M456.22,396.51a28.42,28.42,0,1,0,28.43,28.42A28.45,28.45,0,0,0,456.22,396.51Zm0,39.35a10.93,10.93,0,1,1,10.94-10.93A10.94,10.94,0,0,1,456.22,435.86Z"/><path class="cls-6" d="M560.79,307.65c-10.5-17.84-28.25-26.9-52.78-26.9H443.39c-11.45-24-61.36-120-125.61-120H115.56a8.74,8.74,0,0,0-8.74,8.74V361.11c0,48.68,0,67.41,31.35,71.5a73.68,73.68,0,0,0,146.44,1.07h33.81a8.75,8.75,0,1,0,0-17.49H284.61a73.67,73.67,0,0,0-146.18-1c-13.8-1.73-14.13-8.54-14.13-54.12V333.49H243.22a8.75,8.75,0,1,0,0-17.49H124.3V298.24H508c17.73,0,29.92,5.58,37.36,17.76H314.92a8.75,8.75,0,0,0,0,17.49H552a130.91,130.91,0,0,1,2.52,27.62c0,33.59-1.12,50.13-25.41,52.86a73.68,73.68,0,0,0-146,2.22H347.28a8.75,8.75,0,1,0,0,17.49h35.79a73.67,73.67,0,0,0,146.54-2.21c42.38-4,42.39-39.15,42.39-70.36C572,337.65,568.44,320.66,560.79,307.65ZM211.46,368.73a56.21,56.21,0,1,1-56.2,56.2A56.26,56.26,0,0,1,211.46,368.73Zm41.1-88H124.3V178.23H252.56Zm17.48,0V178.23h47.74c48.46,0,90.83,72.91,106,102.52ZM456.22,481.14a56.21,56.21,0,1,1,56.21-56.21A56.28,56.28,0,0,1,456.22,481.14Z"/><path class="cls-7" d="M271.2,316a8.75,8.75,0,0,0,0,17.49h16.62a8.75,8.75,0,0,0,0-17.49Z"/><path class="cls-8" d="M32,323l1.54-25.27A7.34,7.34,0,0,0,26.24,290h0a7.33,7.33,0,0,0-7.31,6.7Q17.81,309.72,17.8,323a310.71,310.71,0,0,0,3.48,46.42,7.28,7.28,0,0,0,8.11,6.2,7.12,7.12,0,0,0,6-8.14A292.54,292.54,0,0,1,32,323Z"/><path class="cls-9" d="M125.84,101.12h0a7.2,7.2,0,0,0-11.21-1.78q-3.54,3.31-7,6.77A304.57,304.57,0,0,0,23.84,262a7.15,7.15,0,0,0,5.52,8.39h0a7.15,7.15,0,0,0,8.48-5.59,292.4,292.4,0,0,1,86.63-155A7.17,7.17,0,0,0,125.84,101.12Z"/><path class="cls-10" d="M324.54,615.51C188.38,615.51,73.67,522,41.22,395.82a7.12,7.12,0,0,0-9.74-4.72l0,0a7.16,7.16,0,0,0-4.07,8.33A306.87,306.87,0,0,0,510.84,566.71a7.18,7.18,0,0,0,1.2-10.2h0a7.19,7.19,0,0,0-10-1.18A291,291,0,0,1,324.54,615.51Z"/><path class="cls-11" d="M631.27,323A306.86,306.86,0,0,0,158.9,64.72a7.22,7.22,0,0,0-2.21,9.86h0a7.2,7.2,0,0,0,10,2.24A290.82,290.82,0,0,1,328.09,30.51c160.58,1.91,290.15,134.12,289,294.71a291.73,291.73,0,0,1-92.71,211.21,7.17,7.17,0,0,0-.45,10h0a7.19,7.19,0,0,0,10.26.48q3.69-3.45,7.29-7.05A304.69,304.69,0,0,0,631.27,323Z"/></svg>