<svg id="Layer_1" data-name="Layer 1" xmlns="http://www.w3.org/2000/svg" viewBox="0 0 639.51 639.51"><defs><style>.cls-1,.cls-2{fill:#fff;}.cls-1{opacity:0.18;}</style></defs><title>Insurance Icons2</title><circle class="cls-1" cx="319.76" cy="319.76" r="319.76"/><path class="cls-2" d="M414.2,353.25H233.5a8.71,8.71,0,0,0,0,17.41H414.2a8.71,8.71,0,1,0,0-17.41Z"/><path class="cls-2" d="M414.2,390.47H233.5a8.71,8.71,0,0,0,0,17.41H414.2a8.71,8.71,0,1,0,0-17.41Z"/><path class="cls-2" d="M414.2,427.66H233.5a8.7,8.7,0,0,0,0,17.4H414.2a8.7,8.7,0,1,0,0-17.4Z"/><path class="cls-2" d="M475.83,216.16l-70.34-70.34a9.22,9.22,0,0,0-.95-.81l-.37-.27-.06,0a8.56,8.56,0,0,0-3.92-1.4,8.06,8.06,0,0,0-.85,0H193.19a8.71,8.71,0,0,0-8.7,8.71V497.59a8.71,8.71,0,0,0,8.7,8.7H423.13a8.71,8.71,0,0,0,8.71-8.7,8.22,8.22,0,0,0-.19-1.78,58.14,58.14,0,0,1-.55-7.75,55.08,55.08,0,0,1,40.81-53.15,8.71,8.71,0,0,0,6.47-8.4V222.32A8.8,8.8,0,0,0,475.83,216.16ZM413.7,488.89H201.89V160.68H390.63v62.84a8.71,8.71,0,0,0,8.71,8.7H461V420.15a72.43,72.43,0,0,0-47.27,67.91ZM408,214.81V173l41.82,41.82Z"/><path class="cls-2" d="M245.35,274.36c5.88,6.64,13,11.67,20.58,16.16,4.12,2.43,8.22,4.94,11.54,8.45,5.81,6.12,3.35,15-4.74,17.32a10.64,10.64,0,0,1-1.76.39c-2.92.31-5.85.54-8.63-.66s-3.62-3-3-5.8c.3-1.32.82-2.58,1.16-3.9a6.75,6.75,0,0,0-4-8.29,8,8,0,0,0-8.67,1c-2.91,2.29-3.55,5.45-2.79,8.85,1.34,6,5.38,9.82,10.92,11.76a33.19,33.19,0,0,0,26.55-1.4,18.49,18.49,0,0,0,10.06-21.45c-1.06-4.49-3.79-7.95-6.92-11.14a38.67,38.67,0,0,0-3.06-2.59c3.29-2.82,6.3-5.12,9-7.75a19,19,0,0,0,5.85-16c-.48-4.77-2.69-8.81-5.65-12.48-4.55-5.63-10.28-9.87-16.31-13.77-3.85-2.48-7.78-4.85-11.46-7.56a24.52,24.52,0,0,1-5.59-5.64c-3.48-5.06-2.4-10.39,2.53-14a13.3,13.3,0,0,1,11.21-2.09c4.06.87,5.95,3.86,5.24,8-.11.59-.24,1.18-.36,1.77-.55,2.72-.57,5.35,1.55,7.48,2.52,2.53,5.56,2.89,8.8,1.81a7.58,7.58,0,0,0,4.88-6.85c.22-4-1.53-7.09-4.2-9.81-4.42-4.51-9.94-6.52-16.12-7-7.12-.5-13.89.54-19.76,4.93-5.06,3.79-8.41,8.6-8.6,15.2-.15,5.35,2,9.78,5.5,13.64,1.53,1.71,3.22,3.28,4.91,5-.4.35-.73.64-1.08.92a47.31,47.31,0,0,0-9.8,10c-3,4.45-4.57,9.31-3.64,14.72C240.19,267.76,242.55,271.2,245.35,274.36ZM251.16,252c.15-4.65,2.83-7.94,6.15-10.81a1.27,1.27,0,0,1,1.16.08c6.55,4.67,13.15,9.29,19.58,14.14a28.11,28.11,0,0,1,5.27,5.56,11.4,11.4,0,0,1-.06,14.41c-1.2,1.6-2.64,3-4.08,4.63-4.86-3.49-9.51-6.77-14.09-10.13a108.4,108.4,0,0,1-8.55-6.68C253.28,260.24,251,256.62,251.16,252Z"/></svg>