<svg id="Layer_1" data-name="Layer 1" xmlns="http://www.w3.org/2000/svg" xmlns:xlink="http://www.w3.org/1999/xlink" viewBox="0 0 669.94 669.94"><defs><style>.cls-1{fill:url(#linear-gradient);}.cls-2{fill:#3c9950;}.cls-3{fill:#fff;}.cls-4{fill:url(#linear-gradient-2);}.cls-5{fill:url(#linear-gradient-3);}.cls-6{fill:url(#linear-gradient-4);}.cls-7{fill:url(#linear-gradient-5);}.cls-8{fill:url(#linear-gradient-6);}.cls-9{fill:url(#linear-gradient-7);}.cls-10{fill:url(#linear-gradient-8);}.cls-11{fill:url(#linear-gradient-9);}.cls-12{fill:url(#linear-gradient-10);}</style><linearGradient id="linear-gradient" x1="-627.39" y1="-687.24" x2="1277.8" y2="1336.2" gradientTransform="translate(345.84 -142.94) rotate(45)" gradientUnits="userSpaceOnUse"><stop offset="0.04" stop-color="#283c86"/><stop offset="1" stop-color="#45a247"/></linearGradient><linearGradient id="linear-gradient-2" x1="-77.87" y1="188.51" x2="357.2" y2="792.08" gradientTransform="matrix(1, 0, 0, 1, 0, 0)" xlink:href="#linear-gradient"/><linearGradient id="linear-gradient-3" x1="24.21" y1="114.93" x2="459.27" y2="718.5" gradientTransform="matrix(1, 0, 0, 1, 0, 0)" xlink:href="#linear-gradient"/><linearGradient id="linear-gradient-4" x1="4.21" y1="129.34" x2="439.28" y2="732.92" gradientTransform="matrix(1, 0, 0, 1, 0, 0)" xlink:href="#linear-gradient"/><linearGradient id="linear-gradient-5" x1="250.47" y1="-48.16" x2="685.53" y2="555.41" gradientTransform="matrix(1, 0, 0, 1, 0, 0)" xlink:href="#linear-gradient"/><linearGradient id="linear-gradient-6" x1="160.03" y1="155.74" x2="509.31" y2="596.93" gradientTransform="matrix(1, 0, 0, 1, 0, 0)" xlink:href="#linear-gradient"/><linearGradient id="linear-gradient-7" x1="141.92" y1="170.08" x2="491.19" y2="611.27" gradientTransform="matrix(1, 0, 0, 1, 0, 0)" xlink:href="#linear-gradient"/><linearGradient id="linear-gradient-8" x1="123.82" y1="184.41" x2="473.1" y2="625.6" gradientTransform="matrix(1, 0, 0, 1, 0, 0)" xlink:href="#linear-gradient"/><linearGradient id="linear-gradient-9" x1="165.67" y1="151.28" x2="514.94" y2="592.47" gradientTransform="matrix(1, 0, 0, 1, 0, 0)" xlink:href="#linear-gradient"/><linearGradient id="linear-gradient-10" x1="175.29" y1="143.66" x2="524.57" y2="584.86" gradientTransform="matrix(1, 0, 0, 1, 0, 0)" xlink:href="#linear-gradient"/></defs><title>Insurance Icons2</title><circle class="cls-1" cx="345.46" cy="346" r="319.54" transform="translate(-143.47 345.62) rotate(-45)"/><circle class="cls-2" cx="325.46" cy="326" r="319.54"/><circle class="cls-3" cx="325.46" cy="326" r="319.54"/><path class="cls-4" d="M33,326l1.54-25.27A7.34,7.34,0,0,0,27.17,293h0a7.33,7.33,0,0,0-7.31,6.7Q18.74,312.72,18.73,326a310.71,310.71,0,0,0,3.48,46.42,7.28,7.28,0,0,0,8.11,6.2,7.12,7.12,0,0,0,6-8.14A292.54,292.54,0,0,1,33,326Z"/><path class="cls-5" d="M126.77,104.12h0a7.2,7.2,0,0,0-11.21-1.78q-3.54,3.31-7,6.77A304.57,304.57,0,0,0,24.77,265a7.15,7.15,0,0,0,5.52,8.39h0a7.15,7.15,0,0,0,8.48-5.59,292.4,292.4,0,0,1,86.63-155A7.17,7.17,0,0,0,126.77,104.12Z"/><path class="cls-6" d="M325.46,618.51C189.31,618.51,74.6,525,42.15,398.82a7.12,7.12,0,0,0-9.74-4.72l0,0a7.15,7.15,0,0,0-4.07,8.33A306.87,306.87,0,0,0,511.77,569.71a7.18,7.18,0,0,0,1.2-10.2h0a7.19,7.19,0,0,0-10-1.18A291,291,0,0,1,325.46,618.51Z"/><path class="cls-7" d="M632.2,326A306.86,306.86,0,0,0,159.83,67.72a7.22,7.22,0,0,0-2.21,9.86h0a7.2,7.2,0,0,0,10,2.24A290.82,290.82,0,0,1,329,33.51C489.6,35.42,619.17,167.63,618,328.22a291.73,291.73,0,0,1-92.71,211.21,7.18,7.18,0,0,0-.46,10h0a7.2,7.2,0,0,0,10.27.48q3.69-3.45,7.29-7.05A304.73,304.73,0,0,0,632.2,326Z"/><path class="cls-8" d="M427.69,371H247a8.71,8.71,0,0,0,0,17.42h180.7a8.71,8.71,0,0,0,0-17.42Z"/><path class="cls-9" d="M427.69,408.23H247a8.7,8.7,0,0,0,0,17.4h180.7a8.7,8.7,0,0,0,0-17.4Z"/><path class="cls-10" d="M427.69,445.41H247a8.71,8.71,0,0,0,0,17.41h180.7a8.71,8.71,0,0,0,0-17.41Z"/><path class="cls-11" d="M489.32,233.92,419,163.58a9,9,0,0,0-1-.81c-.12-.09-.24-.19-.37-.27l-.06,0a8.72,8.72,0,0,0-3.92-1.4c-.28,0-.57,0-.86,0H206.68a8.71,8.71,0,0,0-8.7,8.71V515.34a8.71,8.71,0,0,0,8.7,8.71H436.62a8.72,8.72,0,0,0,8.71-8.71,9,9,0,0,0-.19-1.78,58.11,58.11,0,0,1-.55-7.74,55.06,55.06,0,0,1,40.81-53.15,8.7,8.7,0,0,0,6.46-8.41V240.07A8.75,8.75,0,0,0,489.32,233.92ZM427.19,506.64H215.38V178.43H404.12v62.84a8.71,8.71,0,0,0,8.7,8.71h61.64V437.9a72.47,72.47,0,0,0-47.28,67.92C427.18,506.09,427.18,506.37,427.19,506.64Zm-5.66-274.07V190.74l41.82,41.83Z"/><path class="cls-12" d="M258.84,292.12c5.87,6.63,13,11.67,20.58,16.15,4.12,2.44,8.22,4.94,11.54,8.45,5.8,6.12,3.35,15-4.74,17.33a10.73,10.73,0,0,1-1.77.38c-2.91.31-5.84.54-8.63-.66s-3.62-3-3-5.79c.3-1.32.82-2.59,1.16-3.9a6.75,6.75,0,0,0-4-8.29,8,8,0,0,0-8.68,1c-2.9,2.29-3.54,5.44-2.78,8.85,1.34,6,5.38,9.82,10.91,11.76A33.23,33.23,0,0,0,296,336a18.47,18.47,0,0,0,10.07-21.44c-1.06-4.49-3.79-7.95-6.92-11.15a39.1,39.1,0,0,0-3.07-2.59c3.3-2.82,6.31-5.11,9-7.75a19,19,0,0,0,5.85-16c-.48-4.76-2.7-8.81-5.65-12.47-4.55-5.64-10.29-9.88-16.32-13.77-3.84-2.49-7.78-4.85-11.45-7.57a24.48,24.48,0,0,1-5.59-5.63c-3.48-5.06-2.4-10.39,2.52-14.05a13.33,13.33,0,0,1,11.22-2.09c4.05.87,5.95,3.87,5.23,8-.1.6-.24,1.18-.36,1.78-.54,2.71-.57,5.34,1.56,7.48,2.52,2.53,5.55,2.88,8.8,1.8a7.57,7.57,0,0,0,4.88-6.84c.21-4-1.53-7.1-4.2-9.82-4.42-4.51-9.94-6.52-16.12-7-7.12-.51-13.89.53-19.76,4.93-5.06,3.78-8.42,8.6-8.6,15.19-.16,5.36,2,9.78,5.49,13.64,1.54,1.71,3.23,3.28,4.92,5-.4.34-.73.64-1.08.92a46.84,46.84,0,0,0-9.8,10c-3,4.45-4.57,9.3-3.64,14.71C253.67,285.51,256,289,258.84,292.12Zm5.8-22.38c.16-4.64,2.83-7.94,6.16-10.8A1.24,1.24,0,0,1,272,259c6.55,4.68,13.15,9.3,19.57,14.15a27.6,27.6,0,0,1,5.28,5.56,11.4,11.4,0,0,1-.06,14.4c-1.2,1.6-2.64,3-4.08,4.63-4.87-3.49-9.51-6.76-14.09-10.12-2.92-2.15-5.88-4.27-8.56-6.68C266.76,278,264.49,274.38,264.64,269.74Z"/></svg>