<svg id="Layer_1" data-name="Layer 1" xmlns="http://www.w3.org/2000/svg" viewBox="0 0 250 250"><defs><style>.cls-1{fill:#00c853;}</style></defs><title>icons</title><path class="cls-1" d="M197.8,49.64,175.16,26.22a14,14,0,0,0-10-4.26H64.93A19.34,19.34,0,0,0,45.59,41.3v70.43H66.38V44h96.19l17,17.55a8.36,8.36,0,0,1,2.34,5.8v44.39h20.81v-50A17.39,17.39,0,0,0,197.8,49.64ZM75,192.55H66.38V130.88H45.59v64.34a19.35,19.35,0,0,0,19.35,19.36H96.27L78,195.7Zm106.91-61.67v61.67H151.5v22h31.84a19.35,19.35,0,0,0,19.35-19.35V130.88Z"/><polygon class="cls-1" points="162 180.4 143.05 180.4 143.05 226.37 129.13 226.37 129.13 146.47 129.16 146.43 162 180.4"/><polygon class="cls-1" points="119.42 146.43 119.42 226.34 119.4 226.37 107.13 213.68 87.78 193.68 86.55 192.41 105.51 192.41 105.51 146.43 119.42 146.43"/><polygon class="cls-1" points="66.39 43.98 124.06 101.66 176.04 49.67 164.35 37.97 123.34 78.98 80.11 35.76 66.39 35.76 66.39 43.98"/><path class="cls-1" d="M222.52,95.82H28.88a25.48,25.48,0,1,0,0,51H222.52a25.48,25.48,0,0,0,0-51ZM19.3,121.3a9.59,9.59,0,0,1,9.58-9.57H222.52a9.57,9.57,0,0,1,0,19.14H28.88A9.59,9.59,0,0,1,19.3,121.3Z"/><circle class="cls-1" cx="209.12" cy="120.85" r="5.38"/><circle class="cls-1" cx="192.11" cy="120.85" r="5.38"/></svg>