<svg id="Layer_1" data-name="Layer 1" xmlns="http://www.w3.org/2000/svg" xmlns:xlink="http://www.w3.org/1999/xlink" viewBox="0 0 669.94 669.94"><defs><style>.cls-1{fill:url(#linear-gradient);}.cls-2{fill:#3c9950;}.cls-3{fill:#fff;}.cls-4{fill:url(#linear-gradient-2);}.cls-5{fill:url(#linear-gradient-3);}.cls-6{fill:url(#linear-gradient-4);}.cls-7{fill:url(#linear-gradient-5);}.cls-8{fill:url(#linear-gradient-6);}.cls-9{fill:url(#linear-gradient-7);}.cls-10{fill:url(#linear-gradient-8);}.cls-11{fill:url(#linear-gradient-9);}.cls-12{fill:url(#linear-gradient-10);}.cls-13{fill:url(#linear-gradient-11);}</style><linearGradient id="linear-gradient" x1="-627.75" y1="-689.24" x2="1277.43" y2="1334.2" gradientUnits="userSpaceOnUse"><stop offset="0.04" stop-color="#283c86"/><stop offset="1" stop-color="#45a247"/></linearGradient><linearGradient id="linear-gradient-2" x1="-58.14" y1="238.63" x2="376.92" y2="719.65" xlink:href="#linear-gradient"/><linearGradient id="linear-gradient-3" x1="42.21" y1="147.87" x2="477.28" y2="628.89" xlink:href="#linear-gradient"/><linearGradient id="linear-gradient-4" x1="-10.07" y1="195.15" x2="424.99" y2="676.18" xlink:href="#linear-gradient"/><linearGradient id="linear-gradient-5" x1="223.17" y1="-15.81" x2="658.24" y2="465.21" xlink:href="#linear-gradient"/><linearGradient id="linear-gradient-6" x1="107.71" y1="82.62" x2="536.65" y2="594.28" xlink:href="#linear-gradient"/><linearGradient id="linear-gradient-7" x1="63.72" y1="119.49" x2="492.66" y2="631.15" xlink:href="#linear-gradient"/><linearGradient id="linear-gradient-8" x1="3.82" y1="169.71" x2="432.75" y2="681.37" xlink:href="#linear-gradient"/><linearGradient id="linear-gradient-9" x1="-46.72" y1="212.08" x2="382.21" y2="723.74" xlink:href="#linear-gradient"/><linearGradient id="linear-gradient-10" x1="71.79" y1="112.73" x2="500.73" y2="624.39" xlink:href="#linear-gradient"/><linearGradient id="linear-gradient-11" x1="147.38" y1="49.36" x2="576.32" y2="561.02" xlink:href="#linear-gradient"/></defs><title>Insurance Icons2</title><circle class="cls-1" cx="345.1" cy="344" r="319.54"/><circle class="cls-2" cx="325.1" cy="324" r="319.54"/><circle class="cls-3" cx="325.1" cy="324" r="319.54"/><path class="cls-4" d="M32.59,324l1.53-25.27A7.33,7.33,0,0,0,26.8,291h0a7.34,7.34,0,0,0-7.31,6.7Q18.38,310.72,18.36,324a310.71,310.71,0,0,0,3.49,46.42,7.28,7.28,0,0,0,8.11,6.2,7.11,7.11,0,0,0,6-8.14A293.82,293.82,0,0,1,32.59,324Z"/><path class="cls-5" d="M126.4,102.12h0a7.19,7.19,0,0,0-11.2-1.78c-2.36,2.21-4.7,4.47-7,6.77A304.5,304.5,0,0,0,24.41,263a7.15,7.15,0,0,0,5.52,8.39h0a7.15,7.15,0,0,0,8.48-5.59,292.46,292.46,0,0,1,86.62-155A7.16,7.16,0,0,0,126.4,102.12Z"/><path class="cls-6" d="M325.1,616.51C188.94,616.51,74.23,523,41.78,396.82a7.11,7.11,0,0,0-9.73-4.72l0,0a7.15,7.15,0,0,0-4.07,8.33A306.86,306.86,0,0,0,511.4,567.71a7.19,7.19,0,0,0,1.21-10.2h0a7.18,7.18,0,0,0-10-1.18A291.05,291.05,0,0,1,325.1,616.51Z"/><path class="cls-7" d="M631.84,324A306.86,306.86,0,0,0,159.47,65.72a7.22,7.22,0,0,0-2.21,9.86h0a7.2,7.2,0,0,0,10,2.24A290.78,290.78,0,0,1,328.65,31.51c160.59,1.91,290.16,134.12,289,294.71a291.72,291.72,0,0,1-92.7,211.21,7.18,7.18,0,0,0-.46,10h0a7.19,7.19,0,0,0,10.26.48q3.7-3.45,7.29-7.05A304.7,304.7,0,0,0,631.84,324Z"/><path class="cls-8" d="M414.36,437.29V403.67c-9.51,4-18.26,7.81-27.05,11.48-6.85,2.86-13.83,3.36-20.78.47q-16.17-6.72-32.22-13.71c-2.94-1.27-5.74-2.89-9.55-4.83v40.27c5.78.14,11.42.32,17.07.4,6.7.09,13.41-.12,20.1.19,4.2.2,7.13,2.46,7.27,7.06.17,5.24-2.82,7.55-7.74,7.8-2.09.1-4.19.1-6.28.1q-96.12,0-192.22,0c-2.93,0-6.29.63-8.66-.58-2.52-1.29-5.64-4.4-5.68-6.76s2.87-5.73,5.34-7.12c2.29-1.28,5.71-.65,8.63-.66,12.94,0,25.88,0,39.78,0V403.32c-7.63,3.51-15,7.32-22.67,10.29A49.5,49.5,0,0,1,164,417.17c-2.39.09-6.44-3.07-6.95-5.37s1.73-6.18,3.89-8.1c2-1.75,5.63-1.43,8.21-2.7,9.71-4.76,19.42-9.55,28.84-14.84,4.75-2.68,7.1-7,4.24-12.41-9,3.62-17.73,7.69-26.83,10.64-7.77,2.52-12.7.67-14.25-3.71-1.73-4.87,1.7-7.63,10.48-11.11a223.34,223.34,0,0,0,25.75-12.66c4-2.23,7.51-5.65,4.68-12.51-3.53,1.45-7.07,3.12-10.74,4.35A90.78,90.78,0,0,1,178,352.43c-4.46.77-8.52-.37-9.52-5.69-.85-4.55,2-7,5.7-8.57,1.92-.79,4.19-.75,6-1.65,6.36-3.1,12.78-6.17,18.85-9.8,4.55-2.73,5.59-7,2.68-11.9-5.19,1.63-10.27,3.53-15.51,4.79-4.65,1.11-9.65,1.31-11.25-4.68-1.54-5.78,2.39-8.14,7.11-9.9,5.07-1.89,10.08-4,15-6.29,5.83-2.77,7.24-7.5,5.26-14.42-5,1.56-9.54,3.24-14.23,4.37-4.44,1.07-8.64.3-10.09-4.79-1.34-4.7.51-8,5.36-9.71s9.32-3.68,13.86-5.78c6-2.79,7.09-7.54,5.06-14-4.32.84-8.26,1.85-12.26,2.3-4.42.51-7.87-2-7.91-6.12,0-2.66,2.42-5.92,4.67-7.85,2.07-1.77,5.44-1.94,8.08-3.15,8.15-3.75,8.14-3.87,7.44-15.44-2.75.3-5.45.71-8.18.85-4.28.23-8-1.62-8-5.95,0-2.68,2.46-5.59,4.35-8,.88-1.14,3-1.25,4.54-1.94,8.11-3.64,8.1-3.66,7.31-15.2a36.9,36.9,0,0,0-4.43-.29c-4.88.22-8.36-1.84-9-6.69-.61-4.33,2.15-7.24,6.21-8.19,7.29-1.69,9-6.44,8.28-13.11a82.19,82.19,0,0,1,0-10c.11-4.81,2.38-8.42,7.29-8.52s7.5,3.18,7.61,8.12a119.59,119.59,0,0,1,0,12.56c-.45,5.46,1.78,8.76,6.87,10.4a16.61,16.61,0,0,1,4.61,1.88c5.12,3.65,4.47,10.78-1.38,13-2.58,1-5.67.65-8.46.91-1.79,10.76-1.63,11.18,6.17,14.84,1.89.89,4.55,1,5.69,2.42,1.87,2.33,4.26,5.78,3.7,8.11s-4.21,4.69-7,5.52c-2.52.75-5.65-.51-8.5-.88-1.92,10.51-1.62,11.44,6,15.14,3.36,1.63,7.38,2.19,10.31,4.32,2,1.44,4.07,5.33,3.41,7.13-.92,2.53-4.2,5.52-6.77,5.83-3.92.47-8.11-1.17-12.91-2-3.05,5.43-2.3,10,3.4,13.19a87.77,87.77,0,0,0,13.67,6.15c4.87,1.69,8.51,3.95,7.24,9.74-1.09,4.94-5.43,6.5-12.28,4.75-2-.51-4-1.27-6-1.94s-3.87-1.34-6-2.09c-3.42,6.35-1.66,10.93,3.89,13.89a156.15,156.15,0,0,0,16,7c4.59,1.82,8.86,4,7.1,9.84-1.66,5.56-6.16,6.31-11.16,4.81-5.18-1.55-10.3-3.27-15.79-5-3.26,4.81-1.89,8.92,2.41,11.61,6,3.74,12.4,6.84,18.75,10,2.21,1.1,4.89,1.23,7.17,2.21,3.92,1.7,6.39,5.13,4.54,9-1.13,2.35-4.8,4.57-7.52,4.82-3.55.32-7.38-1.06-10.91-2.25-4.71-1.58-9.25-3.69-14.06-5.65-3.81,4.54-1.88,8.31,1.84,10.49,8.95,5.26,18.19,10,27.56,14.52,1.7.81,5.72.07,6.62-1.3,3.5-5.34,9.36-5,14.19-7.13,9.51-4.25,19-8.66,28.18-13.53,8.74-4.62,12.75-11.73,9-22.1-7.62,3.19-15.16,6.57-22.88,9.46-3.47,1.3-7.4,2.51-10.92,2.1a10.71,10.71,0,0,1-7.33-5.11c-1.91-4,.84-7.19,4.69-8.86,1.89-.82,4.15-.8,6-1.62,6.9-3,14-5.6,20.5-9.32,11.86-6.8,12.06-7.92,9.72-22.94-3.16,1.22-6.18,2.43-9.24,3.54-3.93,1.41-7.8,3.13-11.84,4-7.42,1.64-11.35,0-12.54-4.66s1.32-7.49,8.65-10.08a116.13,116.13,0,0,0,12.83-5c14.15-7,14.48-7.81,12.34-25.34-4.71,1.75-9.22,3.5-13.79,5.1a45.72,45.72,0,0,1-7.23,2c-4.83.83-8.44-1.22-9.59-5.93-1-4.23,1.34-7.18,5.4-8.63s8-2.49,11.81-4.17c14.94-6.58,15.67-8.06,13.38-25.29-5.13,1.45-10.15,3.18-15.3,4.21-3.93.78-7.74-.15-9-4.74-1.3-4.8.68-8.14,5.37-9.77,1.58-.55,3.29-.73,4.85-1.31,15.7-5.89,16.53-7.4,14.07-25.7-4,1-7.92,2.28-11.93,2.8-4.33.56-7.86-1.84-8-6.05-.06-2.67,2.54-5.45,4.13-8.07.36-.58,1.47-.73,2.27-1,14.4-4.77,16-4.74,13.78-24.85-3,.27-6.35,1.37-9.15.59s-6.49-3.13-7-5.43,1.88-7.69,3.63-8c14.69-2.45,14-13,13.43-23.68a42.42,42.42,0,0,1,.39-10c.82-4.26,4.15-6.93,8.2-5.67,2.54.79,5.64,4,6.06,6.5a69.83,69.83,0,0,1,.37,17.52c-.62,7.05,2.35,11.12,8.73,13.25.8.26,1.59.52,2.4.72,5.24,1.31,8.21,4.46,6.76,10-1.36,5.15-5.64,5.56-10.12,4.87-2-.31-4.07-.68-6.73-1.12a71.82,71.82,0,0,0-.87,7.55c0,11.13.79,12.28,11.38,16.53,1.93.78,4,1.31,5.89,2.14,4,1.76,5.85,4.88,4.36,9.09-1.44,4.06-4.72,5.83-9,5-3.66-.74-7.23-1.89-10.84-2.86-4,15.71-2.26,19.26,11.84,25,1.93.78,4,1.23,5.94,2,6,2.38,8.53,5.87,7,10-2.12,5.63-6.84,5.42-11.55,4.51a60.75,60.75,0,0,1-7.17-2.27l-5.84-1.9c-3.93,14.14-3,17.08,8.73,23.29a89.7,89.7,0,0,0,15.09,6c4.79,1.51,7.13,4.29,6.3,9.21-.76,4.51-5.1,6.84-10.89,5.26-6.38-1.74-12.54-4.29-18.79-6.49-4.46,12.19-3.61,16.14,6,21.9,5.33,3.2,11.29,5.37,17,7.86,1.9.82,4.71.57,5.83,1.89,2,2.3,4,5.41,4,8.22.09,3.8-3.34,5.93-7.05,5.41A84.53,84.53,0,0,1,338,293.68c-4.26-1.39-8.28-3.54-12.47-5.39-3.84,10.73-.36,18,8.64,22.6,7.4,3.82,15.05,7.18,22.66,10.59,1.87.83,4.18.71,6,1.59,3.82,1.82,6.17,5.32,4.16,9.11-1.24,2.36-5.28,5.16-7.5,4.74-7.31-1.36-14.44-3.87-21.48-6.38-4.22-1.51-8.14-3.85-12.4-5.93-3.4,9.62-1,16.52,7.05,21,9.09,5.07,18.39,9.78,27.71,14.43,5.78,2.88,13.43,1.81,17.44,8.7.62,1.07,4.21,1.55,5.7.82,9.71-4.72,19.4-9.55,28.64-15.09,2-1.19,2.14-5.44,4-10.69l-10.25,3.7c-4.32,1.53-8.55,3.48-13,4.49-7.34,1.66-11.24-.12-12.39-4.84-1.1-4.49,1.71-7.17,8.79-10a147.38,147.38,0,0,0,20.31-9.53c5.48-3.2,5.16-3.74,3.75-12.54-5.55,1.62-11,3.54-16.65,4.74-4.37.92-8.63.07-9.75-5.27-1.06-5.1,2.06-7.59,6.4-9.29a171.06,171.06,0,0,0,16.07-6.84c5.78-3,7-7.76,4.1-14-4.61,1.47-8.89,3-13.27,4.2s-8.44.29-10.47-4.37c-1.84-4.24.44-7.77,6.24-10.19,4.23-1.76,8.52-3.42,12.67-5.37,5.82-2.73,7.82-7.13,4.92-14.1-2.59.57-5.23,1.3-7.92,1.73-4.68.75-9.67,1.41-11.25-4.68-1.43-5.55,1.61-8.61,6.85-10a33.61,33.61,0,0,0,5.84-2.23c7.89-3.76,8-4,6.45-15.22-2.78.29-5.86,1.45-8.31.66-2.8-.89-6.51-3.14-7.12-5.5s2-5.6,3.8-8.06c.83-1.15,3-1.3,4.53-2,8.25-3.63,8.25-3.64,7.72-14.41-1-.38-2.05-1.16-3.14-1.17-4.46-.05-8.67-.6-9.65-5.89-1.06-5.69,2.28-8.43,7.33-9.8,4.76-1.29,6.55-4.57,6.33-9.4a93.85,93.85,0,0,1,.08-12.55c.51-6,3.91-9.83,8.08-9.31,5.08.64,6.81,4.28,6.92,8.94.08,3.77.17,7.54.09,11.31-.12,5.61,1.63,9.86,7.63,11.3,4.74,1.13,7.47,4,6.74,9-.76,5.12-4.55,6.51-9.27,6.29a17.51,17.51,0,0,0-3.54.54c-1.75,10.88-1.64,11.18,6.35,14.75,1.91.86,4.57,1,5.71,2.35,1.89,2.33,4.31,5.79,3.74,8.09s-4.23,4.75-7,5.57c-2.47.73-5.58-.66-8.36-1.1-2.28,10.51-1.93,11.63,5.71,15.27,3,1.42,6.38,2,9.38,3.46,3.9,1.83,6,5.5,4.06,9.24-1.22,2.33-4.81,3.83-7.65,4.78-1.72.58-4-.57-6.07-1s-3.88-.85-5.86-1.28c-2.87,6.05-1.63,10.47,3.66,13.24a121.28,121.28,0,0,0,14.86,6.53c4.6,1.67,7.18,4.38,6.13,9.34-.91,4.37-5.53,6.53-11.14,5.13-4.38-1.09-8.61-2.77-13.37-4.33-2.62,5.7-2.25,10.23,3.08,13.15a149.45,149.45,0,0,0,15.82,7.36c7,2.84,9.68,6,8.21,10.46s-5.77,5.94-12.89,4.16c-4.77-1.2-9.36-3.13-14.24-4.8-3.25,6.16-.47,10.18,4.1,12.92,5.71,3.43,11.8,6.24,17.83,9.11,1.84.87,4.11.83,6,1.6,3.83,1.53,6.33,4.22,5.46,8.68s-4.2,6.28-8.37,5.62a83,83,0,0,1-13.32-3.36c-3.85-1.29-7.48-3.21-11.44-5-3.61,6.09-.61,9.73,3.44,12.05,8.3,4.77,16.92,9,25.52,13.21,2.2,1.08,5.45.74,7,2.28,2.07,2.06,3.94,5.25,4.09,8.06.22,3.93-3.26,5.87-6.9,5.56a46.12,46.12,0,0,1-12.2-2.61c-7-2.62-13.71-5.88-21.22-9.17-3.22,5.63-.65,9.78,3.82,12.35,9.36,5.4,19,10.23,28.72,15.05,2.57,1.28,6.23.92,8.21,2.65a13.06,13.06,0,0,1,4.11,8.12c.28,3.91-3.09,5.93-6.78,5.7a37.38,37.38,0,0,1-11-2.23c-8.94-3.46-17.7-7.39-27.75-11.65-2.16,10.63-1,21.52-.58,33.5,4.46.26,8.46.7,12.47.71,32.25,0,64.5,0,96.74,0,3.34,0,7.17-.6,9.85.82a10.66,10.66,0,0,1,4.75,7.6c.14,2-2.78,5-5,6-2.48,1.14-5.74.71-8.66.71q-72.87,0-145.74,0c-2.09,0-4.19,0-6.28-.13-4.35-.26-7.14-2.4-7.32-6.94-.22-5.2,2.85-7.72,7.69-7.94,5.85-.26,11.72-.08,17.58-.16C408.88,437.71,410.93,437.5,414.36,437.29Zm-195.52-.36h89.38V398.78c-13.91,5.75-27.29,11.31-40.69,16.82-6.94,2.85-13.86,2.49-20.7-.4-9.15-3.87-18.28-7.77-28-11.9ZM413.75,373.8c-8.33,3.52-15.87,7.19-23.74,9.87-6.26,2.14-13,4.1-17.81-3.63-1-1.64-4.38-1.8-6.65-2.68-10.09-3.92-20.21-7.76-30.24-11.82-3.4-1.38-6.56-3.33-9.94-5.08-3.27,10.06,0,16.76,7.78,22.26,11.4,8,23.42,14.66,37,18,3.48.84,7.82,1.58,10.84.25,9.87-4.35,19.42-9.5,28.87-14.73C414.28,383.77,416.37,379.8,413.75,373.8Zm-194.59-.51c.14,9-.19,9.46,4.45,12.49a259.84,259.84,0,0,0,22.69,13.05c6.93,3.58,14.33,4.47,21.63.89,10.45-5.13,20.88-10.28,31.17-15.71,9.39-5,12.14-12.68,9.19-21.47C294,367.66,280,372.66,266,377.71c-1.51.55-3.65,1-4.28,2.1-4.43,8.13-11.32,6-17.55,3.9C235.91,380.89,228,377.05,219.16,373.29Z"/><path class="cls-9" d="M360.37,481.18q-41.42,0-82.81,0c-3.34,0-7,.55-9.93-.62-2.6-1-5.56-3.77-6.28-6.34-1.21-4.3,2-7,6.13-7.86a43.79,43.79,0,0,1,8.73-.53q84.07,0,168.15.06c3.7,0,7.73.08,11,1.53,2,.91,4.11,4.54,3.95,6.79s-2.76,5.29-4.95,6.05c-3.42,1.17-7.41.88-11.16.89Q401.77,481.23,360.37,481.18Z"/><path class="cls-10" d="M282.35,494.68c20.9,0,41.81-.08,62.71,0,9.36.05,13.39,2.7,13,7.94-.36,4.73-4.32,7.27-12.67,7.29q-62.7.13-125.41.05c-.42,0-.84,0-1.26,0-8-.4-12.07-3.23-11.75-8.2.3-4.58,3.67-6.94,11.43-7,19.23-.17,38.46-.08,57.69-.09Z"/><path class="cls-11" d="M171.71,481.19c-18.77,0-37.54.1-56.31,0-9.07-.06-12.31-2-12.63-6.91-.37-5.54,3.52-8.35,12.66-8.37,37.95-.1,75.91,0,113.87,0,.42,0,.84,0,1.25,0,8.06.36,12.08,3,12.16,7.85s-3.73,7.36-12.19,7.42c-19.6.14-39.21,0-58.81,0Z"/><path class="cls-12" d="M399.14,494.9c6.65,0,13.3-.14,19.94.05,4.12.12,7.32,2,7.64,6.56.37,5.22-3,8-7.51,8.15q-21.16.52-42.36-.08a7.14,7.14,0,0,1-7.12-7.37c0-5.11,3.5-7.26,8.22-7.35,7.06-.13,14.13,0,21.19,0Z"/><path class="cls-13" d="M503.07,481c-6.67,0-13.34.18-20-.06-4.54-.16-8.34-1.89-8.2-7.33.14-5.2,3.83-7.47,8.3-7.57,13.33-.28,26.68-.26,40,0,4.64.08,8.21,2.8,8.21,7.7s-3.67,7.32-8.33,7.48c-6.66.23-13.33.06-20,.06Z"/></svg>