<svg id="Layer_1" data-name="Layer 1" xmlns="http://www.w3.org/2000/svg" xmlns:xlink="http://www.w3.org/1999/xlink" viewBox="0 0 669.94 669.94"><defs><style>.cls-1{fill:url(#linear-gradient);}.cls-2{fill:#fff;}.cls-3{fill:url(#linear-gradient-2);}.cls-4{fill:url(#linear-gradient-3);}.cls-5{fill:url(#linear-gradient-4);}.cls-6{fill:url(#linear-gradient-5);}.cls-7{fill:url(#linear-gradient-6);}.cls-8{fill:url(#linear-gradient-7);}</style><linearGradient id="linear-gradient" x1="-626.67" y1="-690.54" x2="1278.52" y2="1332.91" gradientTransform="translate(343.72 -144.42) rotate(45)" gradientUnits="userSpaceOnUse"><stop offset="0.04" stop-color="#283c86"/><stop offset="1" stop-color="#45a247"/></linearGradient><linearGradient id="linear-gradient-2" x1="-69.94" y1="227.4" x2="374.32" y2="699.23" gradientTransform="matrix(1, 0, 0, 1, 0, 0)" xlink:href="#linear-gradient"/><linearGradient id="linear-gradient-3" x1="29.7" y1="133.59" x2="473.96" y2="605.42" gradientTransform="matrix(1, 0, 0, 1, 0, 0)" xlink:href="#linear-gradient"/><linearGradient id="linear-gradient-4" x1="-27.75" y1="187.68" x2="416.5" y2="659.51" gradientTransform="matrix(1, 0, 0, 1, 0, 0)" xlink:href="#linear-gradient"/><linearGradient id="linear-gradient-5" x1="201.2" y1="-27.89" x2="645.46" y2="443.94" gradientTransform="matrix(1, 0, 0, 1, 0, 0)" xlink:href="#linear-gradient"/><linearGradient id="linear-gradient-6" x1="139.31" y1="103.89" x2="568.24" y2="560.4" gradientTransform="matrix(1, 0, 0, 1, 0, 0)" xlink:href="#linear-gradient"/><linearGradient id="linear-gradient-7" x1="96.09" y1="144.5" x2="525.02" y2="601.01" gradientTransform="matrix(1, 0, 0, 1, 0, 0)" xlink:href="#linear-gradient"/></defs><title>Insurance Icons2</title><circle class="cls-1" cx="346.19" cy="342.7" r="319.54" transform="translate(-140.93 345.17) rotate(-45)"/><circle class="cls-2" cx="326.19" cy="322.7" r="319.54"/><path class="cls-3" d="M33.68,322.7l1.53-25.27a7.33,7.33,0,0,0-7.32-7.77h0a7.33,7.33,0,0,0-7.31,6.69q-1.11,13.06-1.13,26.35a309.29,309.29,0,0,0,3.49,46.42,7.26,7.26,0,0,0,8.1,6.2,7.11,7.11,0,0,0,6-8.13A294.06,294.06,0,0,1,33.68,322.7Z"/><path class="cls-4" d="M127.49,100.82h0a7.18,7.18,0,0,0-11.2-1.77q-3.56,3.32-7,6.76A304.61,304.61,0,0,0,25.49,261.7,7.16,7.16,0,0,0,31,270.09h0a7.14,7.14,0,0,0,8.48-5.59,292.54,292.54,0,0,1,86.63-155A7.17,7.17,0,0,0,127.49,100.82Z"/><path class="cls-5" d="M326.19,615.21C190,615.21,75.32,521.7,42.87,395.52a7.11,7.11,0,0,0-9.74-4.71h0A7.15,7.15,0,0,0,29,399.15,306.87,306.87,0,0,0,512.49,566.42a7.2,7.2,0,0,0,1.21-10.21h0a7.21,7.21,0,0,0-10-1.18A290.94,290.94,0,0,1,326.19,615.21Z"/><path class="cls-6" d="M632.92,322.7A306.87,306.87,0,0,0,160.56,64.42a7.22,7.22,0,0,0-2.21,9.86h0a7.2,7.2,0,0,0,10,2.24A290.76,290.76,0,0,1,329.74,30.21c160.58,1.92,290.15,134.12,289,294.71A291.72,291.72,0,0,1,526,536.13a7.18,7.18,0,0,0-.46,10h0a7.18,7.18,0,0,0,10.26.48q3.71-3.45,7.29-7A304.73,304.73,0,0,0,632.92,322.7Z"/><path class="cls-7" d="M564,337.24c-1.05-1.87-2.08-3.79-3.08-5.65-.56-1-1.12-2.09-1.69-3.13l-5.83-10.71-34.67-63.64-5.59-10.25c-7.13-13.1-14.51-26.65-21.82-40-2.83-5.16-7.6-6.61-12.76-3.89-2.75,1.45-5.49,3-8.13,4.52-2.23,1.27-4.54,2.58-6.82,3.81q-9,4.86-18,9.64-7.36,3.93-14.73,7.86c-5.93,3.18-7.3,7.66-4.17,13.67.85,1.63,1.75,3.24,2.62,4.8.54,1,1.07,1.91,1.59,2.87l14,25.66q9,16.54,18,33.07l7.08,13c8.87,16.29,18,33.13,27,49.67a2.31,2.31,0,0,1-.22,1.31c-3.54,5.22-7.21,10.5-10.75,15.6-2.78,4-5.57,8-8.33,12.06-7.57,11.05-16.13,19.1-26.16,24.6C435.27,431,418.87,439.9,403,448.51l-26.85,14.61c-14.94,8.14-32.31,17.61-49.34,27a13.83,13.83,0,0,1-10.5,1.27,11.18,11.18,0,0,1-6.77-5.4c-3.47-6.47-1.28-13.49,5.35-17.09,13.54-7.35,27.93-15.17,42-22.94a9.63,9.63,0,0,0,4.77-5.69,8.6,8.6,0,0,0-.82-6.59c-2.57-4.62-7.69-5.87-12.74-3.12l-8,4.36Q312.47,450,284.82,465a34.65,34.65,0,0,1-6.92,3.13c-5.38,1.47-11.77-1.89-13.94-7.34-2.39-6,.24-12.32,6.54-15.73l12.6-6.83c17.38-9.43,35.35-19.17,53-28.86a12.78,12.78,0,0,0,5.25-5.79c1.46-3.28.48-6.84-2.54-9.3a8.87,8.87,0,0,0-10.35-.9c-3.47,1.83-7,3.75-10.33,5.61l-5.3,2.9-44.57,24.23-10,5.45c-7.13,3.9-14.51,7.94-21.81,11.81-6.33,3.36-13,1.51-16.28-4.5-3.45-6.37-1.5-13.43,4.64-16.8,13.69-7.5,27.64-15.07,41.14-22.39l19.59-10.64,5-2.72c8.6-4.67,17.5-9.51,26.22-14.32,4.74-2.63,6.39-7.81,3.92-12.33-2.29-4.18-7.42-5.6-12.2-3.37-.78.36-1.52.77-2.23,1.17l-7.79,4.25-22.17,12.07L268.67,378Q255.3,385.25,242,392.58A13.7,13.7,0,0,1,231.5,394a11.53,11.53,0,0,1-7-5.7,12.61,12.61,0,0,1,5.58-17c6.79-3.31,13.46-7.07,19.92-10.71,2.19-1.23,4.38-2.47,6.57-3.68a9.81,9.81,0,0,0,4.9-5.88,8.26,8.26,0,0,0-.94-6.41c-2.8-4.72-7.67-5.94-12.71-3.19l-8.13,4.49c-5.94,3.3-12.09,6.7-18.21,9.88A29.87,29.87,0,0,0,217,406.19c-10.1,7.69-11.27,9-13.65,14.28-3.65,8-3.92,15.55-.8,22.36,4.31,9.42,10.18,15.54,17.44,18.21s15.82,1.91,25.63-2.21c1.79,11.59,6.86,19.23,15.82,23.92,9.16,4.78,18.82,4.65,28.76-.41,0,0,0,.07,0,.1,1.45,10.85,7.48,19.67,16.53,24.19a29.15,29.15,0,0,0,13.1,3.08A33,33,0,0,0,336,505.32c8.42-4.73,17.07-9.41,25.43-13.94l9.69-5.26,23.21-12.66C414.52,462.44,435.39,451,456,440c14.68-7.89,26.09-17.89,34.86-30.56C498.07,399,505.22,388.72,512.1,379a10,10,0,0,1,2.67-2.86c3.2-1.87,6.54-3.67,9.77-5.4,1.35-.73,2.71-1.45,4.05-2.19l8.81-4.79c7.45-4,15.15-8.22,22.68-12.4,2.92-1.61,4.73-3.63,5.4-6S565.66,340.26,564,337.24Zm-19.11,2.18-33.61,18.29-65.52-120,34-18.13Z"/><path class="cls-8" d="M201.85,415.91a8.49,8.49,0,0,0,2.16-6.18,10.14,10.14,0,0,0-3.72-6.87l-3.2-2.76c-7.62-6.56-15.51-13.35-23.32-20a2,2,0,0,1-.8-2.66c1-3.77,2-7.61,2.85-11.33.45-1.88.9-3.76,1.37-5.63l6.86-27.61c7.48-30,15.21-61.12,22.76-91.69.36-1.43.62-1.61,1.7-1.83,10.34-2.14,21.57-4.55,34.31-7.38a74.46,74.46,0,0,1,35.23.3c12.2,3.09,24.62,6.15,36.63,9.11l16.34,4,15.88,3.93c13.59,3.35,27.65,6.82,41.45,10.32a11.85,11.85,0,0,1,7.37,5.54A12.23,12.23,0,0,1,382,283.16q-11.43-2.9-22.87-5.75l-15.53-3.85-20.18-5c-8.3-2.07-11.21,1.06-13.67,7.58-2,5.34-4.38,10.91-7.87,15.46-11,14.33-25.7,20.46-43.78,18.18a96,96,0,0,1-11.29-2.36c-2.54-.63-5.17-1.29-7.8-1.8-5.07-1-9.12,1.65-10.3,6.72a8.65,8.65,0,0,0,1.1,6.56,8.37,8.37,0,0,0,5.32,3.73c2.08.46,4.16,1,6.25,1.46,6.6,1.57,13.42,3.2,20.29,3.64,20,1.27,37.65-6.12,51-21.36a106.39,106.39,0,0,0,9.51-13.42c1.14-1.8,2.32-3.64,3.54-5.49L338,290.49c11.77,2.91,23.93,5.92,36,9,5.11,1.31,11.18,2.47,17.48,1.13,13.93-2.95,23.46-14.74,23.7-29.34.23-13.4-9.43-25.57-22.95-29l-24.88-6.22L334.87,228l-14.27-3.57c-12.88-3.23-26.2-6.57-39.34-9.72a84.47,84.47,0,0,0-34.53-1.38c-8,1.41-16.08,3.24-23.88,5-4.26,1-8.66,2-13,2.88l-1.71.37c-4.65,1-9,2-13.78.65-10.85-3-22-5.77-32.72-8.41l-12.08-3c-3.82-1-6.59-.81-8.72.48s-3.55,3.64-4.49,7.45q-1.87,7.53-3.77,15.07-1.71,6.85-3.43,13.73-9.41,37.93-18.82,75.87l-10.22,41.23c-1,3.91-.83,6.61.45,8.73s3.6,3.51,7.52,4.47c15.58,3.84,31.69,7.81,47.9,11.87a8.47,8.47,0,0,1,3.24,1.35c8.66,7.27,17.4,14.75,25.85,22l3.67,3.15a10.34,10.34,0,0,0,6.67,2.71A8.47,8.47,0,0,0,201.85,415.91Zm-12.8-176.84L156.13,371.49l-37.19-9.21,32.88-132.46Z"/></svg>