<svg id="Layer_1" data-name="Layer 1" xmlns="http://www.w3.org/2000/svg" xmlns:xlink="http://www.w3.org/1999/xlink" viewBox="0 0 669.94 669.94"><defs><style>.cls-1{fill:url(#linear-gradient);}.cls-2{fill:#3c9950;}.cls-3{fill:#fff;}.cls-4{fill:url(#linear-gradient-2);}.cls-5{fill:url(#linear-gradient-3);}.cls-6{fill:url(#linear-gradient-4);}.cls-7{fill:url(#linear-gradient-5);}.cls-8{fill:url(#linear-gradient-6);}.cls-9{fill:url(#linear-gradient-7);}.cls-10{fill:url(#linear-gradient-8);}.cls-11{fill:url(#linear-gradient-9);}.cls-12{fill:url(#linear-gradient-10);}.cls-13{fill:url(#linear-gradient-11);}.cls-14{fill:url(#linear-gradient-12);}.cls-15{fill:url(#linear-gradient-13);}.cls-16{fill:url(#linear-gradient-14);}</style><linearGradient id="linear-gradient" x1="-625.53" y1="-689.24" x2="1279.66" y2="1334.2" gradientTransform="translate(344.97 -144.84) rotate(45)" gradientUnits="userSpaceOnUse"><stop offset="0.04" stop-color="#283c86"/><stop offset="1" stop-color="#45a247"/></linearGradient><linearGradient id="linear-gradient-2" x1="-52.11" y1="248.18" x2="398.27" y2="716.94" gradientTransform="matrix(1, 0, 0, 1, 0, 0)" xlink:href="#linear-gradient"/><linearGradient id="linear-gradient-3" x1="47.12" y1="152.84" x2="497.5" y2="621.6" gradientTransform="matrix(1, 0, 0, 1, 0, 0)" xlink:href="#linear-gradient"/><linearGradient id="linear-gradient-4" x1="-12.85" y1="210.46" x2="437.53" y2="679.22" gradientTransform="matrix(1, 0, 0, 1, 0, 0)" xlink:href="#linear-gradient"/><linearGradient id="linear-gradient-5" x1="213.91" y1="-7.41" x2="664.29" y2="461.35" gradientTransform="matrix(1, 0, 0, 1, 0, 0)" xlink:href="#linear-gradient"/><linearGradient id="linear-gradient-6" x1="90.17" y1="76.71" x2="525.23" y2="640.46" gradientTransform="matrix(1, 0, 0, 1, 0, 0)" xlink:href="#linear-gradient"/><linearGradient id="linear-gradient-7" x1="-30.96" y1="170.19" x2="404.1" y2="733.93" gradientTransform="matrix(1, 0, 0, 1, 0, 0)" xlink:href="#linear-gradient"/><linearGradient id="linear-gradient-8" x1="63.89" y1="96.99" x2="498.95" y2="660.73" gradientTransform="matrix(1, 0, 0, 1, 0, 0)" xlink:href="#linear-gradient"/><linearGradient id="linear-gradient-9" x1="160.05" y1="22.78" x2="595.12" y2="586.52" gradientTransform="matrix(1, 0, 0, 1, 0, 0)" xlink:href="#linear-gradient"/><linearGradient id="linear-gradient-10" x1="34.46" y1="119.7" x2="469.52" y2="683.45" gradientTransform="matrix(1, 0, 0, 1, 0, 0)" xlink:href="#linear-gradient"/><linearGradient id="linear-gradient-11" x1="37.55" y1="117.31" x2="472.62" y2="681.06" gradientTransform="matrix(1, 0, 0, 1, 0, 0)" xlink:href="#linear-gradient"/><linearGradient id="linear-gradient-12" x1="41.16" y1="114.53" x2="476.22" y2="678.28" gradientTransform="matrix(1, 0, 0, 1, 0, 0)" xlink:href="#linear-gradient"/><linearGradient id="linear-gradient-13" x1="75.48" y1="88.04" x2="510.55" y2="651.79" gradientTransform="matrix(1, 0, 0, 1, 0, 0)" xlink:href="#linear-gradient"/><linearGradient id="linear-gradient-14" x1="82.19" y1="82.87" x2="517.25" y2="646.62" gradientTransform="matrix(1, 0, 0, 1, 0, 0)" xlink:href="#linear-gradient"/></defs><title>Insurance Icons2</title><circle class="cls-1" cx="347.32" cy="344" r="319.54" transform="translate(-141.52 346.35) rotate(-45)"/><circle class="cls-2" cx="327.32" cy="324" r="319.54"/><circle class="cls-3" cx="327.32" cy="324" r="319.54"/><path class="cls-4" d="M34.81,324l1.53-25.27A7.33,7.33,0,0,0,29,291h0a7.33,7.33,0,0,0-7.31,6.7Q20.6,310.72,20.59,324a310.71,310.71,0,0,0,3.48,46.42,7.28,7.28,0,0,0,8.11,6.2,7.13,7.13,0,0,0,6-8.14A292.54,292.54,0,0,1,34.81,324Z"/><path class="cls-5" d="M128.62,102.12h0a7.19,7.19,0,0,0-11.2-1.78q-3.54,3.31-7,6.77A304.5,304.5,0,0,0,26.63,263a7.15,7.15,0,0,0,5.52,8.39h0a7.15,7.15,0,0,0,8.48-5.59,292.46,292.46,0,0,1,86.62-155A7.16,7.16,0,0,0,128.62,102.12Z"/><path class="cls-6" d="M327.32,616.51C191.16,616.51,76.45,523,44,396.82a7.12,7.12,0,0,0-9.74-4.72l0,0a7.15,7.15,0,0,0-4.07,8.33A306.87,306.87,0,0,0,513.63,567.71a7.18,7.18,0,0,0,1.2-10.2h0a7.18,7.18,0,0,0-10-1.18A291,291,0,0,1,327.32,616.51Z"/><path class="cls-7" d="M634.06,324A306.86,306.86,0,0,0,161.69,65.72a7.22,7.22,0,0,0-2.21,9.86h0a7.2,7.2,0,0,0,10,2.24A290.81,290.81,0,0,1,330.87,31.51c160.59,1.91,290.16,134.12,289,294.71a291.77,291.77,0,0,1-92.71,211.21,7.18,7.18,0,0,0-.46,10h0a7.19,7.19,0,0,0,10.26.48q3.71-3.45,7.3-7.05A304.73,304.73,0,0,0,634.06,324Z"/><path class="cls-8" d="M523.49,300.53l-41-45.82c-9.7-11.56-23.44-26.8-40.42-45.16l-18.82-21a5.78,5.78,0,0,0-2.11-1.49c-2.8-3-4.93-5.32-6-6.54l-40.84-45.75c-6.74-7.55-12.55-14.43-17.22-20-12.93-15.31-19.42-23-28.05-23s-15.13,7.69-28.06,23c-4.65,5.52-10.45,12.38-17.21,20l-9.06,10.15v-8.55h2a6,6,0,0,0,6-6V111.32a6,6,0,0,0-6-6H220.93a6,6,0,0,0-6,6v19.07a6,6,0,0,0,6,6h1.75v66.59c-7.05,7.83-15.33,17.07-23.89,26.73l-5.54,6.27-57.82,64.6a5.94,5.94,0,1,0,8.85,7.92l15.85-17.71V500.22A14.16,14.16,0,0,0,164,510c.1.11.2.23.32.34a14.12,14.12,0,0,0,10.07,4.18H484.52a14.27,14.27,0,0,0,14.26-14.26V290.74l15.86,17.71a5.94,5.94,0,0,0,8.85-7.92Zm-40.88-27.86c2.41,3,3.94,5.2,4.26,6.18V446.42H463.81v-88h.37v-6a43.4,43.4,0,0,0-12.81-30.91h0l0,0a43.74,43.74,0,0,0-74.64,30.94v6h.37v88H172V279.3c.67-.88,2.87-3.64,10-12.18,5.15-6.16,12-14.07,20.32-23.56l40.48-45.22c3.82-4.24,6.87-7.62,8.91-9.93l22-24.69.89-1h0l17.91-20.07c7.22-8.09,12.89-14.8,17.45-20.21,9.54-11.3,15.84-18.76,19-18.76s9.42,7.46,19,18.77l.06.08c4.55,5.38,10.21,12.09,17.38,20.12l40.84,45.76c2.3,2.57,6.74,7.33,12.36,13.36l.56.61,13.89,14.92ZM324.3,502.58v-9.82a6,6,0,1,0-11.91,0v9.82H250.58v-9.82a6,6,0,1,0-11.91,0v9.82H174.39a2.34,2.34,0,0,1-1.69-.74l-.09-.08a2.35,2.35,0,0,1-.57-1.54V458.33H277.63a5.92,5.92,0,0,0-2.53,4.86V473H256.48a6,6,0,1,0,0,11.91h49.14a6,6,0,1,0,0-11.91H287v-9.82a5.93,5.93,0,0,0-2.54-4.86h91.37v6.81h-7a6,6,0,0,0-6,5.95v2.11a6.08,6.08,0,0,0-1.49-.19H330.2a6,6,0,1,0,0,11.91h23.92a5.93,5.93,0,0,0-2.57,4.89v12.77Zm110.52-156.1,11.92-11.92a31.81,31.81,0,0,1,5,11.92Zm-8.42-8.43V321.17a31.45,31.45,0,0,1,11.94,4.94Zm-11.91,0-11.94-11.95a31.45,31.45,0,0,1,11.94-4.94Zm-8.42,8.42H389.18a32,32,0,0,1,5-11.92Zm45.83,11.91v6.66a5.94,5.94,0,0,0-10-2.88L435,369H405.86L399,362.17a5.94,5.94,0,0,0-8.42,0,5.84,5.84,0,0,0-1.58,2.88v-6.66ZM389,412.07a5.89,5.89,0,0,0,1.57,2.89l8.51,8.5V431l-8.5,8.51a5.8,5.8,0,0,0-1.58,2.88Zm62.91,30.36a5.86,5.86,0,0,0-1.57-2.88L441.82,431v-7.58l8.51-8.5a5.89,5.89,0,0,0,1.57-2.89ZM411,384.82V381h18.93v3.87ZM399,403.6l6.87-6.87H435l6.87,6.87a5.84,5.84,0,0,0,2.47,1.45,6,6,0,0,0-2.47,1.49L435,413.41H405.86L399,406.54a5.9,5.9,0,0,0-2.42-1.47A6,6,0,0,0,399,403.6Zm30.92,21.72v3.87H411v-3.87ZM405.86,441.1H435l5.32,5.32H400.54Zm46-31.68a5.86,5.86,0,0,0-1.57-2.88,6,6,0,0,0-2.47-1.49,5.74,5.74,0,0,0,4-4.34Zm0-11.36a5.91,5.91,0,0,0-1.57-2.88l-8.51-8.5v-7.59l8.51-8.5a5.91,5.91,0,0,0,1.57-2.88Zm-52.83-19v7.59l-8.5,8.5a5.84,5.84,0,0,0-1.58,2.88V367.71a5.91,5.91,0,0,0,1.57,2.88ZM389,400.72a5.84,5.84,0,0,0,1.58,2.88,5.91,5.91,0,0,0,2.41,1.47,5.93,5.93,0,0,0-4,4.35Zm62.42,45.7a5.54,5.54,0,0,0,.49-1.34v1.34ZM389,445.08a5.54,5.54,0,0,0,.49,1.34H389Zm64.15,20.06H387.75v-6.81h65.39Zm13,11.9v6.82H374.77V477h91.35ZM363.46,495.76h114v6.82h-114ZM486.87,485a5.91,5.91,0,0,0-3.48-1.13H478V471.09a6,6,0,0,0-6-5.95h-7v-6.81h21.82ZM262.76,136.34v8.09a5.77,5.77,0,0,0-1.67-.25h-6.24v-1.87a6,6,0,0,0-11.91,0v1.87H236.7a5.91,5.91,0,0,0-2.11.4v-8.24ZM253.15,169a5.94,5.94,0,0,0-4.26-1.81h-6.24v-1.87a5.94,5.94,0,0,0-8.06-5.56v-4a5.9,5.9,0,0,0,2.11.39h24.39a5.76,5.76,0,0,0,1.67-.24v2.37Zm-16.45,10.1h7.4l-9.51,10.61v-11A5.9,5.9,0,0,0,236.7,179.05Zm34-54.62H226.88v-7.16h43.85Z"/><path class="cls-9" d="M231.91,473H182.76a6,6,0,1,0,0,11.91h18.62v9.81a6,6,0,1,0,11.91,0v-9.81h18.62a6,6,0,0,0,0-11.91Z"/><path class="cls-10" d="M331.74,310.54H199.37a6,6,0,0,0-6,5.95v83.62a6,6,0,0,0,6,6H331.74a6,6,0,0,0,6-6V316.49A6,6,0,0,0,331.74,310.54ZM205.33,344.83H259.6v49.33H205.33Zm120.46-11.91H205.33V322.44H325.79Zm-42.1,61.24a6,6,0,0,0,2.17-1.38l34.66-34.66a6,6,0,1,0-8.42-8.42l-34.66,34.66a5.95,5.95,0,0,0,2.17,9.8h-8.1V344.83h54.28v49.33Z"/><path class="cls-11" d="M385.06,200.79h0a76.11,76.11,0,0,0-107.61,0h0l0,0a75.6,75.6,0,0,0-22.27,53.79v5.95h152.2v-5.95a75.61,75.61,0,0,0-22.28-53.81ZM337.2,240.23V190.7a63.61,63.61,0,0,1,35,14.5Zm-11.91,0-35-35a63.61,63.61,0,0,1,35-14.5Zm-8.42,8.42H267.33a63.93,63.93,0,0,1,14.51-35Zm63.78-35a64,64,0,0,1,14.51,35H345.62Z"/><path class="cls-12" d="M216.28,369.68a5.91,5.91,0,0,0,4.21-1.75l7.33-7.33a6,6,0,0,0,0-8.43,6,6,0,0,0-8.42,0l-7.33,7.34a6,6,0,0,0,4.21,10.17Z"/><path class="cls-13" d="M253.22,347.31a6,6,0,0,0-8.42,0L210.14,382a6,6,0,0,0,8.42,8.43l34.66-34.66A6,6,0,0,0,253.22,347.31Z"/><path class="cls-14" d="M242.51,368.68l-7,7a6,6,0,0,0,8.42,8.42l7-7a6,6,0,1,0-8.42-8.42Z"/><path class="cls-15" d="M286.7,354.56l-7.33,7.33a6,6,0,1,0,8.42,8.42l7.33-7.33a6,6,0,0,0-8.42-8.42Z"/><path class="cls-16" d="M309.81,371.06l-7,7a6,6,0,0,0,8.42,8.42l7-7a6,6,0,0,0-8.42-8.43Z"/></svg>