<svg id="Layer_1" data-name="Layer 1" xmlns="http://www.w3.org/2000/svg" viewBox="0 0 639.51 639.51"><defs><style>.cls-1,.cls-2{fill:#fff;}.cls-1{opacity:0.18;}</style></defs><title>Insurance Icons2</title><circle class="cls-1" cx="319.76" cy="319.76" r="319.76"/><path class="cls-2" d="M514.17,304.78l-41-45.82c-9.71-11.57-23.45-26.8-40.42-45.16l-18.82-21a5.9,5.9,0,0,0-2.11-1.49c-2.81-3-4.93-5.31-6-6.53L365,139c-6.73-7.55-12.54-14.43-17.21-20-12.93-15.32-19.42-23-28.06-23s-15.12,7.69-28.05,23c-4.66,5.52-10.45,12.38-17.22,20l-9.05,10.14v-8.54h2a6,6,0,0,0,5.95-6V115.56a6,6,0,0,0-5.95-6H211.62a6,6,0,0,0-6,6v19.07a6,6,0,0,0,6,6h1.74v66.59c-7,7.82-15.32,17.06-23.88,26.72l-5.54,6.27-57.83,64.61A5.94,5.94,0,0,0,135,312.7L150.82,295V504.47a14.19,14.19,0,0,0,3.86,9.73c.1.12.21.23.32.35a14.2,14.2,0,0,0,10.08,4.18H475.2a14.29,14.29,0,0,0,14.27-14.26V295l15.85,17.72a5.94,5.94,0,1,0,8.85-7.92Zm-40.88-27.86c2.42,3,3.95,5.2,4.27,6.18V450.66H454.5v-88h.36v-5.95a43.47,43.47,0,0,0-12.8-30.92h0a43.73,43.73,0,0,0-74.63,30.94v5.95h.37v88h-205V283.55c.66-.88,2.87-3.65,10-12.19,5.14-6.16,12-14.06,20.31-23.55l40.48-45.23c3.83-4.23,6.87-7.61,8.92-9.93l22-24.68.89-1h0l17.91-20.06c7.22-8.1,12.88-14.81,17.45-20.21,9.54-11.3,15.84-18.77,19-18.77s9.43,7.47,19,18.78l.07.08c4.55,5.38,10.2,12.08,17.38,20.12l40.84,45.76c2.29,2.57,6.73,7.33,12.35,13.36l.57.6c3.81,4.09,8.61,9.24,13.88,14.92ZM315,506.82V497a6,6,0,0,0-11.91,0v9.82H241.27V497a6,6,0,0,0-11.91,0v9.82H165.08a2.41,2.41,0,0,1-1.7-.73l-.08-.08a2.37,2.37,0,0,1-.57-1.54v-41.9H268.32a6,6,0,0,0-2.54,4.87v9.81H247.16a6,6,0,0,0,0,11.91h49.15a6,6,0,0,0,0-11.91H277.69v-9.81a6,6,0,0,0-2.53-4.87h91.37v6.81h-7a6,6,0,0,0-5.95,6v2.11a6.15,6.15,0,0,0-1.49-.2H320.88a6,6,0,0,0,0,11.91h23.93a6,6,0,0,0-2.58,4.9v12.76Zm110.52-156.1,11.92-11.92a31.79,31.79,0,0,1,5,11.92Zm-8.42-8.42V325.42A31.43,31.43,0,0,1,429,330.36Zm-11.91,0-11.94-11.94a31.47,31.47,0,0,1,11.94-4.95Zm-8.43,8.42H379.87a31.93,31.93,0,0,1,5-11.92Zm45.84,11.91v6.67a5.94,5.94,0,0,0-10-2.89l-6.87,6.88H396.54l-6.87-6.87a6,6,0,0,0-8.42,0,6,6,0,0,0-1.58,2.89v-6.67Zm-62.92,53.69a5.88,5.88,0,0,0,1.58,2.88l8.5,8.51v7.58l-8.5,8.5a5.92,5.92,0,0,0-1.58,2.88Zm62.92,30.36a5.91,5.91,0,0,0-1.58-2.89l-8.5-8.5V427.7l8.5-8.5a5.92,5.92,0,0,0,1.58-2.88Zm-40.93-57.62v-3.87H420.6v3.87Zm-12,18.78,6.87-6.86h29.18l6.87,6.86a5.93,5.93,0,0,0,2.46,1.46,5.89,5.89,0,0,0-2.46,1.48l-6.87,6.87H396.54l-6.87-6.87a5.94,5.94,0,0,0-2.42-1.47A5.78,5.78,0,0,0,389.67,407.84Zm30.93,21.72v3.87H401.66v-3.87Zm-24.06,15.78h29.18l5.32,5.32H391.22Zm46-31.67a5.9,5.9,0,0,0-4-4.37,5.83,5.83,0,0,0,4-4.34Zm0-11.36a6,6,0,0,0-1.58-2.89l-8.5-8.5v-7.58l8.5-8.5a6,6,0,0,0,1.58-2.89Zm-52.84-19v7.58l-8.5,8.5a6,6,0,0,0-1.58,2.89V372a5.91,5.91,0,0,0,1.58,2.89ZM379.67,405a5.91,5.91,0,0,0,4,4.35,5.91,5.91,0,0,0-4,4.35Zm62.43,45.7a6.45,6.45,0,0,0,.49-1.33v1.33Zm-62.43-1.33a6,6,0,0,0,.5,1.33h-.5Zm64.16,20.05h-65.4v-6.81h65.4Zm13,11.91v6.81H365.46v-6.81H456.8ZM354.14,500h114v6.81h-114Zm123.42-10.77a6,6,0,0,0-3.49-1.14h-5.36V475.34a6,6,0,0,0-5.95-6h-7v-6.81h21.82ZM253.45,140.59v8.08a6.2,6.2,0,0,0-1.68-.24h-6.24v-1.87a6,6,0,1,0-11.91,0v1.87h-6.24a5.94,5.94,0,0,0-2.11.39v-8.23Zm-9.61,32.6a5.93,5.93,0,0,0-4.26-1.8h-6.24v-1.87a5.93,5.93,0,0,0-8.07-5.56v-4a5.74,5.74,0,0,0,2.11.4h24.39a5.84,5.84,0,0,0,1.68-.25v2.38ZM227.38,183.3h7.4l-9.51,10.61v-11A5.94,5.94,0,0,0,227.38,183.3Zm34-54.62H217.57v-7.16h43.84Z"/><path class="cls-2" d="M222.59,477.25H173.45a6,6,0,1,0,0,11.91h18.61V499A6,6,0,0,0,204,499v-9.82h18.62a6,6,0,0,0,0-11.91Z"/><path class="cls-2" d="M322.43,314.78H190.06a6,6,0,0,0-6,6v83.62a6,6,0,0,0,6,5.95H322.43a6,6,0,0,0,5.95-5.95V320.74A6,6,0,0,0,322.43,314.78ZM196,349.07h54.28V398.4H196Zm120.46-11.91H196V326.69H316.47ZM274.38,398.4a5.9,5.9,0,0,0,2.17-1.38l34.66-34.65a6,6,0,1,0-8.42-8.43L268.13,388.6a6,6,0,0,0,0,8.42,5.78,5.78,0,0,0,2.16,1.38H262.2V349.07h54.27V398.4Z"/><path class="cls-2" d="M375.74,205h0a76.1,76.1,0,0,0-107.61,0h0l0,0a75.63,75.63,0,0,0-22.27,53.79v6H398v-6a75.59,75.59,0,0,0-22.28-53.8Zm-47.86,39.44V194.94a63.55,63.55,0,0,1,35,14.51Zm-11.91,0-35-35a63.49,63.49,0,0,1,35-14.51Zm-8.42,8.42H258a64,64,0,0,1,14.52-35Zm63.78-35a64,64,0,0,1,14.52,35H336.3Z"/><path class="cls-2" d="M207,373.92a5.92,5.92,0,0,0,4.21-1.74l7.33-7.34a5.87,5.87,0,0,0,1.75-4.21,6,6,0,0,0-10.17-4.21l-7.33,7.34A6,6,0,0,0,207,373.92Z"/><path class="cls-2" d="M243.9,351.56a6,6,0,0,0-8.42,0l-34.65,34.66a6,6,0,0,0,8.42,8.42L243.91,360A6,6,0,0,0,243.9,351.56Z"/><path class="cls-2" d="M233.19,372.93l-7,7a6,6,0,1,0,8.43,8.42l7-7a6,6,0,1,0-8.42-8.42Z"/><path class="cls-2" d="M277.39,358.8l-7.34,7.34a6,6,0,0,0,8.42,8.42l7.34-7.33a6,6,0,1,0-8.42-8.43Z"/><path class="cls-2" d="M300.49,375.31l-7,7A6,6,0,0,0,302,390.7l7-7a6,6,0,1,0-8.42-8.42Z"/></svg>