<svg id="Layer_1" data-name="Layer 1" xmlns="http://www.w3.org/2000/svg" viewBox="0 0 250 250"><defs><style>.cls-1{fill:#00c853;}</style></defs><title>icons</title><path class="cls-1" d="M106.86,70.31s23-3.43,20.87,20.88C127.73,91.19,126,71.26,106.86,70.31Z"/><path class="cls-1" d="M147.36,179.34h0a50.16,50.16,0,0,0-25.1-15.2,172,172,0,0,0-42.38-5.28H42.47A36.28,36.28,0,0,1,6.18,122.58V87.43A36.29,36.29,0,0,1,42.47,51.14h68.59a36.3,36.3,0,0,1,36.3,36.29ZM42.47,65A22.45,22.45,0,0,0,20.05,87.43v35.15A22.45,22.45,0,0,0,42.47,145H79.88a186,186,0,0,1,53.6,7.86V87.43A22.44,22.44,0,0,0,111.06,65Z"/><path class="cls-1" d="M81.3,97.45a6.73,6.73,0,0,0,3.61-6.09,5.93,5.93,0,0,0-2.31-5,10.11,10.11,0,0,0-6.34-1.62A17,17,0,0,0,69,86.47a23.7,23.7,0,0,0-6.56,4.94l-8.7-9.22a33,33,0,0,1,9.49-7.35,29.1,29.1,0,0,1,13.1-3A31.49,31.49,0,0,1,85.48,73a20.22,20.22,0,0,1,7.13,3.6,16.7,16.7,0,0,1,4.67,6A20.23,20.23,0,0,1,99,90.8a18.82,18.82,0,0,1-1.3,7.69,16.14,16.14,0,0,1-3.79,5.5,19.18,19.18,0,0,1-5.71,3.67,38.47,38.47,0,0,1-7.1,2.21l-.93,5.68-9.47.16-2.39-15,.46-.48Q77.62,99.71,81.3,97.45ZM67.94,137.87,67.69,123l15-.25.24,14.86Z"/><path class="cls-1" d="M216,61.78s18.73-2.79,17,17C233,78.74,231.51,62.55,216,61.78Z"/><path class="cls-1" d="M155.47,67.93c0-6.64,10.15-16.79,22.62-16.79h42.77a22.62,22.62,0,0,1,22.62,22.62V95.67a22.63,22.63,0,0,1-22.62,22.63H197.53a107,107,0,0,0-26.7,3.36,30.76,30.76,0,0,0-15.36,9.47h0Zm22.62-8.14a14,14,0,0,0-14,14v40.78a115.76,115.76,0,0,1,33.41-4.9h23.33a14,14,0,0,0,14-14V73.76a14,14,0,0,0-14-14Z"/><path class="cls-1" d="M203.39,64.58v1.16L200.66,91.4h-4.87l-2.73-25.66V64.58Zm-9.87,40.63V95.92h9.35v9.29Z"/><path class="cls-1" d="M218.85,141.94s18.72-2.79,17,17C235.81,158.9,234.37,142.71,218.85,141.94Z"/><path class="cls-1" d="M158.32,148.09c0-6.65,10.15-16.8,22.63-16.8h42.76a22.63,22.63,0,0,1,22.63,22.63v21.91a22.63,22.63,0,0,1-22.63,22.62H200.39a107.47,107.47,0,0,0-26.7,3.36,30.8,30.8,0,0,0-15.37,9.48h0ZM181,139.94a14,14,0,0,0-14,14V194.7a116.17,116.17,0,0,1,33.42-4.9h23.32a14,14,0,0,0,14-14V153.92a14,14,0,0,0-14-14Z"/><path class="cls-1" d="M203.58,160.25a4.21,4.21,0,0,0,2.32-3.76,3.74,3.74,0,0,0-1.39-3.13,6.34,6.34,0,0,0-3.95-1.08,10.62,10.62,0,0,0-4.56,1,14.82,14.82,0,0,0-4.15,3l-5.34-5.85a20.77,20.77,0,0,1,6-4.5,18.18,18.18,0,0,1,8.21-1.73,19.65,19.65,0,0,1,5.71.79,12.43,12.43,0,0,1,4.42,2.32,10.36,10.36,0,0,1,2.85,3.8,12.62,12.62,0,0,1,1,5.17,11.84,11.84,0,0,1-.89,4.79,10.2,10.2,0,0,1-2.43,3.39,11.85,11.85,0,0,1-3.6,2.24,24.12,24.12,0,0,1-4.46,1.3l-.63,3.54h-5.92l-1.34-9.4.29-.29C199.42,161.7,202,161.17,203.58,160.25Zm-8.77,25.12v-9.29h9.35v9.29Z"/></svg>