<?xml version="1.0" encoding="utf-8"?>
<!-- Generator: Adobe Illustrator 23.0.2, SVG Export Plug-In . SVG Version: 6.00 Build 0)  -->
<svg version="1.1" id="Layer_1" xmlns="http://www.w3.org/2000/svg" xmlns:xlink="http://www.w3.org/1999/xlink" x="0px" y="0px"
	 viewBox="0 0 144.44 146.1" style="enable-background:new 0 0 144.44 146.1;" xml:space="preserve">
<style type="text/css">
	.st0{fill:none;}
	.st1{fill:#00C853;}
	.st2{fill:#FFBE36;}
	.st3{fill:#FFFFFF;}
</style>
<g>
	<g>
		<path class="st1" d="M90.7,81.73c20.09,0,36.43,16.34,36.43,36.43c0,5.86-4.77,10.63-10.63,10.63h-69.9
			c-5.86,0-10.64-4.77-10.64-10.64c0-20.09,16.34-36.43,36.43-36.43H90.7L90.7,81.73z M90.7,64.41H72.39
			c-29.68,0-53.74,24.06-53.74,53.74v0c0,15.44,12.51,27.95,27.95,27.95h69.9c15.44,0,27.95-12.51,27.95-27.95v0
			C144.44,88.47,120.38,64.41,90.7,64.41L90.7,64.41z"/>
		<g>
			<path class="st1" d="M81.28,0C63.93,0,49.86,14.07,49.86,31.42v0.08c-0.62,0.1-1.24,0.26-1.84,0.48L6.63,47.15
				C1.39,49.07-1.3,54.87,0.62,60.1c1.92,5.24,7.72,7.93,12.96,6.01l41.4-15.16c0.44-0.16,0.86-0.35,1.26-0.57
				c5.74,7.57,14.82,12.45,25.05,12.45c17.35,0,31.42-14.07,31.42-31.42C112.7,14.07,98.64,0,81.28,0z M81.28,45.53
				c-7.78,0-14.11-6.33-14.11-14.11c0-7.78,6.33-14.11,14.11-14.11s14.11,6.33,14.11,14.11C95.39,39.2,89.06,45.53,81.28,45.53z"/>
		</g>
		<g>
			<path class="st1" d="M87.44,24.38c-1.28-1.23-2.65-1.77-3.52-2c-0.51-0.13-0.85-0.6-0.82-1.13l0.01-0.13
				c0.04-0.68,0.69-1.16,1.35-0.99c1.17,0.3,2.96,1.01,4.61,2.6c0.47,0.46,0.45,1.22-0.06,1.64l-0.1,0.08
				C88.47,24.82,87.84,24.78,87.44,24.38z"/>
		</g>
		<g>
			<path class="st1" d="M114.88,107.34c-4.95-11.66-14.96-15.39-18.48-16.36c-0.71-0.2-1.15-0.9-1.03-1.63l0-0.01
				c0.14-0.84,0.98-1.38,1.8-1.16c4.05,1.1,14.92,5.16,20.36,18.02c0.32,0.76-0.05,1.64-0.82,1.92h0
				C115.99,108.4,115.18,108.05,114.88,107.34z"/>
		</g>
		<g>
			<path class="st1" d="M117.19,113.8c-0.15-0.85-0.35-1.69-0.53-2.35c-0.2-0.74,0.22-1.51,0.95-1.75l0,0c0.79-0.26,1.63,0.2,1.84,1
				c0.2,0.73,0.42,1.67,0.59,2.63c0.15,0.83-0.46,1.6-1.3,1.67h0C117.99,115.06,117.32,114.54,117.19,113.8z"/>
		</g>
		<g>
			<path class="st1" d="M91.79,28.24L91.79,28.24c-0.3,0.06-0.58-0.13-0.66-0.42c-0.23-0.79-0.54-1.18-0.76-1.36
				c-0.16-0.13-0.22-0.34-0.18-0.54l0,0c0.09-0.43,0.61-0.61,0.95-0.32c0.38,0.33,0.81,0.9,1.1,1.91
				C92.33,27.84,92.12,28.18,91.79,28.24z"/>
		</g>
	</g>
</g>
</svg>
