<svg id="Layer_1" data-name="Layer 1" xmlns="http://www.w3.org/2000/svg" viewBox="0 0 250 250"><defs><style>.cls-1{fill:#00c853;}</style></defs><title>icons</title><path class="cls-1" d="M177.41,197.16h-20V165.35a.6.6,0,0,0-.6-.6H93.19a.61.61,0,0,0-.61.6v31.81h-20V165.35a20.63,20.63,0,0,1,20.61-20.6h63.62a20.62,20.62,0,0,1,20.6,20.6Z"/><path class="cls-1" d="M193.32,87.52h-20V33.9H76.68V87.52h-20V31.63A17.75,17.75,0,0,1,74.41,13.9H175.59a17.76,17.76,0,0,1,17.73,17.73Z"/><rect class="cls-1" x="82.58" y="118.24" width="15.91" height="20"/><rect class="cls-1" x="114.39" y="118.24" width="10.6" height="20"/><path class="cls-1" d="M211.48,91.73h-173a19,19,0,0,0-19,19v77.54a19,19,0,0,0,18.94,18.94h70.35v-20H39.57V111.73H210.43v75.43H143.34v20h68.13a19,19,0,0,0,19-18.95V110.68A19,19,0,0,0,211.48,91.73Z"/><path class="cls-1" d="M203.92,197.16h-20V101.73h20Zm-137.84,0h-20V101.73h20Z"/><rect class="cls-1" x="114.47" y="186.93" width="23.87" height="27.3"/><polygon class="cls-1" points="143.34 214.22 109.46 214.22 126.4 240.1 143.34 214.22"/><path class="cls-1" d="M99.56,51.33H93.91V61.79h5.76c3.39,0,5.77-2.14,5.77-5.25S103.18,51.33,99.56,51.33Zm.11,9H95.36V52.78h4.2c2.74,0,4.43,1.31,4.43,3.76v.06C104,58.72,102.41,60.36,99.67,60.36Zm-.11-9H93.91V61.79h5.76c3.39,0,5.77-2.14,5.77-5.25S103.18,51.33,99.56,51.33Zm.11,9H95.36V52.78h4.2c2.74,0,4.43,1.31,4.43,3.76v.06C104,58.72,102.41,60.36,99.67,60.36ZM100,47.85H92.62a2.71,2.71,0,0,0-2.72,2.73V70.13a2.73,2.73,0,0,0,5.46,0V65.2h4.13c5.57,0,10-3,10-8.7v-.07C109.52,51.37,105.94,47.85,100,47.85Zm-.54,15.92H93.91v6.36a1.28,1.28,0,1,1-2.56,0V50.58a1.27,1.27,0,0,1,1.27-1.28H100c5,0,8,2.72,8,7.2C108.07,61.86,103.65,63.77,99.49,63.77Zm.07-12.44H93.91V61.79h5.76c3.39,0,5.77-2.14,5.77-5.25S103.18,51.33,99.56,51.33ZM104,56.6c0,2.12-1.58,3.76-4.32,3.76H95.36V52.78h4.2c2.74,0,4.43,1.31,4.43,3.76Z"/><path class="cls-1" d="M99.56,51.33H93.91V61.79h5.76c3.39,0,5.77-2.14,5.77-5.25S103.18,51.33,99.56,51.33Zm-2.77,2.9h2.77c3,0,3,1.74,3,2.37,0,1.43-1.1,2.31-2.87,2.31H96.79Zm2.77-2.9H93.91V61.79h5.76c3.39,0,5.77-2.14,5.77-5.25S103.18,51.33,99.56,51.33Zm-2.77,2.9h2.77c3,0,3,1.74,3,2.37,0,1.43-1.1,2.31-2.87,2.31H96.79Zm2.77-2.9H93.91V61.79h5.76c3.39,0,5.77-2.14,5.77-5.25S103.18,51.33,99.56,51.33Zm-2.77,2.9h2.77c3,0,3,1.74,3,2.37,0,1.43-1.1,2.31-2.87,2.31H96.79Zm2.77-2.9H93.91V61.79h5.76c3.39,0,5.77-2.14,5.77-5.25S103.18,51.33,99.56,51.33Zm-2.77,2.9h2.77c3,0,3,1.74,3,2.37,0,1.43-1.1,2.31-2.87,2.31H96.79Zm2.77-2.9H93.91V61.79h5.76c3.39,0,5.77-2.14,5.77-5.25S103.18,51.33,99.56,51.33Zm-2.77,2.9h2.77c3,0,3,1.74,3,2.37,0,1.43-1.1,2.31-2.87,2.31H96.79Zm2.77-2.9H93.91V61.79h5.76c3.39,0,5.77-2.14,5.77-5.25S103.18,51.33,99.56,51.33Zm-2.77,2.9h2.77c3,0,3,1.74,3,2.37,0,1.43-1.1,2.31-2.87,2.31H96.79ZM100,46.42H92.62a4.13,4.13,0,0,0-4.17,4.16V70.13a4.17,4.17,0,0,0,8.34,0V66.65h2.7c6.86,0,11.48-4.09,11.48-10.22S106.57,46.42,100,46.42Zm-.54,17.35H93.91v6.36a1.28,1.28,0,1,1-2.56,0V50.58a1.27,1.27,0,0,1,1.27-1.28H100c5,0,8,2.72,8,7.2C108.07,61.86,103.65,63.77,99.49,63.77Zm.07-12.44H93.91V61.79h5.76c3.39,0,5.77-2.14,5.77-5.25S103.18,51.33,99.56,51.33Zm-2.77,2.9h2.77c3,0,3,1.74,3,2.37,0,1.43-1.1,2.31-2.87,2.31H96.79Zm2.77-2.9H93.91V61.79h5.76c3.39,0,5.77-2.14,5.77-5.25S103.18,51.33,99.56,51.33Zm-2.77,2.9h2.77c3,0,3,1.74,3,2.37,0,1.43-1.1,2.31-2.87,2.31H96.79Zm2.77-2.9H93.91V61.79h5.76c3.39,0,5.77-2.14,5.77-5.25S103.18,51.33,99.56,51.33Zm-2.77,2.9h2.77c3,0,3,1.74,3,2.37,0,1.43-1.1,2.31-2.87,2.31H96.79Zm2.77-2.9H93.91V61.79h5.76c3.39,0,5.77-2.14,5.77-5.25S103.18,51.33,99.56,51.33Zm-2.77,2.9h2.77c3,0,3,1.74,3,2.37,0,1.43-1.1,2.31-2.87,2.31H96.79Zm2.77-2.9H93.91V61.79h5.76c3.39,0,5.77-2.14,5.77-5.25S103.18,51.33,99.56,51.33Zm-2.77,2.9h2.77c3,0,3,1.74,3,2.37,0,1.43-1.1,2.31-2.87,2.31H96.79Z"/><path class="cls-1" d="M100,49.3H92.62a1.27,1.27,0,0,0-1.27,1.28V70.13a1.28,1.28,0,1,0,2.56,0V63.77h5.58c4.16,0,8.58-1.91,8.58-7.27C108.07,52,105,49.3,100,49.3Zm-.36,12.49H93.91V51.33h5.65c3.62,0,5.88,2,5.88,5.21S103.06,61.79,99.67,61.79Z"/><path class="cls-1" d="M123.94,51.33h-5.67V69.16h5.67a8.5,8.5,0,0,0,8.9-8.9A8.53,8.53,0,0,0,123.94,51.33Zm0,16.39h-4.22V52.78h4.22a7.12,7.12,0,0,1,7.46,7.48v.07A7.06,7.06,0,0,1,123.94,67.72Zm0-16.39h-5.67V69.16h5.67a8.5,8.5,0,0,0,8.9-8.9A8.53,8.53,0,0,0,123.94,51.33Zm0,16.39h-4.22V52.78h4.22a7.12,7.12,0,0,1,7.46,7.48v.07A7.06,7.06,0,0,1,123.94,67.72Zm0-19.87H117a2.71,2.71,0,0,0-2.74,2.73V69.92A2.7,2.7,0,0,0,117,72.64h6.94c7.78,0,13.16-5.41,13.16-12.38v-.07C137.1,53.21,131.72,47.85,123.94,47.85Zm0,23.35H117a1.27,1.27,0,0,1-1.3-1.28V50.58A1.28,1.28,0,0,1,117,49.3h6.94c6.79,0,11.71,4.58,11.71,11S130.73,71.2,123.94,71.2Zm0-19.87h-5.67V69.16h5.67a8.5,8.5,0,0,0,8.9-8.9A8.53,8.53,0,0,0,123.94,51.33Zm7.46,9a7.06,7.06,0,0,1-7.46,7.39h-4.22V52.78h4.22a7.12,7.12,0,0,1,7.46,7.48Zm-7.46-9h-5.67V69.16h5.67a8.5,8.5,0,0,0,8.9-8.9A8.53,8.53,0,0,0,123.94,51.33Zm0,16.39h-4.22V52.78h4.22a7.12,7.12,0,0,1,7.46,7.48v.07A7.06,7.06,0,0,1,123.94,67.72Zm0-16.39h-5.67V69.16h5.67a8.5,8.5,0,0,0,8.9-8.9A8.53,8.53,0,0,0,123.94,51.33Zm0,16.39h-4.22V52.78h4.22a7.12,7.12,0,0,1,7.46,7.48v.07A7.06,7.06,0,0,1,123.94,67.72Z"/><path class="cls-1" d="M123.94,51.33h-5.67V69.16h5.67a8.5,8.5,0,0,0,8.9-8.9A8.53,8.53,0,0,0,123.94,51.33Zm0,15h-2.77V54.23h2.77a5.71,5.71,0,0,1,6,6.1A5.61,5.61,0,0,1,123.94,66.29Zm0-15h-5.67V69.16h5.67a8.5,8.5,0,0,0,8.9-8.9A8.53,8.53,0,0,0,123.94,51.33Zm0,15h-2.77V54.23h2.77a5.71,5.71,0,0,1,6,6.1A5.61,5.61,0,0,1,123.94,66.29Zm0-15h-5.67V69.16h5.67a8.5,8.5,0,0,0,8.9-8.9A8.53,8.53,0,0,0,123.94,51.33Zm0,15h-2.77V54.23h2.77a5.71,5.71,0,0,1,6,6.1A5.61,5.61,0,0,1,123.94,66.29Zm0-15h-5.67V69.16h5.67a8.5,8.5,0,0,0,8.9-8.9A8.53,8.53,0,0,0,123.94,51.33Zm0,15h-2.77V54.23h2.77a5.71,5.71,0,0,1,6,6.1A5.61,5.61,0,0,1,123.94,66.29Zm0-15h-5.67V69.16h5.67a8.5,8.5,0,0,0,8.9-8.9A8.53,8.53,0,0,0,123.94,51.33Zm0,15h-2.77V54.23h2.77a5.71,5.71,0,0,1,6,6.1A5.61,5.61,0,0,1,123.94,66.29Zm0-15h-5.67V69.16h5.67a8.5,8.5,0,0,0,8.9-8.9A8.53,8.53,0,0,0,123.94,51.33Zm0,15h-2.77V54.23h2.77a5.71,5.71,0,0,1,6,6.1A5.61,5.61,0,0,1,123.94,66.29Zm0-19.87H117a4.12,4.12,0,0,0-4.17,4.16V69.92A4.12,4.12,0,0,0,117,74.09h6.94c8.32,0,14.61-6,14.61-13.9S132.4,46.42,123.94,46.42Zm0,24.78H117a1.27,1.27,0,0,1-1.3-1.28V50.58A1.28,1.28,0,0,1,117,49.3h6.94c6.79,0,11.71,4.58,11.71,11S130.73,71.2,123.94,71.2Zm0-19.87h-5.67V69.16h5.67a8.5,8.5,0,0,0,8.9-8.9A8.53,8.53,0,0,0,123.94,51.33Zm0,15h-2.77V54.23h2.77a5.71,5.71,0,0,1,6,6.1A5.61,5.61,0,0,1,123.94,66.29Zm0-15h-5.67V69.16h5.67a8.5,8.5,0,0,0,8.9-8.9A8.53,8.53,0,0,0,123.94,51.33Zm0,15h-2.77V54.23h2.77a5.71,5.71,0,0,1,6,6.1A5.61,5.61,0,0,1,123.94,66.29Zm0-15h-5.67V69.16h5.67a8.5,8.5,0,0,0,8.9-8.9A8.53,8.53,0,0,0,123.94,51.33Zm0,15h-2.77V54.23h2.77a5.71,5.71,0,0,1,6,6.1A5.61,5.61,0,0,1,123.94,66.29Zm0-15h-5.67V69.16h5.67a8.5,8.5,0,0,0,8.9-8.9A8.53,8.53,0,0,0,123.94,51.33Zm0,15h-2.77V54.23h2.77a5.71,5.71,0,0,1,6,6.1A5.61,5.61,0,0,1,123.94,66.29Zm0-15h-5.67V69.16h5.67a8.5,8.5,0,0,0,8.9-8.9A8.53,8.53,0,0,0,123.94,51.33Zm0,15h-2.77V54.23h2.77a5.71,5.71,0,0,1,6,6.1A5.61,5.61,0,0,1,123.94,66.29Z"/><path class="cls-1" d="M123.94,49.3H117a1.28,1.28,0,0,0-1.3,1.28V69.92A1.27,1.27,0,0,0,117,71.2h6.94c6.79,0,11.71-4.6,11.71-10.94S130.73,49.3,123.94,49.3Zm0,19.86h-5.67V51.33h5.67a8.53,8.53,0,0,1,8.9,8.93A8.5,8.5,0,0,1,123.94,69.16Z"/><path class="cls-1" d="M159.27,52.81a2.48,2.48,0,0,0,0-5H145.39a2.71,2.71,0,0,0-2.73,2.73V70.13a2.73,2.73,0,0,0,5.46,0V63.05h9.55a2.48,2.48,0,1,0,0-5h-9.55V52.81Zm-1.6,6.72a1,1,0,1,1,0,2.07h-11v8.53a1.28,1.28,0,0,1-1.29,1.29,1.27,1.27,0,0,1-1.28-1.29V50.58a1.26,1.26,0,0,1,1.28-1.28h13.88a1,1,0,0,1,0,2.07H146.68v8.16Z"/><path class="cls-1" d="M159.27,54.26a3.92,3.92,0,1,0,0-7.84H145.39a4.13,4.13,0,0,0-4.17,4.16V70.13a4.17,4.17,0,1,0,8.33,0V64.49h8.12a3.92,3.92,0,1,0,0-7.83h-8.12v-2.4Zm-.55,6.31a1,1,0,0,1-1.05,1h-11v8.53a1.28,1.28,0,0,1-1.29,1.29,1.27,1.27,0,0,1-1.28-1.29V50.58a1.26,1.26,0,0,1,1.28-1.28h13.88a1,1,0,0,1,0,2.07H146.68v8.16h11A1,1,0,0,1,158.72,60.57Z"/><path class="cls-1" d="M160.3,50.33a1,1,0,0,1-1,1H146.68v8.16h11a1,1,0,1,1,0,2.07h-11v8.53a1.28,1.28,0,0,1-1.29,1.29,1.27,1.27,0,0,1-1.28-1.29V50.58a1.26,1.26,0,0,1,1.28-1.28h13.88A1,1,0,0,1,160.3,50.33Z"/></svg>