<svg id="Layer_1" data-name="Layer 1" xmlns="http://www.w3.org/2000/svg" xmlns:xlink="http://www.w3.org/1999/xlink" viewBox="0 0 674 727"><defs><style>.cls-1,.cls-13,.cls-14,.cls-8{fill:none;}.cls-2{fill:#ededed;}.cls-3{clip-path:url(#clip-path);}.cls-4{fill:#e89b34;}.cls-5{fill:#fffff2;opacity:0.35;}.cls-6{fill:#e1b289;opacity:0.46;}.cls-7{fill:#383f50;}.cls-14,.cls-8{stroke:#383f50;}.cls-8{stroke-miterlimit:10;}.cls-9{clip-path:url(#clip-path-2);}.cls-10{fill:#fff;}.cls-11{fill:#f0ab39;}.cls-12{fill:#5262a7;}.cls-13{stroke:#375098;stroke-linecap:round;stroke-width:1.08px;}.cls-13,.cls-14{stroke-linejoin:round;}.cls-14{stroke-width:35px;}.cls-15{fill:#cecece;}</style><clipPath id="clip-path"><rect class="cls-1" x="142" y="210" width="385" height="196"/></clipPath><clipPath id="clip-path-2"><path class="cls-1" d="M156,528s129,2,169,24c0,0,93-26,192-24,91,1.84,149-233,149-233L559,156,353,43.1,88,89.1,43,464Z"/></clipPath></defs><title>LEZYSEM5</title><polygon class="cls-2" points="51.85 502.77 99.91 502.77 99.91 526.87 24.34 526.87 24.34 427.62 51.85 427.62 51.85 502.77"/><path class="cls-2" d="M575.46,412.36h-41V531.65C534.5,628.34,455.84,707,359.15,707H305.41c-96.69,0-175.35-78.66-175.35-175.35v-4.78H103.17L133,442l-2.94-14.38V412.36H88.44l15.15-47.77L88.44,316.82h41.62V200.55c0-96.69,78.66-175.35,175.35-175.35h53.74c96.69,0,175.35,78.66,175.35,175.35V316.82h41l-15.14,47.77Z"/><polygon class="cls-2" points="644.21 427.61 644.21 526.86 616.84 526.86 616.84 469.86 616.35 470.61 591.46 508.71 590.9 508.71 566.8 471.88 565.66 470.15 565.66 526.86 538.72 526.86 538.72 427.61 567.79 427.61 591.46 466.03 615.14 427.61 644.21 427.61"/><g class="cls-3"><path class="cls-4" d="M-35.14,327.58s42.2-9.2,75.57-33.08,66.29,10.58,94.58,7.59,115.43-68.32,132.86-69.94,104.3,61.73,121,62.89,55.05-15.85,68.41-15.19,37.53,25.06,51.31,22.74,38.76-24.56,53.28-22.74,71.4,50,71.4,50v46H-35.14Z"/><path class="cls-5" d="M566.24,286c3.2,1.74,28.38,18.73,28.38,18.73l38.66,29.87v-4.79s-56.87-48.17-71.4-50-39.51,20.42-53.28,22.74-37.94-22.08-51.31-22.74S405.58,296.2,388.88,295s-103.57-64.5-121-62.89S163.29,299.1,135,302.09s-61.2-31.46-94.58-7.59-75.57,33.08-75.57,33.08v3.29c13.81-4.77,56.42-19.7,68.42-26.11,14.38-7.69,21.79-7.69,20.92-3.77s4.14,2.15,9.47-2,14.62,1.08,18.26,0-4.51-7.17,0-6.3,44.2,19.09,68.59,19.79,29.62,3.75,24.39.69-27.18-2-33.54-6.53,28.37-15.4,50.71-28,42.68-23.38,42.38-21.64-9.73,10.17-6.82,9.59,24.26-16.13,30.21-18,3.49,8.85,1.89,10.75,8-5.09,9.59-11,11-3,18,2.11-.44-3.09,1-3.87,34.57,17.53,45.46,23.05,40.39,26,45,27.45S371.59,303,356.48,299s10.46,9.39,29.06,8.52,0,8.42-11.33,9-9.88,5.23,7,7,53.16-2,48.22-4.94S385,316.25,403,312.18s21.21-6.1,11-5.52-13.95-4.07-2-5.52-4.35,0-10.16-.58,45.61-15.32,50.55-18,18.88,4.8,15.68,6.18-3.19,3.7,4.36,7.19-7-6.39,5.23-1.45,32.83,15.39,49.39,16.85,27.88,2.9,23,.87-23.24.56-33.7-7.42c0,0,26-11,32-17.57s.57,6.39,1.74,6.39,5.23-8.42,7-7.55,13.66,13.36,11.91,9.3S563,284.29,566.24,286Z"/><path class="cls-2" d="M4.54,338.86S109.4,310.24,130.33,312s53.22,16.85,77.46,17.43,118.65-34.72,135.35-31.88S379,317.85,398.2,318.11s44.46-19.3,62-12.43,112.28,48.59,124.48,46.91,53.46-19.11,69.73-15.63,68.56,32,68.56,32H368l-377.38-11Z"/><path class="cls-6" d="M654.44,337c-16.27-3.48-57.53,14-69.73,15.63s-106.91-40-124.48-46.91-42.86,12.69-62,12.43-38.35-17.75-55.06-20.58S232,330,207.79,329.41,151.25,313.72,130.33,312,4.54,338.86,4.54,338.86l-1.37,1.87c13.83-3,58.5-12.7,76-18.29,20.86-6.65,45.9-9.59,54.47-6.68S182.89,333,225.9,336s61.32,3.59,58.12,2.43-41.87.29-66.83-7.27c0,0,77.29-18,89.78-22.37s19.18-9.32,17.14-5.67-42.41,17.59-36.6,17.29,44.16-16.56,41.25-12.2-21.5,20.63-15.39,18.89S332,308.49,334,311.69s-3.77,19.17,0,18.59,5.9-19.75,7.16-19.46,19,11.33,18.41,8.42-10.75-11.33-8.72-11,20.92,14.85,21.79,13.53-13.36-12.66-9.3-11.78,26.15,12.49,43.58,14.81,36.32,5.81,33.41,4.36-32-2.42-31.95-7.39S440,307,439.45,309.66s-8.71,7-3.78,5.81,10.17-7.56,17.73-7,86.86,34.87,95.58,37.19,20.92,5.81,18.88,6.68-29.92,4.07-23,5.23,66.53,3.49,59.27,1.16-20.92-3.19-13.37-5.52,43.29-11.62,50.26-11.33c5.93.25,58.6,20.83,74.32,27H723S670.71,340.45,654.44,337Z"/></g><polygon class="cls-7" points="244.05 375.27 206.47 375.27 211.93 293.76 238.6 293.76 244.05 375.27"/><polygon class="cls-7" points="225.26 274.87 206.26 295.98 244.27 295.98 225.26 274.87"/><path class="cls-7" d="M237.64,284.57l-5-5a4.28,4.28,0,0,1-.06-6L262.78,242a4.27,4.27,0,0,1,6.1-.07l6.34,6.34a4.27,4.27,0,0,1-.07,6.1l-31.53,30.24A4.28,4.28,0,0,1,237.64,284.57Z"/><path class="cls-7" d="M212.89,299.24l5,5a4.28,4.28,0,0,1,.06,6l-30.24,31.53a4.27,4.27,0,0,1-6.1.07l-6.34-6.34a4.28,4.28,0,0,1,.06-6.1l31.54-30.24A4.28,4.28,0,0,1,212.89,299.24Z"/><line class="cls-8" x1="257.02" y1="260.15" x2="200.23" y2="316.94"/><path class="cls-7" d="M232.6,304.28l5-5a4.28,4.28,0,0,1,6-.06l31.53,30.24a4.27,4.27,0,0,1,.07,6.1l-6.34,6.34a4.27,4.27,0,0,1-6.1-.07l-30.24-31.53A4.28,4.28,0,0,1,232.6,304.28Z"/><path class="cls-7" d="M217.93,279.53l-5,5a4.28,4.28,0,0,1-6,.06l-31.54-30.24a4.28,4.28,0,0,1-.06-6.1l6.34-6.34a4.27,4.27,0,0,1,6.1.07L218,273.55A4.28,4.28,0,0,1,217.93,279.53Z"/><line class="cls-8" x1="257.02" y1="323.66" x2="200.23" y2="266.87"/><path class="cls-7" d="M125.34,364.45s10.54-7.44,19.2-8.18,13,3.75,15.77,2.59,18.25-10.13,22-10.13,8.66,7.08,10.21,7.4,14.19-1.58,15.45.46a74.14,74.14,0,0,0,4.5,5.94l25.75,1.92s28.69-7.42,33.87-7.86,15.7-.32,15.7-.32,4.64-11.56,12.37-11.25,11.75,9.71,11.75,9.71,9.59-3.16,13.3.83l3.71,4s8.05,3,14.85,3,28.76,1.9,28.76,1.9L270.12,435.89,145.78,413.1Z"/><polygon class="cls-7" points="402.04 339.29 402.04 330.45 389.84 314.14 371.47 308.03 353.1 314.14 340.9 330.45 340.9 339.29 402.04 339.29"/><polygon class="cls-7" points="397.28 332.12 386.97 318.35 371.47 313.19 355.96 318.35 345.66 332.12 345.66 369.11 397.28 369.11 397.28 332.12"/><rect class="cls-7" x="345.66" y="355.39" width="51.62" height="13.72"/><path class="cls-7" d="M377.78,328.68a6.31,6.31,0,1,1-6.31-6.31A6.31,6.31,0,0,1,377.78,328.68Z"/><path class="cls-7" d="M371.47,330.68a6.29,6.29,0,0,1-5.91-4.16,6.47,6.47,0,0,0-.4,2.16,6.31,6.31,0,0,0,12.62,0,6.23,6.23,0,0,0-.41-2.16A6.29,6.29,0,0,1,371.47,330.68Z"/><rect class="cls-7" x="356.79" y="346.17" width="29.35" height="23.06"/><line class="cls-1" x1="357.2" y1="346.02" x2="385.73" y2="368.39"/><line class="cls-1" x1="385.73" y1="346.02" x2="357.2" y2="368.39"/><path class="cls-7" d="M390.59,359.21s40.36-10.55,50.11-7.77l9.74,2.78a16.91,16.91,0,0,0,18.32.34c10-5.9,15.55-10.59,20.65-6.39s11.6,11.85,14.38,11,8.85-7.7,11.6-1.82,10.11,55.54,10.11,55.54L418,426.38s-44.31-51.55-40.18-55.27S390.59,359.21,390.59,359.21Z"/><line class="cls-8" x1="437.87" y1="319.71" x2="433.3" y2="362.91"/><path class="cls-7" d="M432.54,346.92c1.5,1.86,1.67,7.38,1.67,7.38s-5.36-1.33-6.86-3.19-2.29-8.13-2.29-8.13S431,345.05,432.54,346.92Z"/><path class="cls-7" d="M441.59,352.62c-1.86,1.51-7.38,1.68-7.38,1.68s1.33-5.37,3.19-6.87,8.13-2.28,8.13-2.28S443.46,351.12,441.59,352.62Z"/><path class="cls-7" d="M427.65,348.22a14,14,0,0,1-1.74-4.92l-.85-.32s.78,6.27,2.29,8.13,6.86,3.19,6.86,3.19a29.43,29.43,0,0,0-.28-3.06C432.5,350.84,428.85,349.7,427.65,348.22Z"/><path class="cls-7" d="M441.9,349.73c-1.48,1.2-5.29,1.55-6.77,1.64a29.58,29.58,0,0,0-.92,2.93s5.52-.17,7.38-1.68,3.94-7.47,3.94-7.47-.35,0-.9.13A13.82,13.82,0,0,1,441.9,349.73Z"/><path class="cls-7" d="M433.6,339.85c1.31,1.63,1.46,6.44,1.46,6.44s-4.67-1.16-6-2.78-2-7.08-2-7.08S432.29,338.23,433.6,339.85Z"/><path class="cls-7" d="M441.49,344.83c-1.62,1.31-6.43,1.46-6.43,1.46s1.15-4.68,2.77-6,7.09-2,7.09-2S443.11,343.52,441.49,344.83Z"/><path class="cls-7" d="M429.37,340.74a11.33,11.33,0,0,1-1.45-4l-.83-.3s.68,5.46,2,7.08,6,2.78,6,2.78a25.17,25.17,0,0,0-.29-2.94C433.48,343,430.4,342,429.37,340.74Z"/><path class="cls-7" d="M441.79,342.05c-1.27,1-4.49,1.34-5.83,1.43a26.94,26.94,0,0,0-.9,2.81s4.81-.15,6.43-1.46,3.43-6.52,3.43-6.52l-.88.13A11.22,11.22,0,0,1,441.79,342.05Z"/><path class="cls-7" d="M434.66,333.92c1,1.3,1.17,5.13,1.17,5.13s-3.73-.92-4.77-2.21-1.59-5.65-1.59-5.65S433.62,332.63,434.66,333.92Z"/><path class="cls-7" d="M441,337.89c-1.29,1-5.12,1.16-5.12,1.16s.91-3.72,2.21-4.77,5.64-1.58,5.64-1.58S442.25,336.84,441,337.89Z"/><path class="cls-7" d="M431.27,334.78a9.24,9.24,0,0,1-1.19-3.36l-.61-.23s.54,4.36,1.59,5.65,4.77,2.21,4.77,2.21,0-1-.21-2.17C434.62,336.6,432.1,335.81,431.27,334.78Z"/><path class="cls-7" d="M441.17,335.83c-1,.83-3.65,1.08-4.69,1.14a21,21,0,0,0-.65,2.08s3.83-.12,5.12-1.16,2.73-5.19,2.73-5.19l-.64.09A9.23,9.23,0,0,1,441.17,335.83Z"/><path class="cls-7" d="M435.52,329c.84,1.05.94,4.13.94,4.13s-3-.74-3.85-1.78-1.27-4.55-1.27-4.55S434.68,327.92,435.52,329Z"/><path class="cls-7" d="M440.59,332.16c-1,.84-4.13.93-4.13.93s.74-3,1.78-3.84,4.54-1.27,4.54-1.27S441.63,331.31,440.59,332.16Z"/><path class="cls-7" d="M432.77,329.84a8,8,0,0,1-1-2.92l-.43-.16s.43,3.51,1.27,4.55,3.85,1.78,3.85,1.78,0-.7-.14-1.55C435.54,331.32,433.45,330.68,432.77,329.84Z"/><path class="cls-7" d="M440.74,330.68c-.84.68-3,.87-3.82.92-.29.81-.46,1.49-.46,1.49s3.08-.09,4.13-.93,2.19-4.18,2.19-4.18l-.45.06A8.05,8.05,0,0,1,440.74,330.68Z"/><path class="cls-7" d="M436.19,324.84c.7.87.78,3.44.78,3.44s-2.5-.62-3.2-1.49S432.7,323,432.7,323,435.48,324,436.19,324.84Z"/><path class="cls-7" d="M440.4,327.5c-.86.7-3.43.78-3.43.78s.61-2.5,1.48-3.2,3.79-1.06,3.79-1.06S441.27,326.8,440.4,327.5Z"/><path class="cls-7" d="M434,324.82a4.61,4.61,0,0,1-.65-1.58l-.63-.23s.37,2.92,1.07,3.78,3.2,1.49,3.2,1.49a13.82,13.82,0,0,0-.26-2.11A6.55,6.55,0,0,1,434,324.82Z"/><path class="cls-7" d="M440.61,325.52a6.62,6.62,0,0,1-2.95.75,12.9,12.9,0,0,0-.69,2s2.57-.08,3.43-.78,1.84-3.48,1.84-3.48l-.67.09A4.42,4.42,0,0,1,440.61,325.52Z"/><line class="cls-8" x1="501" y1="335.5" x2="497.57" y2="367.88"/><path class="cls-7" d="M497,355.9c1.12,1.39,1.25,5.53,1.25,5.53s-4-1-5.15-2.39-1.71-6.09-1.71-6.09S495.87,354.5,497,355.9Z"/><path class="cls-7" d="M503.79,360.17c-1.4,1.13-5.54,1.26-5.54,1.26s1-4,2.39-5.15,6.09-1.71,6.09-1.71S505.18,359.05,503.79,360.17Z"/><path class="cls-7" d="M493.33,356.87a10.27,10.27,0,0,1-1.3-3.69l-.64-.23s.59,4.7,1.71,6.09,5.15,2.39,5.15,2.39a22,22,0,0,0-.21-2.29C497,358.84,494.23,358,493.33,356.87Z"/><path class="cls-7" d="M504,358c-1.12.9-4,1.17-5.08,1.24-.43,1.16-.69,2.19-.69,2.19s4.14-.13,5.54-1.26,2.94-5.6,2.94-5.6l-.67.1A10.35,10.35,0,0,1,504,358Z"/><path class="cls-7" d="M497.79,350.6c1,1.22,1.1,4.83,1.1,4.83s-3.5-.87-4.49-2.08-1.49-5.31-1.49-5.31S496.81,349.39,497.79,350.6Z"/><path class="cls-7" d="M503.71,354.33c-1.22,1-4.82,1.1-4.82,1.1s.86-3.51,2.08-4.49,5.31-1.49,5.31-1.49S504.93,353.35,503.71,354.33Z"/><path class="cls-7" d="M494.62,351.26a8.44,8.44,0,0,1-1.09-3l-.62-.22s.51,4.09,1.49,5.31,4.49,2.08,4.49,2.08a21.29,21.29,0,0,0-.22-2.2C497.7,353,495.39,352.22,494.62,351.26Z"/><path class="cls-7" d="M503.93,352.25c-.95.77-3.37,1-4.37,1.07a19.6,19.6,0,0,0-.67,2.11s3.6-.12,4.82-1.1,2.57-4.88,2.57-4.88l-.66.09A8.37,8.37,0,0,1,503.93,352.25Z"/><path class="cls-7" d="M498.59,346.16c.78,1,.87,3.84.87,3.84s-2.79-.69-3.57-1.66-1.19-4.23-1.19-4.23S497.81,345.19,498.59,346.16Z"/><path class="cls-7" d="M503.31,349.13c-1,.78-3.85.87-3.85.87s.69-2.79,1.66-3.57,4.23-1.19,4.23-1.19S504.27,348.35,503.31,349.13Z"/><path class="cls-7" d="M496.05,346.8a7,7,0,0,1-.9-2.52l-.45-.17s.4,3.27,1.19,4.23,3.57,1.66,3.57,1.66a14.79,14.79,0,0,0-.15-1.62C498.56,348.16,496.67,347.57,496.05,346.8Z"/><path class="cls-7" d="M503.47,347.59c-.77.62-2.74.8-3.52.85a15.84,15.84,0,0,0-.49,1.56s2.88-.09,3.85-.87,2-3.89,2-3.89l-.48.07A7.09,7.09,0,0,1,503.47,347.59Z"/><path class="cls-7" d="M499.23,342.44c.63.78.7,3.1.7,3.1s-2.24-.56-2.87-1.34-1-3.41-1-3.41S498.6,341.66,499.23,342.44Z"/><path class="cls-7" d="M503,344.83c-.78.63-3.1.71-3.1.71s.56-2.25,1.34-2.88,3.41-1,3.41-1S503.81,344.2,503,344.83Z"/><path class="cls-7" d="M497.17,343.09a6,6,0,0,1-.75-2.18l-.32-.12s.32,2.63,1,3.41,2.87,1.34,2.87,1.34a10.86,10.86,0,0,0-.1-1.17A6.35,6.35,0,0,1,497.17,343.09Z"/><path class="cls-7" d="M503.15,343.73a6.53,6.53,0,0,1-2.87.69c-.22.6-.35,1.12-.35,1.12s2.32-.08,3.1-.71,1.65-3.13,1.65-3.13l-.34.05A6.21,6.21,0,0,1,503.15,343.73Z"/><path class="cls-7" d="M499.73,339.35a6.07,6.07,0,0,1,.59,2.58,6.13,6.13,0,0,1-2.4-1.12,8.43,8.43,0,0,1-.8-2.84A8.5,8.5,0,0,1,499.73,339.35Z"/><path class="cls-7" d="M502.89,341.34a6,6,0,0,1-2.57.59,6.07,6.07,0,0,1,1.11-2.4,8.43,8.43,0,0,1,2.84-.8A8.61,8.61,0,0,1,502.89,341.34Z"/><path class="cls-7" d="M498.08,339.33a3.46,3.46,0,0,1-.49-1.18l-.47-.18a8.43,8.43,0,0,0,.8,2.84,6.13,6.13,0,0,0,2.4,1.12,10.62,10.62,0,0,0-.19-1.58A4.89,4.89,0,0,1,498.08,339.33Z"/><path class="cls-7" d="M503.05,339.86a4.93,4.93,0,0,1-2.22.56,9.32,9.32,0,0,0-.51,1.51,6,6,0,0,0,2.57-.59,8.61,8.61,0,0,0,1.38-2.61l-.5.07A3.47,3.47,0,0,1,503.05,339.86Z"/><line class="cls-8" x1="453.43" y1="333.81" x2="450.01" y2="366.19"/><path class="cls-7" d="M449.43,354.21c1.13,1.39,1.26,5.53,1.26,5.53s-4-1-5.15-2.39-1.71-6.09-1.71-6.09S448.31,352.81,449.43,354.21Z"/><path class="cls-7" d="M456.22,358.48c-1.39,1.13-5.53,1.26-5.53,1.26s1-4,2.39-5.15,6.09-1.71,6.09-1.71S457.62,357.36,456.22,358.48Z"/><path class="cls-7" d="M445.77,355.18a10.34,10.34,0,0,1-1.3-3.69l-.64-.23s.58,4.7,1.71,6.09,5.15,2.39,5.15,2.39a22,22,0,0,0-.21-2.29C449.41,357.15,446.67,356.3,445.77,355.18Z"/><path class="cls-7" d="M456.45,356.31c-1.11.9-4,1.17-5.07,1.24-.43,1.16-.69,2.19-.69,2.19s4.14-.13,5.53-1.26,2.95-5.6,2.95-5.6l-.67.1A10.3,10.3,0,0,1,456.45,356.31Z"/><path class="cls-7" d="M450.23,348.91c1,1.22,1.1,4.82,1.1,4.82s-3.51-.86-4.49-2.08-1.49-5.31-1.49-5.31S449.25,347.7,450.23,348.91Z"/><path class="cls-7" d="M456.15,352.64c-1.22,1-4.82,1.09-4.82,1.09s.86-3.5,2.08-4.48,5.31-1.49,5.31-1.49S457.36,351.66,456.15,352.64Z"/><path class="cls-7" d="M447.06,349.57a8.32,8.32,0,0,1-1.09-3l-.62-.23s.51,4.1,1.49,5.31,4.49,2.08,4.49,2.08a21.56,21.56,0,0,0-.22-2.2C450.14,351.26,447.83,350.53,447.06,349.57Z"/><path class="cls-7" d="M456.37,350.56c-.95.77-3.37,1-4.37,1.07a19.85,19.85,0,0,0-.67,2.1s3.6-.11,4.82-1.09,2.57-4.88,2.57-4.88l-.66.09A8.37,8.37,0,0,1,456.37,350.56Z"/><path class="cls-7" d="M451,344.47c.78,1,.87,3.84.87,3.84s-2.79-.69-3.58-1.66-1.18-4.23-1.18-4.23S450.24,343.5,451,344.47Z"/><path class="cls-7" d="M455.74,347.44c-1,.78-3.84.87-3.84.87s.69-2.79,1.66-3.57,4.23-1.19,4.23-1.19S456.71,346.65,455.74,347.44Z"/><path class="cls-7" d="M448.49,345.11a7,7,0,0,1-.9-2.52l-.45-.17s.4,3.26,1.18,4.23,3.58,1.66,3.58,1.66a15.06,15.06,0,0,0-.15-1.63C451,346.47,449.11,345.88,448.49,345.11Z"/><path class="cls-7" d="M455.91,345.9c-.77.62-2.74.8-3.52.85a15,15,0,0,0-.49,1.56s2.88-.09,3.84-.87,2.05-3.89,2.05-3.89l-.48.07A7.09,7.09,0,0,1,455.91,345.9Z"/><path class="cls-7" d="M451.67,340.75c.63.78.7,3.09.7,3.09s-2.25-.55-2.88-1.33-.95-3.41-.95-3.41S451,340,451.67,340.75Z"/><path class="cls-7" d="M455.47,343.14c-.78.63-3.1.7-3.1.7s.56-2.24,1.34-2.88,3.41-.95,3.41-.95S456.25,342.51,455.47,343.14Z"/><path class="cls-7" d="M449.61,341.4a6.1,6.1,0,0,1-.75-2.18l-.32-.12s.32,2.63.95,3.41,2.88,1.33,2.88,1.33a10.78,10.78,0,0,0-.1-1.16A6.48,6.48,0,0,1,449.61,341.4Z"/><path class="cls-7" d="M455.59,342a6.44,6.44,0,0,1-2.87.7c-.22.6-.35,1.11-.35,1.11s2.32-.07,3.1-.7,1.65-3.13,1.65-3.13l-.34.05A6,6,0,0,1,455.59,342Z"/><path class="cls-7" d="M452.17,337.66a6,6,0,0,1,.58,2.57,6,6,0,0,1-2.39-1.11,8.43,8.43,0,0,1-.8-2.84A8.61,8.61,0,0,1,452.17,337.66Z"/><path class="cls-7" d="M455.33,339.65a6.18,6.18,0,0,1-2.58.58,6.1,6.1,0,0,1,1.12-2.39,8.43,8.43,0,0,1,2.84-.8A8.61,8.61,0,0,1,455.33,339.65Z"/><path class="cls-7" d="M450.51,337.64a3.68,3.68,0,0,1-.48-1.18l-.47-.18a8.43,8.43,0,0,0,.8,2.84,6,6,0,0,0,2.39,1.11,9.22,9.22,0,0,0-.19-1.57A5,5,0,0,1,450.51,337.64Z"/><path class="cls-7" d="M455.49,338.17a5,5,0,0,1-2.22.56,10,10,0,0,0-.52,1.5,6.18,6.18,0,0,0,2.58-.58,8.61,8.61,0,0,0,1.38-2.61l-.5.07A3.47,3.47,0,0,1,455.49,338.17Z"/><line class="cls-8" x1="312.49" y1="327.43" x2="309.06" y2="359.81"/><path class="cls-7" d="M308.49,347.82c1.13,1.4,1.25,5.53,1.25,5.53s-4-1-5.14-2.38-1.71-6.1-1.71-6.1S307.36,346.43,308.49,347.82Z"/><path class="cls-7" d="M315.28,352.1c-1.4,1.13-5.54,1.25-5.54,1.25s1-4,2.39-5.14,6.1-1.71,6.1-1.71S316.67,351,315.28,352.1Z"/><path class="cls-7" d="M304.83,348.8a10.14,10.14,0,0,1-1.31-3.69l-.63-.24s.58,4.7,1.71,6.1,5.14,2.38,5.14,2.38a21.74,21.74,0,0,0-.21-2.28C308.46,350.76,305.73,349.91,304.83,348.8Z"/><path class="cls-7" d="M315.51,349.93c-1.11.9-4,1.16-5.08,1.23-.43,1.16-.69,2.19-.69,2.19s4.14-.12,5.54-1.25,3-5.6,3-5.6l-.68.09A10.07,10.07,0,0,1,315.51,349.93Z"/><path class="cls-7" d="M309.29,342.53c1,1.21,1.09,4.82,1.09,4.82s-3.5-.86-4.49-2.08S304.4,340,304.4,340,308.3,341.31,309.29,342.53Z"/><path class="cls-7" d="M315.2,346.25c-1.21,1-4.82,1.1-4.82,1.1s.86-3.5,2.08-4.49,5.31-1.49,5.31-1.49S316.42,345.27,315.2,346.25Z"/><path class="cls-7" d="M306.11,343.19a8.33,8.33,0,0,1-1.08-3c-.38-.15-.63-.23-.63-.23s.51,4.09,1.49,5.31,4.49,2.08,4.49,2.08a18.45,18.45,0,0,0-.22-2.2C309.2,344.87,306.88,344.14,306.11,343.19Z"/><path class="cls-7" d="M315.42,344.17c-.95.77-3.36,1-4.37,1.07a19.6,19.6,0,0,0-.67,2.11s3.61-.11,4.82-1.1,2.57-4.88,2.57-4.88l-.66.1A8.2,8.2,0,0,1,315.42,344.17Z"/><path class="cls-7" d="M310.08,338.08c.78,1,.87,3.85.87,3.85s-2.79-.69-3.57-1.66-1.19-4.24-1.19-4.24S309.3,337.11,310.08,338.08Z"/><path class="cls-7" d="M314.8,341.05c-1,.79-3.85.88-3.85.88s.69-2.8,1.66-3.58,4.23-1.19,4.23-1.19S315.77,340.27,314.8,341.05Z"/><path class="cls-7" d="M307.54,338.73a7.08,7.08,0,0,1-.9-2.53l-.45-.17s.4,3.27,1.19,4.24,3.57,1.66,3.57,1.66a15.06,15.06,0,0,0-.15-1.63C310.05,340.09,308.16,339.5,307.54,338.73Z"/><path class="cls-7" d="M315,339.51c-.77.62-2.74.81-3.52.86-.3.82-.49,1.56-.49,1.56s2.88-.09,3.85-.88,2-3.89,2-3.89l-.47.07A7.15,7.15,0,0,1,315,339.51Z"/><path class="cls-7" d="M310.72,334.36c.63.78.71,3.1.71,3.1s-2.25-.56-2.88-1.34-1-3.41-1-3.41S310.09,333.58,310.72,334.36Z"/><path class="cls-7" d="M314.52,336.76c-.78.63-3.09.7-3.09.7s.55-2.25,1.33-2.88,3.41-1,3.41-1S315.3,336.13,314.52,336.76Z"/><path class="cls-7" d="M308.66,335a6.16,6.16,0,0,1-.75-2.19l-.32-.12s.33,2.63,1,3.41,2.88,1.34,2.88,1.34,0-.53-.11-1.17A6.45,6.45,0,0,1,308.66,335Z"/><path class="cls-7" d="M314.64,335.65a6.53,6.53,0,0,1-2.87.69,11.35,11.35,0,0,0-.34,1.12s2.31-.07,3.09-.7,1.65-3.14,1.65-3.14l-.34.05A6,6,0,0,1,314.64,335.65Z"/><path class="cls-7" d="M311.22,331.27a6.07,6.07,0,0,1,.59,2.58,6.13,6.13,0,0,1-2.4-1.11,8.43,8.43,0,0,1-.8-2.84A8.42,8.42,0,0,1,311.22,331.27Z"/><path class="cls-7" d="M314.39,333.26a6.07,6.07,0,0,1-2.58.59,6.13,6.13,0,0,1,1.11-2.4,8.67,8.67,0,0,1,2.84-.8A8.42,8.42,0,0,1,314.39,333.26Z"/><path class="cls-7" d="M309.57,331.26a3.61,3.61,0,0,1-.49-1.19l-.47-.17a8.43,8.43,0,0,0,.8,2.84,6.13,6.13,0,0,0,2.4,1.11,10.62,10.62,0,0,0-.19-1.58A5,5,0,0,1,309.57,331.26Z"/><path class="cls-7" d="M314.54,331.78a4.93,4.93,0,0,1-2.21.57,10,10,0,0,0-.52,1.5,6.07,6.07,0,0,0,2.58-.59,8.42,8.42,0,0,0,1.37-2.61l-.5.08A3.24,3.24,0,0,1,314.54,331.78Z"/><line class="cls-8" x1="150.88" y1="337.26" x2="156.56" y2="369.33"/><path class="cls-7" d="M152.69,358c1.47,1,2.74,5,2.74,5s-4.14.16-5.61-.87-3.33-5.38-3.33-5.38S151.22,356.94,152.69,358Z"/><path class="cls-7" d="M160.4,360.19c-1,1.47-5,2.75-5,2.75s-.16-4.14.86-5.61,5.39-3.34,5.39-3.34S161.42,358.72,160.4,360.19Z"/><path class="cls-7" d="M149.44,359.92a10.3,10.3,0,0,1-2.28-3.18l-.67-.05s1.86,4.35,3.33,5.38,5.61.87,5.61.87-.33-1-.84-2.14C153.48,360.8,150.61,360.74,149.44,359.92Z"/><path class="cls-7" d="M160,358.05c-.82,1.17-3.49,2.21-4.54,2.59-.09,1.23,0,2.3,0,2.3s3.94-1.28,5-2.75,1.28-6.2,1.28-6.2l-.62.28A10.29,10.29,0,0,1,160,358.05Z"/><path class="cls-7" d="M152,352.66c1.28.9,2.38,4.33,2.38,4.33s-3.6.14-4.88-.76-2.91-4.68-2.91-4.68S150.7,351.76,152,352.66Z"/><path class="cls-7" d="M158.7,354.6c-.89,1.28-4.33,2.39-4.33,2.39s-.14-3.61.76-4.89,4.69-2.9,4.69-2.9S159.6,353.32,158.7,354.6Z"/><path class="cls-7" d="M149.12,354.17a8.31,8.31,0,0,1-1.88-2.58l-.66,0s1.63,3.79,2.91,4.68,4.88.76,4.88.76a19.61,19.61,0,0,0-.81-2.05C152.55,354.94,150.13,354.88,149.12,354.17Z"/><path class="cls-7" d="M158.34,352.54c-.7,1-3,1.9-3.9,2.24a18.81,18.81,0,0,0-.07,2.21s3.44-1.11,4.33-2.39,1.12-5.4,1.12-5.4l-.61.27A8.33,8.33,0,0,1,158.34,352.54Z"/><path class="cls-7" d="M151.52,348.17c1,.71,1.9,3.45,1.9,3.45s-2.87.11-3.89-.6-2.32-3.74-2.32-3.74S150.5,347.45,151.52,348.17Z"/><path class="cls-7" d="M156.87,349.72c-.71,1-3.45,1.9-3.45,1.9s-.11-2.87.6-3.9,3.74-2.31,3.74-2.31S157.59,348.69,156.87,349.72Z"/><path class="cls-7" d="M149.26,349.49a7,7,0,0,1-1.57-2.18l-.48,0s1.29,3,2.32,3.74,3.89.6,3.89.6a14.79,14.79,0,0,0-.6-1.52C152,350.1,150.07,350.06,149.26,349.49Z"/><path class="cls-7" d="M156.6,348.19c-.57.81-2.41,1.53-3.14,1.8a15.31,15.31,0,0,0,0,1.63s2.74-.88,3.45-1.9.89-4.31.89-4.31l-.44.2A7,7,0,0,1,156.6,348.19Z"/><path class="cls-7" d="M151.1,344.42c.83.57,1.54,2.78,1.54,2.78s-2.32.09-3.14-.49-1.86-3-1.86-3S150.28,343.84,151.1,344.42Z"/><path class="cls-7" d="M155.42,345.66c-.58.83-2.78,1.54-2.78,1.54s-.09-2.32.48-3.14,3-1.86,3-1.86S156,344.84,155.42,345.66Z"/><path class="cls-7" d="M149.31,345.62a5.91,5.91,0,0,1-1.33-1.89l-.34,0s1,2.44,1.86,3,3.14.49,3.14.49-.17-.51-.42-1.09A6.6,6.6,0,0,1,149.31,345.62Z"/><path class="cls-7" d="M155.22,344.57a6.45,6.45,0,0,1-2.56,1.46c0,.64,0,1.17,0,1.17s2.2-.71,2.78-1.54.71-3.46.71-3.46l-.31.13A6.06,6.06,0,0,1,155.22,344.57Z"/><path class="cls-7" d="M150.73,341.31a6.14,6.14,0,0,1,1.27,2.31,6.07,6.07,0,0,1-2.61-.4,8.62,8.62,0,0,1-1.55-2.51A8.53,8.53,0,0,1,150.73,341.31Z"/><path class="cls-7" d="M154.32,342.34a6.08,6.08,0,0,1-2.32,1.28,6.1,6.1,0,0,1,.41-2.61,8.38,8.38,0,0,1,2.5-1.55A8.37,8.37,0,0,1,154.32,342.34Z"/><path class="cls-7" d="M149.13,341.75a3.31,3.31,0,0,1-.79-1l-.5,0a8.62,8.62,0,0,0,1.55,2.51,6.07,6.07,0,0,0,2.61.4,9.75,9.75,0,0,0-.62-1.46A4.9,4.9,0,0,1,149.13,341.75Z"/><path class="cls-7" d="M154.06,340.88a5,5,0,0,1-2,1.16,10.16,10.16,0,0,0-.08,1.58,6.08,6.08,0,0,0,2.32-1.28,8.37,8.37,0,0,0,.59-2.88l-.45.21A3.49,3.49,0,0,1,154.06,340.88Z"/><line class="cls-8" x1="118.68" y1="343.5" x2="124.36" y2="375.56"/><path class="cls-7" d="M120.49,364.21c1.47,1,2.74,5,2.74,5s-4.14.17-5.61-.86-3.33-5.38-3.33-5.38S119,363.18,120.49,364.21Z"/><path class="cls-7" d="M128.2,366.43c-1,1.47-5,2.74-5,2.74s-.16-4.13.87-5.6,5.38-3.34,5.38-3.34S129.23,365,128.2,366.43Z"/><path class="cls-7" d="M117.24,366.16A10.13,10.13,0,0,1,115,363l-.68-.05s1.86,4.35,3.33,5.38,5.61.86,5.61.86-.33-1-.84-2.14C121.28,367,118.41,367,117.24,366.16Z"/><path class="cls-7" d="M127.82,364.28c-.82,1.18-3.49,2.22-4.54,2.6-.09,1.23,0,2.29,0,2.29s3.94-1.27,5-2.74,1.28-6.2,1.28-6.2l-.62.28A10.17,10.17,0,0,1,127.82,364.28Z"/><path class="cls-7" d="M119.79,358.9c1.28.89,2.39,4.33,2.39,4.33s-3.61.14-4.89-.76-2.9-4.68-2.9-4.68S118.51,358,119.79,358.9Z"/><path class="cls-7" d="M126.51,360.84c-.9,1.28-4.33,2.39-4.33,2.39s-.14-3.61.75-4.89,4.69-2.9,4.69-2.9S127.4,359.56,126.51,360.84Z"/><path class="cls-7" d="M116.92,360.41a8.15,8.15,0,0,1-1.87-2.58l-.66,0s1.62,3.79,2.9,4.68,4.89.76,4.89.76a21.9,21.9,0,0,0-.82-2.06C120.35,361.18,117.93,361.11,116.92,360.41Z"/><path class="cls-7" d="M126.14,358.78c-.7,1-3,1.9-3.9,2.24a20.11,20.11,0,0,0-.06,2.21s3.43-1.11,4.33-2.39,1.11-5.4,1.11-5.4l-.6.27A8.51,8.51,0,0,1,126.14,358.78Z"/><path class="cls-7" d="M119.32,354.41c1,.71,1.9,3.45,1.9,3.45s-2.87.11-3.89-.6-2.32-3.74-2.32-3.74S118.3,353.69,119.32,354.41Z"/><path class="cls-7" d="M124.67,356c-.71,1-3.45,1.91-3.45,1.91s-.11-2.88.61-3.9,3.73-2.31,3.73-2.31S125.39,354.93,124.67,356Z"/><path class="cls-7" d="M117.06,355.73a6.88,6.88,0,0,1-1.56-2.18l-.49,0s1.3,3,2.32,3.74,3.89.6,3.89.6a16.11,16.11,0,0,0-.59-1.52C119.85,356.34,117.87,356.3,117.06,355.73Z"/><path class="cls-7" d="M124.4,354.43c-.56.81-2.4,1.53-3.14,1.79a15.5,15.5,0,0,0,0,1.64S124,357,124.67,356s.89-4.3.89-4.3l-.44.2A6.84,6.84,0,0,1,124.4,354.43Z"/><path class="cls-7" d="M118.91,350.66c.82.57,1.53,2.78,1.53,2.78s-2.31.09-3.14-.49-1.86-3-1.86-3S118.08,350.08,118.91,350.66Z"/><path class="cls-7" d="M123.22,351.9c-.58.83-2.78,1.54-2.78,1.54s-.09-2.32.48-3.14,3-1.87,3-1.87S123.79,351.08,123.22,351.9Z"/><path class="cls-7" d="M117.11,351.86a6,6,0,0,1-1.33-1.89l-.34,0s1,2.44,1.86,3,3.14.49,3.14.49a11.14,11.14,0,0,0-.42-1.09A6.6,6.6,0,0,1,117.11,351.86Z"/><path class="cls-7" d="M123,350.81a6.58,6.58,0,0,1-2.56,1.46c0,.64,0,1.17,0,1.17s2.2-.71,2.78-1.54.71-3.47.71-3.47l-.31.14A5.87,5.87,0,0,1,123,350.81Z"/><path class="cls-7" d="M118.53,347.55a6.2,6.2,0,0,1,1.28,2.31,6.11,6.11,0,0,1-2.62-.4,8.62,8.62,0,0,1-1.55-2.51A8.53,8.53,0,0,1,118.53,347.55Z"/><path class="cls-7" d="M122.12,348.58a6.06,6.06,0,0,1-2.31,1.28,6.05,6.05,0,0,1,.4-2.61,8.4,8.4,0,0,1,2.51-1.55A8.45,8.45,0,0,1,122.12,348.58Z"/><path class="cls-7" d="M116.93,348a3.48,3.48,0,0,1-.79-1l-.5,0a8.62,8.62,0,0,0,1.55,2.51,6.11,6.11,0,0,0,2.62.4,10.42,10.42,0,0,0-.63-1.46A4.9,4.9,0,0,1,116.93,348Z"/><path class="cls-7" d="M121.86,347.12a4.89,4.89,0,0,1-2,1.15,9,9,0,0,0-.08,1.59,6.06,6.06,0,0,0,2.31-1.28,8.45,8.45,0,0,0,.6-2.88l-.46.21A3.49,3.49,0,0,1,121.86,347.12Z"/><path class="cls-7" d="M523.46,537.19l1.42-.6c-1.9,0-3.77,0-5.65-.05l-.46,0c-2.24.77-4.6,1.59-7,2.47Q517.6,538,523.46,537.19Z"/><path class="cls-7" d="M333.05,701.61c4.26,0,8.48-.18,12.68-.45C414.09,615.34,484.65,562.86,525,537l-1.57.23C435,573.9,350.14,642.15,290.89,697.06A197.11,197.11,0,0,0,333.05,701.61Z"/><path class="cls-7" d="M527.11,536.61l-1.51,0L525,537l2.07-.3Z"/><path class="cls-7" d="M376.75,696.72A196.81,196.81,0,0,0,526.6,539.39C468.83,582.91,417.29,642.2,376.75,696.72Z"/><path class="cls-7" d="M197.74,647.59c144-88.51,275.31-107.12,321-111l.12,0c-162.86-1.21-273.83,49-338.73,92A197.7,197.7,0,0,0,197.74,647.59Z"/><path class="cls-7" d="M263.8,689c98.85-88.34,196.2-131.52,247.93-150C402.44,558,288.34,620.25,218,664.39A195.94,195.94,0,0,0,263.8,689Z"/><path class="cls-4" d="M316.82,557.3C266.8,544.35,208.34,536,141,536.54l.12,0c25.53,2.17,77.75,8.95,143.94,29.89C295.3,563.22,305.91,560.14,316.82,557.3Z"/><path class="cls-7" d="M141.1,536.58l-.46,0c-1.89,0-3.76,0-5.65.05l1.42.6q5.85.84,11.73,1.86Q144.47,537.73,141.1,536.58Z"/><path class="cls-7" d="M134.27,536.59l-1.51,0v0l2.07.3Z"/><path class="cls-4" d="M265,573.18c-38.08-15-77.75-27.35-116.82-34.13a698.06,698.06,0,0,1,94.55,42.37C249.83,578.64,257.28,575.88,265,573.18Z"/><path class="cls-4" d="M200.67,599.31c-21.22-21.67-43.78-42.12-67.4-59.92a195.68,195.68,0,0,0,31.95,77.48C174.56,611.9,186.54,605.84,200.67,599.31Z"/><path class="cls-4" d="M229.22,586.83c-29.8-19.22-61.07-36.47-92.81-49.64l-1.57-.23a690.65,690.65,0,0,1,76.62,57.46C217.1,591.92,223.05,589.38,229.22,586.83Z"/><path class="cls-7" d="M516.88,538.2c0,.61,0,1.22-.08,1.82q3.33-1.46,6.66-2.83C521.27,537.5,519.07,537.84,516.88,538.2Zm0-1.46c0,.16,0,.32,0,.48l1.85-.64Zm-380.52.45q5.75,2.38,11.48,4.95c-.07-1-.13-2.1-.17-3.16Q142.05,538,136.41,537.19Zm11.3,1.71c0-.57-.05-1.14-.07-1.71q-3.51-.36-6.54-.61Q144.27,537.66,147.71,538.9ZM147.54,451H130.4v15h17.14ZM359.15,25.2H305.41c-96.69,0-175.35,78.66-175.35,175.35v331.1c0,96.69,78.66,175.35,175.35,175.35h53.74c96.69,0,175.35-78.66,175.35-175.35V200.55C534.5,103.86,455.84,25.2,359.15,25.2ZM305.41,689.52q-3.11,0-6.18-.12A156.91,156.91,0,0,1,219,663.74a159.22,159.22,0,0,1-38.39-35.47,157.45,157.45,0,0,1-31.85-76.68q-.36-2.9-.62-5.82c-.11-1.21-.21-2.41-.28-3.63-.07-1-.13-2.1-.17-3.16a.19.19,0,0,1,0-.08c0-.57-.05-1.14-.07-1.71,0-.22,0-.44,0-.67-.06-1.62-.08-3.24-.08-4.87V200.55c0-87.05,70.82-157.87,157.87-157.87h53.74C446.2,42.68,517,113.5,517,200.55v331.1c0,1.63,0,3.26-.08,4.88a1.48,1.48,0,0,1,0,.21c0,.16,0,.32,0,.48,0,.33,0,.66,0,1,0,.61,0,1.22-.08,1.82,0,.81-.09,1.61-.15,2.41-.11,1.67-.25,3.34-.42,5C509.11,619,454,676.65,383.58,687.63a157.41,157.41,0,0,1-24.43,1.89Z"/><polygon class="cls-7" points="560.32 364.59 575.46 412.36 531.19 412.36 531.19 316.82 575.46 316.82 560.32 364.59"/><polygon class="cls-7" points="132.72 316.82 132.72 412.36 88.44 412.36 103.59 364.59 88.44 316.82 132.72 316.82"/><g class="cls-9"><path class="cls-10" d="M469.84,540.52v85.64s12.83-7.77,15.79-14.06l17.69-42.6-13.53-40.87Z"/><path class="cls-10" d="M199.87,540.52v85.64S187,618.39,184.08,612.1l-17.69-42.6,13.53-40.87Z"/><path class="cls-7" d="M413.24,334.27,380,323H289.75l-33.28,11.28a38.9,38.9,0,0,0-4.74,2l-18,124.79-22.5,183.88H467.69L435.11,444.29,419.69,337.13A38.81,38.81,0,0,0,413.24,334.27Z"/><path class="cls-4" d="M371.33,300.5s-18.7-10.67-37.93-10.67-35,10.67-35,10.67l9.68,35.9,50.68-3.89Z"/><path class="cls-10" d="M315,303c-3.28,15.35-6.9,33.39-6.9,33.39l29.49,27.85,21.19-31.74-6.38-29.2C337.93,310.58,324.78,307.86,315,303Z"/><path class="cls-10" d="M320.06,281.83c-.59.7-2.76,10.26-5.1,21.18,9.82,4.85,23,7.57,37.4.3l-4.7-21.48Z"/><path class="cls-7" d="M235.26,450.74l16.47-114.47a39.73,39.73,0,0,0-17,15.91l-73.41,128.4a40.8,40.8,0,0,0-4.87,26.69l8.18,51.23a38.91,38.91,0,0,1,12.75-16.69c8.85-6.71,17.25-7.95,23.05-7.7L204.49,488Z"/><path class="cls-11" d="M177.38,541.81a38.91,38.91,0,0,0-12.75,16.69l1.76,11c11.85-29.66,33.48-29,33.48-29l.56-6.41C194.63,533.86,186.23,535.1,177.38,541.81Z"/><path class="cls-7" d="M512.24,487.32,435,352.18a39.69,39.69,0,0,0-15.29-15.05l15.42,112.32,30.76,31.84,3.64,50.13c10.32.36,26.18,4.9,35.57,27l9.41-58.82A18.81,18.81,0,0,0,512.24,487.32Z"/><path class="cls-11" d="M469.51,531.42l.33,9.1c26.8-1,33.48,29,33.48,29l1.76-11.07C495.69,536.32,479.83,531.78,469.51,531.42Z"/><path class="cls-12" d="M211.27,644.94V720a330.88,330.88,0,0,0,256.42-6.36V644.94Z"/><path class="cls-13" d="M331,741.85V671.18s-7,7-8.18-12.2"/><polygon class="cls-4" points="298.38 300.5 325.28 339.11 313.21 370.56 289.75 322.99 298.38 300.5"/><polygon class="cls-4" points="371.33 300.5 344.43 339.11 356.5 370.56 379.96 322.99 371.33 300.5"/><polygon class="cls-4" points="344.43 339.11 337.55 364.25 350.42 354.73 344.43 339.11"/><polygon class="cls-4" points="337.55 364.25 325.28 339.11 320.46 351.68 337.55 364.25"/><path class="cls-10" d="M329,402.44a3.72,3.72,0,1,1-3.71-3.72A3.71,3.71,0,0,1,329,402.44Z"/><path class="cls-10" d="M329,370.56a3.72,3.72,0,1,1-3.71-3.71A3.72,3.72,0,0,1,329,370.56Z"/><path class="cls-4" d="M398.88,122.64,371.52,74.05a18.34,18.34,0,0,0-16-9.34H312.67a18.32,18.32,0,0,0-15.07,7.9c-8.06,11.64-22,33.84-32.31,50.6C292.42,119.51,338.78,116.09,398.88,122.64Z"/><path class="cls-7" d="M265.29,123.21c-7.35,12-12.87,21.16-13.06,21.74H411.44l-12.56-22.31C338.78,116.09,292.42,119.51,265.29,123.21Z"/><path class="cls-4" d="M331.36,136.68c106.08,0,192.42,16.42,195.54,36.91a8.36,8.36,0,0,0,.1-1.22C527,150.05,439.41,132,331.36,132s-195.64,18.1-195.64,40.42a8.36,8.36,0,0,0,.1,1.22C138.94,153.1,225.29,136.68,331.36,136.68Z"/><path class="cls-4" d="M331.36,136.68c-106.07,0-192.42,16.42-195.54,36.91a7.34,7.34,0,0,0-.1,1.15c0,21,87.59,38,195.64,38s195.64-17,195.64-38a7.34,7.34,0,0,0-.1-1.15C523.78,153.1,437.44,136.68,331.36,136.68Z"/><path class="cls-7" d="M405.88,168.26a3.71,3.71,0,0,0-1.58-1.4c-16-9.29-37.24-14.71-55.59-15.55-20.78-.94-41.63,1.31-62,5.36-9,1.79-18.07,3.94-26.42,7.82a4.8,4.8,0,0,0-2.65,2.2,4.91,4.91,0,0,0,0,2.84q4.89,23.33,10.58,46.47c1.44,5.87,2.69,12.18,4.11,18.48,2.9-1.08,5.56-2.6,7.12-5.2,2.14-3.58,1.54-8.1.87-12.22-.55-3.4-1.11-6.81-1.66-10.22a5.13,5.13,0,0,1-.09-1.7,6.59,6.59,0,0,1,1.35-2.49c4-5.79,2.26-13.59.4-20.35.58,2.11,33.69-8.29,36.75-9.45,11.43-4.35,22.9-9,33.06-15.9a113.58,113.58,0,0,0,16.15,12.91c5.49,3.62,12.42,7.8,18.76,9.59a120.43,120.43,0,0,0-4.57,18.71c-.68,4.25-.56,9.67,3.31,11.55a4.83,4.83,0,0,1,2.11,1.28,3.16,3.16,0,0,1,.27,2.13c-.45,3.61-1.6,7.09-2.17,10.68s-.48,7.46,1.38,10.58a8.67,8.67,0,0,0,6.47,4.19c1.48-4.8,2.8-9.64,3.9-14.54q1.29-5.76,2.23-11.6c2.28-14.21,5.54-27.61,8-41.78A3.81,3.81,0,0,0,405.88,168.26Z"/><path class="cls-7" d="M357.66,234.19a72.15,72.15,0,0,0-40.49-2.44,66.75,66.75,0,0,0-16.46,5.86,57.61,57.61,0,0,0-21.42,19.47c.35.77.69,1.54,1.07,2.28,10,20.1,28.52,37.39,52.14,37.39,24.31,0,43.68-18.3,52.69-39.68.22-.52.42-1,.63-1.55A60.79,60.79,0,0,0,357.66,234.19Z"/><path class="cls-10" d="M385.4,234.38c-1.86-3.12-1.94-7-1.38-10.58s1.72-7.07,2.17-10.68a3.16,3.16,0,0,0-.27-2.13,4.83,4.83,0,0,0-2.11-1.28c-3.87-1.88-4-7.3-3.31-11.55a120.43,120.43,0,0,1,4.57-18.71c-6.34-1.79-13.27-6-18.76-9.59A113.58,113.58,0,0,1,350.16,157c-10.16,6.92-21.63,11.55-33.06,15.9-3.06,1.16-36.17,11.56-36.75,9.45,1.86,6.76,3.57,14.56-.4,20.35a6.59,6.59,0,0,0-1.35,2.49,5.13,5.13,0,0,0,.09,1.7c.55,3.41,1.11,6.82,1.66,10.22.67,4.12,1.27,8.64-.87,12.22-1.56,2.6-4.22,4.12-7.12,5.2,1.77,7.85,3.83,15.67,6.93,22.6a57.61,57.61,0,0,1,21.42-19.47,66.75,66.75,0,0,1,16.46-5.86,72.15,72.15,0,0,1,40.49,2.44,60.79,60.79,0,0,1,28.16,21.33q3.42-8.34,6.05-17A8.67,8.67,0,0,1,385.4,234.38Z"/><path class="cls-10" d="M322.29,231.41a10.38,10.38,0,0,0-.55,4.57c.66,3.56,4.68,5.36,8.26,5.89a13.89,13.89,0,0,0,7.16-.5,7,7,0,0,0,4.51-5.25,10.8,10.8,0,0,0-.51-4.13c-.91-3.59-5.69-29.66-9-29.33C328.22,203.06,323.45,227.37,322.29,231.41Z"/><path class="cls-10" d="M334,265.11a18.9,18.9,0,0,0-4.88,4.55c6.91,2.36,14.5,1.37,20-3.91A14,14,0,0,0,351.9,262C346.14,259.91,338.87,261.84,334,265.11Z"/><path class="cls-10" d="M353.18,253.61a11.15,11.15,0,0,0-.3-1.82l-33.54,7.83a32.1,32.1,0,0,0,1.42,3.49,4,4,0,0,0,.24.41,107.75,107.75,0,0,0,32.24-8.22A16,16,0,0,0,353.18,253.61Z"/><path class="cls-10" d="M321,263.52a11.08,11.08,0,0,0,5.1,4.62,25.38,25.38,0,0,0,3.15,1.33A18.63,18.63,0,0,1,334,265c4.79-3.2,11.9-5.09,17.54-3a14.94,14.94,0,0,0,1.67-6.71"/><path class="cls-7" d="M362.27,205.42a4.58,4.58,0,1,1-4.58-4.58A4.58,4.58,0,0,1,362.27,205.42Z"/><path class="cls-7" d="M312.85,205.42a4.58,4.58,0,1,1-4.58-4.58A4.58,4.58,0,0,1,312.85,205.42Z"/><path class="cls-7" d="M295.18,192.66c.79-2.2,2.76-4,4.59-5.29a23.4,23.4,0,0,1,8.94-4c3-.6,6.84-.76,9.57.87a4.37,4.37,0,0,1,2.24,2.68c.52,2.59-2.14,4.69-4.45,4.93h-.41a29.15,29.15,0,0,0-4.32.39,20,20,0,0,0-4.09,1.11c-2.37.86-4.54,2.23-6.82,3.3-1.06.5-2.58,1.24-3.77.74a3.29,3.29,0,0,1-1.82-3.09A6.39,6.39,0,0,1,295.18,192.66Z"/><path class="cls-7" d="M370.22,192.66c-.79-2.2-2.76-4-4.59-5.29a23.34,23.34,0,0,0-8.94-4c-3-.6-6.84-.76-9.56.87a4.35,4.35,0,0,0-2.25,2.68c-.52,2.59,2.14,4.69,4.45,4.93h.41a29.15,29.15,0,0,1,4.32.39,20,20,0,0,1,4.1,1.11c2.36.86,4.53,2.23,6.81,3.3,1.06.5,2.58,1.24,3.77.74a3.28,3.28,0,0,0,1.82-3.09A6,6,0,0,0,370.22,192.66Z"/></g><polygon class="cls-14" points="59.56 476.28 31.75 476.28 31.75 518.62 108.18 518.62 108.18 494.51 59.56 494.51 59.56 476.28"/><rect class="cls-14" x="31.75" y="419.37" width="27.82" height="56.91"/><path class="cls-14" d="M144.46,440.21c-21.54,0-37.13,15.62-39,36.07h77.82C181.31,456.35,168.91,440.21,144.46,440.21ZM131.13,474c1.43-8.37,6.31-13.9,13.48-13.9,7.45,0,12.47,5.39,13.48,13.9Z"/><path class="cls-14" d="M105.5,476.28c-.12,1.33-.19,2.68-.19,4.06v.28c0,23.82,17.21,39.84,41.59,39.84,15.49,0,26.24-6.24,33.7-15.6l-15.06-12.33c-5.59,5.39-10.75,7.8-17.2,7.8-8.46,0-14.63-4.26-16.78-12.62h51.91c.14-1.85.14-3.83.14-5.53q0-3-.29-5.9Z"/><polygon class="cls-14" points="240.64 476.28 205.14 476.28 185.05 498.63 185.05 518.62 273.81 518.62 273.81 495.36 223.48 495.36 240.64 476.28"/><polygon class="cls-14" points="273.81 439.36 273.81 419.37 186.77 419.37 186.77 442.62 235.38 442.62 205.14 476.28 240.64 476.28 273.81 439.36"/><path class="cls-14" d="M318.44,476.28l-3.75,11.85-4-11.85H284.54l16.53,40.92a6.83,6.83,0,0,1-6.31,3.12c-3,0-7.6-1.56-11.91-4.11l-8.46,18.85a50.59,50.59,0,0,0,25,6.67c15.48,0,22.8-7.09,29.54-25l15.36-40.49Z"/><polygon class="cls-14" points="299.2 441.91 270.67 441.91 284.54 476.28 310.72 476.28 299.2 441.91"/><polygon class="cls-14" points="357.28 441.91 329.32 441.91 318.44 476.28 344.25 476.28 357.28 441.91"/><path class="cls-14" d="M401.74,456.8c-13.91-3.12-17.35-5.11-17.35-9.64v-.29c0-3.54,3.29-6.38,10-6.38,8.9,0,18.93,3.41,28.11,9.79l13.91-19.43c-10.9-8.65-24.23-13.18-41.3-13.18-24.09,0-38.86,13.32-38.86,31.76v.28c0,14.68,8.53,21.89,21.27,26.57h59.26C431.87,465.78,419.35,460.59,401.74,456.8Z"/><path class="cls-14" d="M377.55,476.28a135.53,135.53,0,0,0,16.59,4.62c13.62,3.12,16.92,5.39,16.92,9.5v.29c0,4.25-4,6.8-11.47,6.8-11.62,0-22.66-4.11-32.56-11.91l-15.48,18.29c12.33,10.92,29.25,16.45,47,16.45,24.38,0,40.59-12.05,40.59-32.33v-.28a26.34,26.34,0,0,0-2.36-11.43Z"/><polygon class="cls-14" points="519.76 457.79 471.58 457.79 471.58 442.76 524.78 442.76 524.78 419.37 444.05 419.37 444.05 476.28 519.76 476.28 519.76 457.79"/><polygon class="cls-14" points="471.58 479.48 519.76 479.48 519.76 476.28 444.05 476.28 444.05 518.62 525.5 518.62 525.5 495.22 471.58 495.22 471.58 479.48"/><rect class="cls-14" x="531.09" y="476.28" width="27.25" height="42.34"/><polygon class="cls-14" points="637.78 419.37 608.39 419.37 584.44 457.79 560.49 419.37 531.09 419.37 531.09 476.28 558.34 476.28 558.34 461.9 567.85 476.28 600.42 476.28 610.11 461.62 610.11 476.28 637.78 476.28 637.78 419.37"/><polygon class="cls-14" points="583.87 500.47 584.44 500.47 600.42 476.28 567.85 476.28 583.87 500.47"/><rect class="cls-14" x="610.11" y="476.28" width="27.68" height="42.34"/><polygon class="cls-15" points="59.56 476.28 31.75 476.28 31.75 518.62 108.18 518.62 108.18 494.51 59.56 494.51 59.56 476.28"/><rect class="cls-2" x="31.75" y="419.37" width="27.82" height="56.91"/><path class="cls-2" d="M144.46,440.21c-21.54,0-37.13,15.62-39,36.07h77.82C181.31,456.35,168.91,440.21,144.46,440.21ZM131.13,474c1.43-8.37,6.31-13.9,13.48-13.9,7.45,0,12.47,5.39,13.48,13.9Z"/><path class="cls-15" d="M105.5,476.28c-.12,1.33-.19,2.68-.19,4.06v.28c0,23.82,17.21,39.84,41.59,39.84,15.49,0,26.24-6.24,33.7-15.6l-15.06-12.33c-5.59,5.39-10.75,7.8-17.2,7.8-8.46,0-14.63-4.26-16.78-12.62h51.91c.14-1.85.14-3.83.14-5.53q0-3-.29-5.9Z"/><polygon class="cls-15" points="240.64 476.28 205.14 476.28 185.05 498.63 185.05 518.62 273.81 518.62 273.81 495.36 223.48 495.36 240.64 476.28"/><polygon class="cls-2" points="273.81 439.36 273.81 419.37 186.77 419.37 186.77 442.62 235.38 442.62 205.14 476.28 240.64 476.28 273.81 439.36"/><path class="cls-15" d="M318.44,476.28l-3.75,11.85-4-11.85H284.54l16.53,40.92a6.83,6.83,0,0,1-6.31,3.12c-3,0-7.6-1.56-11.91-4.11l-8.46,18.85a50.59,50.59,0,0,0,25,6.67c15.48,0,22.8-7.09,29.54-25l15.36-40.49Z"/><polygon class="cls-2" points="299.2 441.91 270.67 441.91 284.54 476.28 310.72 476.28 299.2 441.91"/><polygon class="cls-2" points="357.28 441.91 329.32 441.91 318.44 476.28 344.25 476.28 357.28 441.91"/><path class="cls-2" d="M401.74,456.8c-13.91-3.12-17.35-5.11-17.35-9.64v-.29c0-3.54,3.29-6.38,10-6.38,8.9,0,18.93,3.41,28.11,9.79l13.91-19.43c-10.9-8.65-24.23-13.18-41.3-13.18-24.09,0-38.86,13.32-38.86,31.76v.28c0,14.68,8.53,21.89,21.27,26.57h59.26C431.87,465.78,419.35,460.59,401.74,456.8Z"/><path class="cls-15" d="M377.55,476.28a135.53,135.53,0,0,0,16.59,4.62c13.62,3.12,16.92,5.39,16.92,9.5v.29c0,4.25-4,6.8-11.47,6.8-11.62,0-22.66-4.11-32.56-11.91l-15.48,18.29c12.33,10.92,29.25,16.45,47,16.45,24.38,0,40.59-12.05,40.59-32.33v-.28a26.34,26.34,0,0,0-2.36-11.43Z"/><polygon class="cls-2" points="519.76 457.79 471.58 457.79 471.58 442.76 524.78 442.76 524.78 419.37 444.05 419.37 444.05 476.28 519.76 476.28 519.76 457.79"/><polygon class="cls-15" points="471.58 479.48 519.76 479.48 519.76 476.28 444.05 476.28 444.05 518.62 525.5 518.62 525.5 495.22 471.58 495.22 471.58 479.48"/><rect class="cls-15" x="531.09" y="476.28" width="27.25" height="42.34"/><polygon class="cls-2" points="637.78 419.37 608.39 419.37 584.44 457.79 560.49 419.37 531.09 419.37 531.09 476.28 558.34 476.28 558.34 461.9 567.85 476.28 600.42 476.28 610.11 461.62 610.11 476.28 637.78 476.28 637.78 419.37"/><polygon class="cls-15" points="583.87 500.47 584.44 500.47 600.42 476.28 567.85 476.28 583.87 500.47"/><rect class="cls-15" x="610.11" y="476.28" width="27.68" height="42.34"/></svg>