<svg id="Layer_1" data-name="Layer 1" xmlns="http://www.w3.org/2000/svg" viewBox="0 0 639.51 639.51"><defs><style>.cls-1,.cls-2{fill:#fff;}.cls-1{opacity:0.18;}</style></defs><title>Insurance Icons2</title><circle class="cls-1" cx="319.76" cy="319.76" r="319.76"/><path class="cls-2" d="M409.25,445.54V411.92c-9.51,4-18.26,7.8-27.05,11.48-6.84,2.86-13.83,3.36-20.78.46q-16.16-6.72-32.22-13.7c-2.94-1.28-5.73-2.89-9.54-4.83v40.26c5.77.14,11.42.33,17.07.4,6.7.09,13.41-.11,20.09.2,4.2.19,7.13,2.46,7.28,7.06.17,5.24-2.82,7.55-7.75,7.79-2.09.11-4.18.1-6.28.1q-96.1,0-192.22,0c-2.92,0-6.29.64-8.65-.57-2.53-1.29-5.64-4.4-5.68-6.76s2.86-5.74,5.34-7.13c2.28-1.28,5.7-.64,8.63-.65,12.94,0,25.88,0,39.77,0V411.57c-7.63,3.51-15,7.32-22.67,10.28a49.46,49.46,0,0,1-15.72,3.57c-2.39.08-6.44-3.07-7-5.37s1.73-6.18,3.89-8.1c2-1.75,5.62-1.43,8.21-2.7,9.7-4.77,19.42-9.55,28.84-14.85,4.75-2.67,7.1-7,4.24-12.4-9,3.62-17.73,7.68-26.84,10.63-7.77,2.52-12.69.68-14.25-3.7-1.73-4.88,1.71-7.64,10.49-11.11a225.79,225.79,0,0,0,25.75-12.66c4-2.23,7.5-5.65,4.68-12.51-3.54,1.45-7.07,3.11-10.75,4.35a90.62,90.62,0,0,1-13.24,3.67c-4.46.78-8.53-.36-9.52-5.69-.86-4.55,2-7,5.7-8.56,1.91-.79,4.18-.76,6-1.65,6.37-3.11,12.79-6.17,18.85-9.81,4.55-2.73,5.59-7,2.68-11.9-5.19,1.64-10.27,3.54-15.51,4.79-4.64,1.11-9.65,1.31-11.25-4.68-1.54-5.77,2.4-8.14,7.12-9.9,5.06-1.89,10.08-4,15-6.29,5.83-2.77,7.24-7.49,5.26-14.41-5,1.55-9.54,3.24-14.23,4.36-4.43,1.07-8.64.31-10.09-4.79-1.33-4.7.52-8,5.37-9.71s9.32-3.67,13.85-5.78c6-2.79,7.1-7.54,5.07-14-4.33.83-8.26,1.84-12.26,2.3-4.43.5-7.88-2-7.92-6.13,0-2.65,2.43-5.91,4.67-7.84,2.07-1.78,5.44-1.94,8.08-3.16,8.15-3.75,8.15-3.86,7.44-15.43-2.74.29-5.45.71-8.17.85-4.28.22-8-1.62-8-5.95,0-2.68,2.47-5.59,4.35-8,.89-1.13,3-1.24,4.55-1.93,8.1-3.65,8.1-3.66,7.3-15.21a36.78,36.78,0,0,0-4.42-.28c-4.89.22-8.36-1.84-9-6.7-.61-4.33,2.15-7.24,6.21-8.18,7.28-1.69,9-6.45,8.28-13.12a82,82,0,0,1,0-10c.1-4.82,2.37-8.42,7.29-8.52s7.5,3.18,7.6,8.12a119.59,119.59,0,0,1,0,12.56c-.46,5.46,1.78,8.75,6.87,10.39a16.76,16.76,0,0,1,4.61,1.89c5.11,3.65,4.46,10.78-1.38,13-2.58,1-5.68.66-8.47.92C213,213,213.16,213.38,221,217.05c1.88.88,4.55,1,5.68,2.41,1.87,2.34,4.26,5.79,3.7,8.11s-4.21,4.69-7,5.52c-2.52.76-5.65-.5-8.49-.87-1.92,10.51-1.63,11.44,6,15.14,3.36,1.63,7.39,2.18,10.31,4.31,2,1.44,4.07,5.33,3.41,7.14-.92,2.53-4.19,5.51-6.76,5.82-3.93.48-8.11-1.16-12.92-2-3.05,5.44-2.3,10,3.4,13.19A87.72,87.72,0,0,0,232,281.94c4.87,1.68,8.51,3.95,7.24,9.74-1.08,4.93-5.42,6.49-12.27,4.75-2-.52-4-1.27-6-1.94s-3.88-1.34-6-2.1c-3.41,6.35-1.65,10.94,3.89,13.9a155.82,155.82,0,0,0,16,7c4.59,1.82,8.86,4,7.11,9.84-1.67,5.57-6.16,6.31-11.17,4.81-5.17-1.55-10.3-3.27-15.79-5-3.26,4.82-1.88,8.93,2.41,11.61a210,210,0,0,0,18.75,10c2.22,1.09,4.89,1.22,7.17,2.21,3.92,1.69,6.4,5.12,4.55,9-1.13,2.36-4.81,4.57-7.53,4.82-3.54.33-7.38-1.05-10.91-2.24-4.71-1.59-9.24-3.69-14.06-5.65-3.81,4.54-1.88,8.31,1.84,10.49,9,5.25,18.2,10,27.56,14.51,1.7.82,5.72.08,6.62-1.29,3.51-5.34,9.37-5,14.19-7.14,9.52-4.24,19-8.65,28.19-13.52,8.74-4.62,12.75-11.74,9-22.1-7.63,3.19-15.17,6.57-22.89,9.46-3.46,1.3-7.39,2.51-10.92,2.1a10.74,10.74,0,0,1-7.33-5.12c-1.91-4,.85-7.19,4.69-8.86,1.9-.82,4.15-.8,6.05-1.61,6.9-3,14-5.6,20.5-9.32,11.85-6.8,12.05-7.92,9.72-22.94-3.17,1.21-6.19,2.43-9.25,3.53-3.92,1.42-7.79,3.14-11.84,4-7.42,1.64-11.34,0-12.53-4.65s1.32-7.5,8.65-10.09a114.71,114.71,0,0,0,12.82-4.95c14.16-7,14.48-7.82,12.35-25.35-4.72,1.76-9.23,3.5-13.79,5.1a45,45,0,0,1-7.23,2c-4.84.84-8.45-1.22-9.59-5.92-1-4.24,1.33-7.18,5.4-8.63s8-2.5,11.81-4.18c14.93-6.58,15.67-8.06,13.38-25.29-5.14,1.45-10.15,3.19-15.31,4.21-3.92.79-7.74-.15-9-4.73-1.29-4.81.68-8.15,5.38-9.78,1.57-.54,3.28-.72,4.84-1.31,15.7-5.88,16.54-7.4,14.08-25.69-4,1-7.92,2.28-11.94,2.8-4.32.55-7.86-1.84-7.95-6.06-.06-2.67,2.54-5.45,4.13-8.06.35-.58,1.47-.73,2.26-1,14.41-4.77,16-4.75,13.78-24.85-3,.27-6.35,1.37-9.15.58s-6.49-3.12-7-5.42,1.88-7.7,3.63-8C305.23,133.22,304.5,122.72,304,112a42.89,42.89,0,0,1,.39-10c.82-4.27,4.15-6.94,8.21-5.67,2.53.79,5.64,4,6.06,6.49a70.38,70.38,0,0,1,.37,17.53c-.62,7.05,2.35,11.12,8.73,13.24.79.27,1.59.53,2.4.73,5.24,1.3,8.2,4.46,6.75,10-1.35,5.14-5.63,5.55-10.12,4.87-2-.31-4.06-.68-6.73-1.13a69,69,0,0,0-.86,7.56c-.05,11.12.78,12.28,11.37,16.53,1.94.77,4,1.31,5.89,2.14,4,1.75,5.86,4.87,4.36,9.09-1.43,4.05-4.71,5.82-9,5-3.66-.73-7.23-1.88-10.84-2.85-4,15.71-2.26,19.26,11.85,25,1.93.78,4,1.22,5.93,2,6,2.39,8.53,5.88,7,10-2.12,5.64-6.84,5.43-11.56,4.52a63.9,63.9,0,0,1-7.16-2.27l-5.85-1.9c-3.93,14.14-3,17.07,8.73,23.29a90.34,90.34,0,0,0,15.09,6c4.79,1.51,7.13,4.3,6.3,9.22-.76,4.5-5.1,6.84-10.89,5.26-6.38-1.74-12.54-4.3-18.79-6.5-4.45,12.2-3.6,16.15,6,21.91,5.33,3.2,11.29,5.37,17,7.86,1.9.82,4.71.57,5.84,1.89,1.94,2.29,3.95,5.4,4,8.21.08,3.81-3.35,5.94-7.06,5.42a84.78,84.78,0,0,1-14.55-3.44c-4.26-1.39-8.28-3.54-12.47-5.38-3.84,10.73-.36,18,8.64,22.6,7.41,3.81,15.05,7.18,22.66,10.58,1.87.84,4.18.72,6,1.6,3.82,1.82,6.16,5.31,4.16,9.11-1.25,2.36-5.28,5.15-7.51,4.74-7.3-1.36-14.43-3.87-21.47-6.39-4.22-1.5-8.14-3.85-12.41-5.92-3.39,9.62-1,16.52,7.05,21,9.09,5.08,18.39,9.79,27.71,14.43,5.78,2.88,13.43,1.82,17.44,8.7.63,1.08,4.21,1.55,5.7.83,9.71-4.72,19.4-9.55,28.65-15.1,2-1.19,2.14-5.44,4-10.68-5.18,1.86-7.71,2.79-10.25,3.69-4.33,1.54-8.56,3.49-13,4.5-7.35,1.66-11.25-.13-12.4-4.85-1.09-4.49,1.71-7.16,8.79-10a148.73,148.73,0,0,0,20.32-9.54c5.47-3.19,5.16-3.73,3.75-12.53-5.55,1.61-11,3.54-16.65,4.73-4.37.93-8.64.08-9.75-5.27-1.07-5.1,2.06-7.59,6.39-9.28,5.43-2.12,10.9-4.2,16.08-6.84,5.78-3,7-7.76,4.1-14-4.62,1.47-8.9,3-13.28,4.19s-8.44.3-10.47-4.37c-1.84-4.23.45-7.77,6.24-10.18,4.24-1.77,8.53-3.42,12.68-5.37,5.81-2.74,7.82-7.14,4.92-14.11-2.6.58-5.24,1.3-7.93,1.73-4.67.76-9.67,1.42-11.24-4.67-1.43-5.55,1.6-8.62,6.84-10a32.21,32.21,0,0,0,5.84-2.22c7.89-3.77,8-4,6.46-15.22-2.78.29-5.86,1.44-8.32.66-2.8-.9-6.5-3.15-7.11-5.5s2-5.6,3.8-8.07c.82-1.14,3-1.29,4.52-2,8.25-3.64,8.25-3.64,7.72-14.41-1-.38-2-1.17-3.14-1.18-4.45,0-8.66-.59-9.65-5.89-1.06-5.68,2.28-8.42,7.33-9.79,4.77-1.29,6.56-4.58,6.33-9.4a95.69,95.69,0,0,1,.08-12.56c.51-5.95,3.92-9.82,8.09-9.3,5.07.64,6.81,4.27,6.91,8.94.08,3.76.18,7.53.1,11.3-.12,5.61,1.62,9.87,7.62,11.3,4.74,1.13,7.48,4,6.75,9-.76,5.12-4.56,6.51-9.28,6.29a16.64,16.64,0,0,0-3.53.54c-1.75,10.88-1.64,11.17,6.35,14.75,1.9.85,4.57,1,5.7,2.35,1.89,2.32,4.31,5.79,3.75,8.09s-4.23,4.75-7,5.57c-2.48.73-5.58-.66-8.37-1.11-2.28,10.52-1.92,11.63,5.71,15.27,3,1.43,6.38,2,9.39,3.47,3.9,1.83,6,5.49,4.06,9.23-1.23,2.34-4.82,3.84-7.65,4.79-1.72.58-4-.57-6.08-1s-3.88-.85-5.85-1.29c-2.87,6-1.63,10.48,3.65,13.25a121,121,0,0,0,14.86,6.52c4.6,1.68,7.18,4.38,6.14,9.35-.92,4.36-5.53,6.53-11.14,5.13-4.38-1.1-8.62-2.77-13.37-4.34-2.62,5.71-2.26,10.23,3.07,13.16A152.42,152.42,0,0,0,445.76,313c7,2.84,9.68,6,8.22,10.46-1.42,4.3-5.78,5.93-12.89,4.15-4.78-1.19-9.37-3.12-14.24-4.79-3.26,6.16-.48,10.17,4.1,12.92,5.71,3.42,11.8,6.24,17.82,9.1,1.85.88,4.12.84,6,1.61,3.84,1.53,6.33,4.21,5.46,8.68s-4.2,6.27-8.37,5.62a82.63,82.63,0,0,1-13.31-3.36c-3.85-1.29-7.49-3.22-11.44-5-3.62,6.09-.62,9.72,3.43,12.05,8.3,4.76,16.93,9,25.52,13.2,2.2,1.09,5.46.75,7,2.29,2.07,2.05,3.94,5.25,4.1,8.06.22,3.92-3.26,5.87-6.91,5.55a46.35,46.35,0,0,1-12.19-2.6c-7-2.63-13.72-5.89-21.23-9.18-3.21,5.64-.64,9.78,3.82,12.36,9.36,5.4,19.05,10.23,28.72,15.05,2.57,1.28,6.23.92,8.22,2.65a13,13,0,0,1,4.11,8.11c.27,3.92-3.09,5.94-6.79,5.7a37.17,37.17,0,0,1-11-2.22c-8.94-3.46-17.7-7.4-27.74-11.66-2.16,10.64-1,21.53-.59,33.5,4.46.27,8.47.7,12.48.71,32.24.06,64.49,0,96.74,0,3.33,0,7.17-.59,9.84.83a10.7,10.7,0,0,1,4.76,7.6c.13,1.95-2.79,5-5,6-2.47,1.14-5.74.71-8.66.71q-72.87,0-145.74,0c-2.09,0-4.19,0-6.27-.13-4.36-.26-7.14-2.39-7.33-6.94-.21-5.2,2.85-7.72,7.69-7.93,5.85-.27,11.72-.09,17.59-.16C403.78,446,405.82,445.75,409.25,445.54Zm-195.51-.37h89.37V407c-13.91,5.76-27.29,11.32-40.68,16.83-6.94,2.85-13.87,2.48-20.7-.4-9.15-3.87-18.29-7.77-28-11.9ZM408.65,382c-8.34,3.52-15.87,7.2-23.74,9.88-6.27,2.14-13,4.1-17.81-3.63-1-1.64-4.39-1.81-6.66-2.69-10.09-3.91-20.21-7.75-30.24-11.81-3.39-1.38-6.55-3.34-9.93-5.09-3.28,10.07,0,16.76,7.78,22.26,11.39,8.05,23.41,14.67,37,18,3.48.85,7.83,1.59,10.84.26,9.87-4.36,19.42-9.5,28.88-14.73C409.18,392,411.27,388,408.65,382Zm-194.59-.5c.13,9-.19,9.45,4.44,12.48a257.69,257.69,0,0,0,22.69,13.05c6.93,3.59,14.33,4.47,21.64.89,10.44-5.12,20.88-10.28,31.16-15.71,9.39-4.95,12.14-12.68,9.19-21.47-14.31,5.13-28.31,10.13-42.31,15.18-1.51.54-3.65,1-4.27,2.1-4.44,8.13-11.32,6-17.56,3.9C230.8,389.14,222.92,385.29,214.06,381.54Z"/><path class="cls-2" d="M355.26,489.42q-41.4,0-82.81,0c-3.34,0-7,.56-9.92-.61-2.61-1-5.56-3.78-6.29-6.35-1.21-4.29,2-7,6.14-7.85a43.74,43.74,0,0,1,8.73-.54q84.08,0,168.15.07c3.69,0,7.72.07,11,1.52,2,.91,4.1,4.54,3.94,6.79s-2.75,5.3-4.95,6.05c-3.42,1.18-7.4.89-11.15.9Q396.67,489.47,355.26,489.42Z"/><path class="cls-2" d="M277.25,502.92c20.9,0,41.8-.07,62.7,0,9.36.05,13.39,2.69,13,7.94-.36,4.73-4.33,7.27-12.67,7.29q-62.71.13-125.42,0c-.42,0-.84,0-1.25,0-8-.41-12.08-3.23-11.76-8.21.3-4.58,3.67-6.93,11.44-7,19.22-.18,38.45-.08,57.68-.1Z"/><path class="cls-2" d="M166.6,489.44c-18.77,0-37.54.09-56.31,0-9.07-.07-12.31-2-12.63-6.92-.36-5.54,3.52-8.34,12.66-8.37q56.94-.14,113.87,0c.42,0,.84,0,1.26,0,8.06.36,12.07,3,12.16,7.86s-3.73,7.36-12.19,7.42c-19.61.13-39.21,0-58.82,0Z"/><path class="cls-2" d="M394,503.15c6.65,0,13.3-.14,19.94.05,4.13.11,7.32,1.95,7.65,6.55.37,5.22-3.05,8-7.51,8.15q-21.18.54-42.36-.07a7.13,7.13,0,0,1-7.12-7.37c0-5.11,3.5-7.26,8.21-7.35,7.06-.14,14.13,0,21.19,0Z"/><path class="cls-2" d="M498,489.25c-6.66,0-13.34.17-20-.06-4.53-.17-8.34-1.89-8.19-7.34.14-5.2,3.83-7.47,8.3-7.56,13.33-.29,26.67-.27,40,0,4.64.08,8.21,2.79,8.21,7.69s-3.67,7.33-8.33,7.48c-6.65.23-13.32.06-20,.06Z"/></svg>