<svg id="Layer_1" data-name="Layer 1" xmlns="http://www.w3.org/2000/svg" viewBox="0 0 639.51 639.51"><defs><style>.cls-1,.cls-2{fill:#fff;}.cls-1{opacity:0.18;}</style></defs><title>Insurance Icons2</title><circle class="cls-1" cx="319.76" cy="319.76" r="319.76"/><path class="cls-2" d="M563.26,325.78c-1-1.86-2.08-3.79-3.08-5.65-.56-1-1.12-2.09-1.69-3.13l-5.83-10.71L518,242.65,512.4,232.4c-7.13-13.1-14.51-26.65-21.82-40-2.83-5.16-7.6-6.61-12.76-3.89-2.75,1.46-5.49,3-8.13,4.52-2.23,1.27-4.54,2.59-6.82,3.82q-9,4.84-18,9.64l-14.73,7.85c-5.93,3.19-7.29,7.66-4.17,13.67.85,1.63,1.75,3.24,2.62,4.8q.81,1.44,1.59,2.88l14,25.65q9,16.55,18,33.08l7.08,13c8.87,16.29,18,33.13,27,49.67a2.23,2.23,0,0,1-.22,1.31c-3.54,5.22-7.21,10.5-10.75,15.6-2.78,4-5.57,8-8.33,12.06-7.57,11.05-16.13,19.1-26.16,24.6-16.09,8.82-32.49,17.73-48.35,26.35l-26.85,14.6c-14.94,8.14-32.31,17.61-49.34,27a13.82,13.82,0,0,1-10.5,1.26,11.18,11.18,0,0,1-6.77-5.4c-3.47-6.46-1.27-13.49,5.35-17.09,13.54-7.35,27.93-15.17,42-22.94a9.65,9.65,0,0,0,4.78-5.69,8.65,8.65,0,0,0-.83-6.59c-2.57-4.62-7.69-5.87-12.74-3.11l-8,4.36q-27.63,15.07-55.28,30.12a34.1,34.1,0,0,1-6.92,3.13c-5.38,1.48-11.77-1.88-13.94-7.34-2.39-6,.24-12.31,6.54-15.73l12.6-6.83c17.38-9.42,35.35-19.17,53-28.86a12.74,12.74,0,0,0,5.24-5.78c1.46-3.29.48-6.85-2.54-9.3a8.83,8.83,0,0,0-10.35-.9c-3.47,1.83-7,3.74-10.33,5.6l-5.3,2.9-44.57,24.24q-5,2.7-10,5.44C250.42,424,243,428.07,235.74,432c-6.33,3.35-13,1.5-16.28-4.5C216,421.07,218,414,224.1,410.64c13.69-7.5,27.64-15.07,41.14-22.39l19.59-10.64,5-2.71c8.6-4.68,17.5-9.51,26.22-14.33,4.74-2.62,6.39-7.81,3.92-12.33-2.29-4.18-7.42-5.6-12.2-3.37-.78.37-1.52.77-2.23,1.17l-7.79,4.25-22.17,12.08L268,366.5q-13.37,7.29-26.72,14.62a13.7,13.7,0,0,1-10.45,1.42,11.58,11.58,0,0,1-7-5.71,12.6,12.6,0,0,1,5.58-17c6.79-3.31,13.46-7.07,19.92-10.71q3.28-1.86,6.57-3.69a9.78,9.78,0,0,0,4.9-5.88,8.28,8.28,0,0,0-.94-6.41c-2.8-4.72-7.67-5.94-12.71-3.18L239,334.44c-5.94,3.29-12.09,6.7-18.21,9.87a29.87,29.87,0,0,0-4.48,50.42c-10.1,7.7-11.27,9-13.65,14.28-3.65,8-3.92,15.56-.8,22.37,4.31,9.41,10.18,15.54,17.44,18.21s15.82,1.9,25.63-2.21c1.79,11.59,6.87,19.22,15.82,23.91,9.16,4.78,18.82,4.65,28.76-.4,0,0,0,.06,0,.1,1.45,10.85,7.48,19.66,16.53,24.19a29.28,29.28,0,0,0,13.1,3.08,33,33,0,0,0,16.16-4.39c8.42-4.73,17.07-9.42,25.43-13.95l9.69-5.26Q382,468.35,393.64,462c20.19-11,41.06-22.41,61.66-33.49,14.68-7.89,26.09-17.89,34.86-30.56,7.22-10.43,14.37-20.68,21.25-30.46a10.05,10.05,0,0,1,2.67-2.85c3.2-1.88,6.54-3.67,9.77-5.41l4-2.18,8.81-4.79c7.45-4.05,15.15-8.23,22.69-12.41,2.91-1.61,4.72-3.62,5.39-6S565,328.81,563.26,325.78ZM544.15,328l-33.61,18.29L445,226.22l34-18.13Z"/><path class="cls-2" d="M201.16,404.46a8.51,8.51,0,0,0,2.16-6.19,10.18,10.18,0,0,0-3.72-6.87l-3.2-2.75c-7.62-6.57-15.5-13.36-23.32-20a2,2,0,0,1-.8-2.67c1-3.76,2-7.61,2.85-11.33.45-1.88.9-3.75,1.37-5.63l6.86-27.61c7.48-30,15.21-61.11,22.76-91.68.36-1.43.62-1.61,1.7-1.84,10.34-2.13,21.57-4.55,34.31-7.38a74.58,74.58,0,0,1,35.23.3C289.56,223.93,302,227,314,230l16.34,4,15.88,3.92c13.59,3.36,27.65,6.83,41.46,10.33a11.82,11.82,0,0,1,7.36,5.54,12.23,12.23,0,0,1-13.75,17.92q-11.43-2.88-22.87-5.74l-15.53-3.86-20.18-5c-8.3-2.07-11.21,1.07-13.67,7.58-2,5.34-4.38,10.91-7.87,15.47-11,14.33-25.7,20.45-43.78,18.18A98,98,0,0,1,246.09,296c-2.54-.64-5.17-1.3-7.8-1.81-5.07-1-9.12,1.65-10.3,6.72a8.69,8.69,0,0,0,1.1,6.56,8.38,8.38,0,0,0,5.32,3.74c2.08.46,4.16.95,6.25,1.45,6.6,1.58,13.42,3.21,20.29,3.64,20,1.27,37.66-6.11,51-21.35a107.24,107.24,0,0,0,9.51-13.43c1.15-1.79,2.32-3.64,3.54-5.48l12.27,3c11.77,2.91,23.93,5.92,36,9,5.11,1.31,11.18,2.47,17.48,1.13,13.93-3,23.46-14.75,23.7-29.34.23-13.4-9.43-25.58-22.95-29l-24.88-6.21-32.44-8.11c-4.76-1.18-9.51-2.38-14.27-3.57-12.88-3.23-26.2-6.57-39.34-9.72A84.64,84.64,0,0,0,246,201.9c-8,1.41-16.08,3.24-23.88,5-4.26,1-8.66,2-13,2.89l-1.71.37c-4.65,1-9,2-13.78.64-10.85-3-22-5.77-32.72-8.41q-6-1.47-12.08-3c-3.82-.95-6.59-.8-8.72.48s-3.55,3.65-4.49,7.45q-1.87,7.54-3.77,15.07-1.71,6.87-3.43,13.74-9.41,37.92-18.82,75.86L99.42,353.25c-1,3.92-.83,6.61.45,8.74s3.6,3.5,7.52,4.47c15.58,3.84,31.69,7.81,47.9,11.86a8.63,8.63,0,0,1,3.24,1.35c8.66,7.28,17.4,14.75,25.85,22l3.67,3.14a10.35,10.35,0,0,0,6.68,2.71A8.49,8.49,0,0,0,201.16,404.46Zm-12.8-176.85L155.44,360l-37.19-9.22,32.88-132.46Z"/></svg>