<svg id="Layer_1" data-name="Layer 1" xmlns="http://www.w3.org/2000/svg" viewBox="0 0 639.51 639.51"><defs><style>.cls-1,.cls-2{fill:#fff;}.cls-1{opacity:0.18;}</style></defs><title>Insurance Icons2</title><circle class="cls-1" cx="319.76" cy="319.76" r="319.76"/><path class="cls-2" d="M258.66,143.19V143c.12-8.63,8.64-15.54,22.33-19.69,10.71-3.11,25.33-5.18,41.33-5.18s30.74,2.07,41.45,5.18c13.81,4.15,22.33,11.17,22.33,19.92V177.5a14.83,14.83,0,0,1-2.53,8.06A112.8,112.8,0,0,1,405,194.42c12.2,7,19.23,16,19.46,26.25V398.42h0v.12h0v69c0,13.7-12.55,25.21-33,32.92-17.85,6.68-42.25,10.83-69.08,10.83s-51.11-4.15-68.95-10.83c-20.5-7.71-33-19.22-33-32.92v-69h0v-.12h0V220.78c.11-10.36,7.25-19.34,19.45-26.36a113.08,113.08,0,0,1,21.41-8.86,13.73,13.73,0,0,1-2.53-7.72V143.19ZM368,199.26v10.36h0a7.16,7.16,0,0,1-.23,1.72c-.92,6.57-7.26,11.52-16.93,14.39-7.48,2.19-17.49,3.57-28.55,3.57a104.92,104.92,0,0,1-28.43-3.57c-9.67-2.87-16-7.82-16.92-14.39a6.69,6.69,0,0,1-.23-1.72h0V199.26c-11.52,2.53-21.3,6-28.32,10.13-6.91,3.91-10.83,7.94-10.83,11.62v39.61c.58,5.52,8.75,11.28,21.88,16.23,15.88,5.87,38.1,9.67,62.85,9.67s47.09-3.8,63-9.67c13.12-5,21.41-10.71,21.87-16.23V221c0-3.68-3.92-7.71-10.82-11.62-7-4.15-16.81-7.6-28.32-10.13ZM237.59,400.38v.23h0v.23c0,5.64,8.29,11.63,21.76,16.69,15.89,6,38.22,9.67,63,9.67s47.2-3.68,63.09-9.67c13.47-5.06,21.76-11,21.76-16.69v-.46a9.85,9.85,0,0,1-.23-2,10.81,10.81,0,0,1,.23-1.95V285.25A87.41,87.41,0,0,1,391.4,293c-17.85,6.68-42.25,10.82-69.08,10.82s-51.11-4.14-68.95-10.82a87.2,87.2,0,0,1-15.78-7.72V396.58a10.89,10.89,0,0,1,.12,3.34.83.83,0,0,0-.12.46Zm0,25.67v37.3a10.89,10.89,0,0,1,.12,3.34,1.8,1.8,0,0,0-.12.46h0v.35c0,5.75,8.29,11.74,21.76,16.81,15.89,6,38.22,9.67,63,9.67s47.2-3.69,63.09-9.67c13.47-5.07,21.76-11.06,21.76-16.81v-.35h0a9.66,9.66,0,0,1-.23-1.95,10.81,10.81,0,0,1,.23-2V426.05a87.39,87.39,0,0,1-15.77,7.6c-17.85,6.68-42.25,10.82-69.08,10.82s-51.11-4.14-68.95-10.82a87.17,87.17,0,0,1-15.78-7.6ZM284,180.38a9.37,9.37,0,0,1,3.11.23c.23.11.57.11.8.23a115.72,115.72,0,0,0,13.36,2.64h.8l.12.12h.8l.23.11h0c3.46.35,7.14.69,11.06.81h.34l.58.11h2.53l.23.12h8.86l.23-.12h2.54l.57-.11h.35c3.91-.12,7.6-.46,11.05-.81l.23-.11h.57l.47-.12h.34l.58-.11h.34a114.79,114.79,0,0,0,13-2.53c.23-.12.46-.12.58-.23a9.29,9.29,0,0,1,3.1-.23c5-1.5,8-2.54,8.06-2.88h0v-16c-1.61.58-3.22,1.16-5.06,1.73-10.71,3.11-25.33,5.18-41.45,5.18s-30.62-2.07-41.33-5.18c-1.84-.57-3.45-1.15-5.06-1.73v16c0,.23,3,1.38,8.06,2.88Zm66.77,20a179.09,179.09,0,0,1-28.44,2.3,178.72,178.72,0,0,1-28.32-2.3v9.21h0c.23.8,2-1.27,4.72-.46a99,99,0,0,0,47.32,0c2.76-.81,4.49,1.15,4.72.57v-9.32ZM309,323.13h26.82a8.62,8.62,0,0,1,8.64,8.64v11.05h11.05a8.69,8.69,0,0,1,8.63,8.63v26.83a8.62,8.62,0,0,1-8.63,8.63H344.43v11a8.55,8.55,0,0,1-8.64,8.64H309a8.55,8.55,0,0,1-8.63-8.64v-11H289.28a8.62,8.62,0,0,1-8.63-8.63V351.45a8.69,8.69,0,0,1,8.63-8.63h11.06V331.77a8.61,8.61,0,0,1,8.63-8.64Zm18.19,17.27H317.6v11.05a8.62,8.62,0,0,1-8.63,8.64H297.92v9.55H309a8.7,8.7,0,0,1,8.63,8.64v11.05h9.56V378.28a8.7,8.7,0,0,1,8.63-8.64h11v-9.55h-11a8.62,8.62,0,0,1-8.63-8.64Zm41.67-197.1v-.11h0c-.11-.23-3.91-1.5-10-3.34-9.1-2.76-22-4.49-36.5-4.49s-27.28,1.73-36.49,4.49c-6.1,1.84-9.9,3.11-9.9,3.34s3.8,1.61,9.9,3.45c9.21,2.77,22.1,4.49,36.49,4.49s27.4-1.72,36.5-4.49c6.1-1.84,9.9-3.1,10-3.34Z"/></svg>