<svg id="Layer_1" data-name="Layer 1" xmlns="http://www.w3.org/2000/svg" xmlns:xlink="http://www.w3.org/1999/xlink" viewBox="0 0 669.94 669.94"><defs><style>.cls-1{fill:url(#linear-gradient);}.cls-2{fill:#3c9950;}.cls-3{fill:#fff;}.cls-4{fill:url(#linear-gradient-2);}.cls-5{fill:url(#linear-gradient-3);}.cls-6{fill:url(#linear-gradient-4);}.cls-7{fill:url(#linear-gradient-5);}.cls-8{fill:url(#linear-gradient-6);}</style><linearGradient id="linear-gradient" x1="-627.97" y1="-686.24" x2="1277.22" y2="1337.2" gradientTransform="translate(346.38 -142.24) rotate(45)" gradientUnits="userSpaceOnUse"><stop offset="0.04" stop-color="#283c86"/><stop offset="1" stop-color="#45a247"/></linearGradient><linearGradient id="linear-gradient-2" x1="-73.09" y1="234.06" x2="404.87" y2="721.21" gradientTransform="matrix(1, 0, 0, 1, 0, 0)" xlink:href="#linear-gradient"/><linearGradient id="linear-gradient-3" x1="25.69" y1="137.14" x2="503.65" y2="624.29" gradientTransform="matrix(1, 0, 0, 1, 0, 0)" xlink:href="#linear-gradient"/><linearGradient id="linear-gradient-4" x1="-36.83" y1="198.49" x2="441.12" y2="685.64" gradientTransform="matrix(1, 0, 0, 1, 0, 0)" xlink:href="#linear-gradient"/><linearGradient id="linear-gradient-5" x1="187.63" y1="-21.74" x2="665.59" y2="465.41" gradientTransform="matrix(1, 0, 0, 1, 0, 0)" xlink:href="#linear-gradient"/><linearGradient id="linear-gradient-6" x1="152.01" y1="122.13" x2="519.67" y2="603.15" gradientTransform="matrix(1, 0, 0, 1, 0, 0)" xlink:href="#linear-gradient"/></defs><title>Insurance Icons2</title><circle class="cls-1" cx="344.89" cy="347" r="319.54" transform="translate(-144.35 345.51) rotate(-45)"/><circle class="cls-2" cx="324.89" cy="327" r="319.54"/><circle class="cls-3" cx="324.89" cy="327" r="319.54"/><path class="cls-4" d="M32.37,327l1.54-25.27A7.34,7.34,0,0,0,26.59,294h0a7.33,7.33,0,0,0-7.31,6.7Q18.16,313.72,18.15,327a310.71,310.71,0,0,0,3.48,46.42,7.28,7.28,0,0,0,8.11,6.2,7.12,7.12,0,0,0,6-8.14A292.54,292.54,0,0,1,32.37,327Z"/><path class="cls-5" d="M126.19,105.12h0A7.2,7.2,0,0,0,115,103.34q-3.54,3.31-7,6.77A304.57,304.57,0,0,0,24.19,266a7.15,7.15,0,0,0,5.52,8.39h0a7.15,7.15,0,0,0,8.48-5.59,292.4,292.4,0,0,1,86.63-155A7.17,7.17,0,0,0,126.19,105.12Z"/><path class="cls-6" d="M324.89,619.51C188.73,619.51,74,526,41.57,399.82a7.12,7.12,0,0,0-9.74-4.72l0,0a7.16,7.16,0,0,0-4.07,8.33A306.87,306.87,0,0,0,511.19,570.71a7.18,7.18,0,0,0,1.2-10.2h0a7.19,7.19,0,0,0-10-1.18A291,291,0,0,1,324.89,619.51Z"/><path class="cls-7" d="M631.62,327A306.86,306.86,0,0,0,159.25,68.72,7.22,7.22,0,0,0,157,78.58h0a7.2,7.2,0,0,0,10,2.24A290.82,290.82,0,0,1,328.44,34.51c160.58,1.91,290.15,134.12,289,294.71a291.73,291.73,0,0,1-92.71,211.21,7.17,7.17,0,0,0-.45,10h0a7.19,7.19,0,0,0,10.26.48q3.69-3.45,7.29-7.05A304.69,304.69,0,0,0,631.62,327Z"/><path class="cls-8" d="M263.06,161.94v-.23c.12-8.63,8.63-15.54,22.33-19.68,10.71-3.11,25.33-5.18,41.33-5.18s30.74,2.07,41.45,5.18c13.81,4.14,22.33,11.16,22.33,19.91v34.31a14.8,14.8,0,0,1-2.53,8.06,113.74,113.74,0,0,1,21.41,8.86c12.2,7,19.23,16,19.46,26.25V417.18h0v.11h0v69c0,13.7-12.55,25.21-33,32.93C378,525.86,353.55,530,326.72,530s-51.11-4.14-69-10.82c-20.49-7.72-33-19.23-33-32.93v-69h0v-.11h0V239.54c.12-10.36,7.26-19.34,19.46-26.37a113.74,113.74,0,0,1,21.41-8.86,13.72,13.72,0,0,1-2.53-7.71V161.94ZM372.43,218v10.36h0a7.25,7.25,0,0,1-.23,1.73c-.92,6.56-7.26,11.51-16.93,14.39-7.48,2.19-17.5,3.57-28.55,3.57a104.92,104.92,0,0,1-28.43-3.57c-9.67-2.88-16-7.83-16.93-14.39a7.25,7.25,0,0,1-.23-1.73h0V218c-11.51,2.53-21.29,6-28.32,10.13-6.9,3.92-10.82,7.94-10.82,11.63v39.6c.58,5.53,8.75,11.28,21.88,16.23,15.88,5.88,38.1,9.68,62.85,9.68s47.09-3.8,63-9.68c13.13-5,21.42-10.7,21.88-16.23v-39.6c0-3.69-3.92-7.71-10.82-11.63-7-4.14-16.81-7.6-28.32-10.13ZM242,419.13v.23h0v.23c0,5.65,8.29,11.63,21.76,16.7,15.89,6,38.22,9.67,63,9.67s47.2-3.69,63.09-9.67c13.47-5.07,21.76-11.05,21.76-16.7v-.46a9.66,9.66,0,0,1-.23-1.95,10.91,10.91,0,0,1,.23-2V304a87.41,87.41,0,0,1-15.77,7.71c-17.85,6.68-42.25,10.82-69.08,10.82s-51.11-4.14-69-10.82A87.41,87.41,0,0,1,242,304V415.34a10.81,10.81,0,0,1,.12,3.33.85.85,0,0,0-.12.46Zm0,25.68v37.3a10.88,10.88,0,0,1,.12,3.34,1.7,1.7,0,0,0-.12.46h0v.34c0,5.76,8.29,11.75,21.76,16.81,15.89,6,38.22,9.67,63,9.67s47.2-3.68,63.09-9.67c13.47-5.06,21.76-11.05,21.76-16.81v-.34h0a9.85,9.85,0,0,1-.23-2,10.91,10.91,0,0,1,.23-2V444.81a88.06,88.06,0,0,1-15.77,7.6c-17.85,6.67-42.25,10.82-69.08,10.82s-51.11-4.15-69-10.82a88.06,88.06,0,0,1-15.77-7.6Zm46.4-245.68a9.37,9.37,0,0,1,3.11.23c.23.12.57.12.8.23a113.53,113.53,0,0,0,13.36,2.65h.8l.12.11h.8l.23.12h0c3.46.34,7.14.69,11.05.8H319l.58.12h2.53l.23.11h8.86l.23-.11H334l.57-.12h.35c3.91-.11,7.59-.46,11.05-.8l.23-.12h.57l.46-.11h.35l.58-.12h.34a112.63,112.63,0,0,0,13-2.53c.23-.11.46-.11.58-.23a9.29,9.29,0,0,1,3.1-.23c4.95-1.5,7.95-2.53,8.06-2.88h0v-16c-1.61.57-3.22,1.15-5.06,1.73-10.71,3.1-25.33,5.18-41.45,5.18s-30.62-2.08-41.33-5.18c-1.84-.58-3.45-1.16-5.06-1.73v16c0,.23,3,1.38,8.06,2.88Zm66.77,20a176.24,176.24,0,0,1-56.76,0v9.21h0c.23.81,2-1.27,4.72-.46a87.75,87.75,0,0,0,23.6,2.88c9.44,0,17.85-1.15,23.72-2.88,2.76-.81,4.49,1.15,4.72.58v-9.33ZM313.37,341.89h26.82a8.62,8.62,0,0,1,8.64,8.63v11.05h11.05a8.7,8.7,0,0,1,8.63,8.64V397a8.61,8.61,0,0,1-8.63,8.63H348.83v11.06a8.55,8.55,0,0,1-8.64,8.63H313.37a8.55,8.55,0,0,1-8.64-8.63V405.66H293.68a8.61,8.61,0,0,1-8.63-8.63V370.21a8.7,8.7,0,0,1,8.63-8.64h11.05V350.52a8.62,8.62,0,0,1,8.64-8.63Zm18.19,17.26H322v11.06a8.62,8.62,0,0,1-8.63,8.63H302.32v9.56h11.05A8.69,8.69,0,0,1,322,397v11.05h9.56V397a8.69,8.69,0,0,1,8.63-8.63h11.05v-9.56H340.19a8.62,8.62,0,0,1-8.63-8.63Zm41.67-197.09v-.12h0c-.11-.23-3.91-1.49-10-3.33-9.1-2.77-22-4.49-36.5-4.49s-27.28,1.72-36.49,4.49c-6.1,1.84-9.9,3.1-9.9,3.33s3.8,1.62,9.9,3.46c9.21,2.76,22.1,4.49,36.49,4.49s27.4-1.73,36.5-4.49c6.1-1.84,9.9-3.11,10-3.34Z"/></svg>