<svg id="Layer_1" data-name="Layer 1" xmlns="http://www.w3.org/2000/svg" xmlns:xlink="http://www.w3.org/1999/xlink" viewBox="0 0 674 727"><defs><style>.cls-1,.cls-13,.cls-14,.cls-8{fill:none;}.cls-2{fill:#ededed;}.cls-3{clip-path:url(#clip-path);}.cls-4{fill:#e89b34;}.cls-5{fill:#fffff2;opacity:0.35;}.cls-6{fill:#e1b289;opacity:0.46;}.cls-7{fill:#383f50;}.cls-14,.cls-8{stroke:#383f50;}.cls-8{stroke-miterlimit:10;}.cls-9{clip-path:url(#clip-path-2);}.cls-10{fill:#fff;}.cls-11{fill:#f0ab39;}.cls-12{fill:#5262a7;}.cls-13{stroke:#375098;stroke-linecap:round;stroke-width:1.08px;}.cls-13,.cls-14{stroke-linejoin:round;}.cls-14{stroke-width:35px;}.cls-15{fill:#cecece;}</style><clipPath id="clip-path"><rect class="cls-1" x="136" y="207" width="385" height="196"/></clipPath><clipPath id="clip-path-2"><path class="cls-1" d="M150,525s129,2,169,24c0,0,93-26,192-24,91,1.84,149-233,149-233L553,153,347,40.1,82,86.1,37,461Z"/></clipPath></defs><title>LEZYSEM5</title><path class="cls-2" d="M547,397l-29-1,4,138c0,96.69-72.16,170-168.85,170H299.41c-96.69,0-175.35-78.66-175.35-175.35v-4.78L127,507l-3-30,.06-52.38V409.36H82.44l15.15-47.77L82.44,313.82h41.62V197.55c0-96.69,78.66-175.35,175.35-175.35h53.74c96.69,0,175.35,78.66,175.35,175.35V313.82h41l-15.14,47.77Z"/><g class="cls-3"><path class="cls-4" d="M-41.14,324.58s42.2-9.2,75.57-33.08,66.29,10.58,94.58,7.59,115.43-68.32,132.86-69.94,104.3,61.73,121,62.89,55.05-15.85,68.41-15.19,37.53,25.06,51.31,22.74,38.76-24.56,53.28-22.74,71.4,50,71.4,50v46H-41.14Z"/><path class="cls-5" d="M560.24,283c3.2,1.74,28.38,18.73,28.38,18.73l38.66,29.87v-4.79s-56.87-48.17-71.4-50-39.51,20.42-53.28,22.74-37.94-22.08-51.31-22.74S399.58,293.2,382.88,292s-103.57-64.5-121-62.89S157.29,296.1,129,299.09s-61.2-31.46-94.58-7.59-75.57,33.08-75.57,33.08v3.29c13.81-4.77,56.42-19.7,68.42-26.11,14.38-7.69,21.79-7.69,20.92-3.77s4.14,2.15,9.47-2,14.62,1.08,18.26,0-4.51-7.17,0-6.3,44.2,19.09,68.59,19.79,29.62,3.75,24.39.69-27.18-2-33.54-6.53,28.37-15.4,50.71-28,42.68-23.38,42.38-21.64-9.73,10.17-6.82,9.59,24.26-16.13,30.21-18,3.49,8.85,1.89,10.75,8-5.09,9.59-11,11-3,18,2.11-.44-3.09,1-3.87,34.57,17.53,45.46,23.05,40.39,26,45,27.45S365.59,300,350.48,296s10.46,9.39,29.06,8.52,0,8.42-11.33,9-9.88,5.23,7,7,53.16-2,48.22-4.94S379,313.25,397,309.18s21.21-6.1,11-5.52-13.95-4.07-2-5.52-4.35,0-10.16-.58,45.61-15.32,50.55-18,18.88,4.8,15.68,6.18-3.19,3.7,4.36,7.19-7-6.39,5.23-1.45,32.83,15.39,49.39,16.85,27.88,2.9,23,.87-23.24.56-33.7-7.42c0,0,26-11,32-17.57s.57,6.39,1.74,6.39,5.23-8.42,7-7.55,13.66,13.36,11.91,9.3S557,281.29,560.24,283Z"/><path class="cls-2" d="M-1.46,335.86S103.4,307.24,124.33,309s53.22,16.85,77.46,17.43,118.65-34.72,135.35-31.88S373,314.85,392.2,315.11s44.46-19.3,62-12.43,112.28,48.59,124.48,46.91,53.46-19.11,69.73-15.63,68.56,32,68.56,32H362l-377.38-11Z"/><path class="cls-6" d="M648.44,334c-16.27-3.48-57.53,14-69.73,15.63s-106.91-40-124.48-46.91-42.86,12.69-62,12.43-38.35-17.75-55.06-20.58S226,327,201.79,326.41,145.25,310.72,124.33,309-1.46,335.86-1.46,335.86l-1.37,1.87c13.83-3,58.5-12.7,76-18.29,20.86-6.65,45.9-9.59,54.47-6.68S176.89,330,219.9,333s61.32,3.59,58.12,2.43-41.87.29-66.83-7.27c0,0,77.29-18,89.78-22.37s19.18-9.32,17.14-5.67-42.41,17.59-36.6,17.29,44.16-16.56,41.25-12.2-21.5,20.63-15.39,18.89S326,305.49,328,308.69s-3.77,19.17,0,18.59,5.9-19.75,7.16-19.46,19,11.33,18.41,8.42-10.75-11.33-8.72-11,20.92,14.85,21.79,13.53-13.36-12.66-9.3-11.78,26.15,12.49,43.58,14.81,36.32,5.81,33.41,4.36-32-2.42-31.95-7.39S434,304,433.45,306.66s-8.71,7-3.78,5.81,10.17-7.56,17.73-7,86.86,34.87,95.58,37.19,20.92,5.81,18.88,6.68-29.92,4.07-23,5.23,66.53,3.49,59.27,1.16-20.92-3.19-13.37-5.52,43.29-11.62,50.26-11.33c5.93.25,58.6,20.83,74.32,27H717S664.71,337.45,648.44,334Z"/></g><polygon class="cls-7" points="238.05 372.27 200.47 372.27 205.93 290.76 232.6 290.76 238.05 372.27"/><polygon class="cls-7" points="219.26 271.87 200.26 292.98 238.27 292.98 219.26 271.87"/><path class="cls-7" d="M231.64,281.57l-5-5a4.28,4.28,0,0,1-.06-6L256.78,239a4.27,4.27,0,0,1,6.1-.07l6.34,6.34a4.27,4.27,0,0,1-.07,6.1l-31.53,30.24A4.28,4.28,0,0,1,231.64,281.57Z"/><path class="cls-7" d="M206.89,296.24l5,5a4.28,4.28,0,0,1,.06,6l-30.24,31.53a4.27,4.27,0,0,1-6.1.07l-6.34-6.34a4.28,4.28,0,0,1,.06-6.1l31.54-30.24A4.28,4.28,0,0,1,206.89,296.24Z"/><line class="cls-8" x1="251.02" y1="257.15" x2="194.23" y2="313.94"/><path class="cls-7" d="M226.6,301.28l5-5a4.28,4.28,0,0,1,6-.06l31.53,30.24a4.27,4.27,0,0,1,.07,6.1l-6.34,6.34a4.27,4.27,0,0,1-6.1-.07l-30.24-31.53A4.28,4.28,0,0,1,226.6,301.28Z"/><path class="cls-7" d="M211.93,276.53l-5,5a4.28,4.28,0,0,1-6,.06l-31.54-30.24a4.28,4.28,0,0,1-.06-6.1l6.34-6.34a4.27,4.27,0,0,1,6.1.07L212,270.55A4.28,4.28,0,0,1,211.93,276.53Z"/><line class="cls-8" x1="251.02" y1="320.66" x2="194.23" y2="263.87"/><path class="cls-7" d="M119.34,361.45s10.54-7.44,19.2-8.18,13,3.75,15.77,2.59,18.25-10.13,22-10.13,8.66,7.08,10.21,7.4,14.19-1.58,15.45.46a74.14,74.14,0,0,0,4.5,5.94l25.75,1.92s28.69-7.42,33.87-7.86,15.7-.32,15.7-.32,4.64-11.56,12.37-11.25,11.75,9.71,11.75,9.71,9.59-3.16,13.3.83l3.71,4s8.05,3,14.85,3,28.76,1.9,28.76,1.9L264.12,432.89,139.78,410.1Z"/><polygon class="cls-7" points="396.04 336.29 396.04 327.45 383.84 311.14 365.47 305.03 347.1 311.14 334.9 327.45 334.9 336.29 396.04 336.29"/><polygon class="cls-7" points="391.28 329.12 380.97 315.35 365.47 310.19 349.96 315.35 339.66 329.12 339.66 366.11 391.28 366.11 391.28 329.12"/><rect class="cls-7" x="339.66" y="352.39" width="51.62" height="13.72"/><path class="cls-7" d="M371.78,325.68a6.31,6.31,0,1,1-6.31-6.31A6.31,6.31,0,0,1,371.78,325.68Z"/><path class="cls-7" d="M365.47,327.68a6.29,6.29,0,0,1-5.91-4.16,6.47,6.47,0,0,0-.4,2.16,6.31,6.31,0,0,0,12.62,0,6.23,6.23,0,0,0-.41-2.16A6.29,6.29,0,0,1,365.47,327.68Z"/><rect class="cls-7" x="350.79" y="343.17" width="29.35" height="23.06"/><line class="cls-1" x1="351.2" y1="343.02" x2="379.73" y2="365.39"/><line class="cls-1" x1="379.73" y1="343.02" x2="351.2" y2="365.39"/><path class="cls-7" d="M384.59,356.21s40.36-10.55,50.11-7.77l9.74,2.78a16.91,16.91,0,0,0,18.32.34c10-5.9,15.55-10.59,20.65-6.39s11.6,11.85,14.38,11,8.85-7.7,11.6-1.82,10.11,55.54,10.11,55.54L412,423.38s-44.31-51.55-40.18-55.27S384.59,356.21,384.59,356.21Z"/><line class="cls-8" x1="431.87" y1="316.71" x2="427.3" y2="359.91"/><path class="cls-7" d="M426.54,343.92c1.5,1.86,1.67,7.38,1.67,7.38s-5.36-1.33-6.86-3.19-2.29-8.13-2.29-8.13S425,342.05,426.54,343.92Z"/><path class="cls-7" d="M435.59,349.62c-1.86,1.51-7.38,1.68-7.38,1.68s1.33-5.37,3.19-6.87,8.13-2.28,8.13-2.28S437.46,348.12,435.59,349.62Z"/><path class="cls-7" d="M421.65,345.22a14,14,0,0,1-1.74-4.92l-.85-.32s.78,6.27,2.29,8.13,6.86,3.19,6.86,3.19a29.43,29.43,0,0,0-.28-3.06C426.5,347.84,422.85,346.7,421.65,345.22Z"/><path class="cls-7" d="M435.9,346.73c-1.48,1.2-5.29,1.55-6.77,1.64a29.58,29.58,0,0,0-.92,2.93s5.52-.17,7.38-1.68,3.94-7.47,3.94-7.47-.35,0-.9.13A13.82,13.82,0,0,1,435.9,346.73Z"/><path class="cls-7" d="M427.6,336.85c1.31,1.63,1.46,6.44,1.46,6.44s-4.67-1.16-6-2.78-2-7.08-2-7.08S426.29,335.23,427.6,336.85Z"/><path class="cls-7" d="M435.49,341.83c-1.62,1.31-6.43,1.46-6.43,1.46s1.15-4.68,2.77-6,7.09-2,7.09-2S437.11,340.52,435.49,341.83Z"/><path class="cls-7" d="M423.37,337.74a11.33,11.33,0,0,1-1.45-4l-.83-.3s.68,5.46,2,7.08,6,2.78,6,2.78a25.17,25.17,0,0,0-.29-2.94C427.48,340,424.4,339,423.37,337.74Z"/><path class="cls-7" d="M435.79,339.05c-1.27,1-4.49,1.34-5.83,1.43a26.94,26.94,0,0,0-.9,2.81s4.81-.15,6.43-1.46,3.43-6.52,3.43-6.52l-.88.13A11.22,11.22,0,0,1,435.79,339.05Z"/><path class="cls-7" d="M428.66,330.92c1,1.3,1.17,5.13,1.17,5.13s-3.73-.92-4.77-2.21-1.59-5.65-1.59-5.65S427.62,329.63,428.66,330.92Z"/><path class="cls-7" d="M435,334.89c-1.29,1-5.12,1.16-5.12,1.16s.91-3.72,2.21-4.77,5.64-1.58,5.64-1.58S436.25,333.84,435,334.89Z"/><path class="cls-7" d="M425.27,331.78a9.24,9.24,0,0,1-1.19-3.36l-.61-.23s.54,4.36,1.59,5.65,4.77,2.21,4.77,2.21,0-1-.21-2.17C428.62,333.6,426.1,332.81,425.27,331.78Z"/><path class="cls-7" d="M435.17,332.83c-1,.83-3.65,1.08-4.69,1.14a21,21,0,0,0-.65,2.08s3.83-.12,5.12-1.16,2.73-5.19,2.73-5.19l-.64.09A9.23,9.23,0,0,1,435.17,332.83Z"/><path class="cls-7" d="M429.52,326c.84,1.05.94,4.13.94,4.13s-3-.74-3.85-1.78-1.27-4.55-1.27-4.55S428.68,324.92,429.52,326Z"/><path class="cls-7" d="M434.59,329.16c-1,.84-4.13.93-4.13.93s.74-3,1.78-3.84,4.54-1.27,4.54-1.27S435.63,328.31,434.59,329.16Z"/><path class="cls-7" d="M426.77,326.84a8,8,0,0,1-1-2.92l-.43-.16s.43,3.51,1.27,4.55,3.85,1.78,3.85,1.78,0-.7-.14-1.55C429.54,328.32,427.45,327.68,426.77,326.84Z"/><path class="cls-7" d="M434.74,327.68c-.84.68-3,.87-3.82.92-.29.81-.46,1.49-.46,1.49s3.08-.09,4.13-.93,2.19-4.18,2.19-4.18l-.45.06A8.05,8.05,0,0,1,434.74,327.68Z"/><path class="cls-7" d="M430.19,321.84c.7.87.78,3.44.78,3.44s-2.5-.62-3.2-1.49S426.7,320,426.7,320,429.48,321,430.19,321.84Z"/><path class="cls-7" d="M434.4,324.5c-.86.7-3.43.78-3.43.78s.61-2.5,1.48-3.2,3.79-1.06,3.79-1.06S435.27,323.8,434.4,324.5Z"/><path class="cls-7" d="M428,321.82a4.61,4.61,0,0,1-.65-1.58l-.63-.23s.37,2.92,1.07,3.78,3.2,1.49,3.2,1.49a13.82,13.82,0,0,0-.26-2.11A6.55,6.55,0,0,1,428,321.82Z"/><path class="cls-7" d="M434.61,322.52a6.62,6.62,0,0,1-2.95.75,12.9,12.9,0,0,0-.69,2s2.57-.08,3.43-.78,1.84-3.48,1.84-3.48l-.67.09A4.42,4.42,0,0,1,434.61,322.52Z"/><line class="cls-8" x1="495" y1="332.5" x2="491.57" y2="364.88"/><path class="cls-7" d="M491,352.9c1.12,1.39,1.25,5.53,1.25,5.53s-4-1-5.15-2.39-1.71-6.09-1.71-6.09S489.87,351.5,491,352.9Z"/><path class="cls-7" d="M497.79,357.17c-1.4,1.13-5.54,1.26-5.54,1.26s1-4,2.39-5.15,6.09-1.71,6.09-1.71S499.18,356.05,497.79,357.17Z"/><path class="cls-7" d="M487.33,353.87a10.27,10.27,0,0,1-1.3-3.69l-.64-.23s.59,4.7,1.71,6.09,5.15,2.39,5.15,2.39a22,22,0,0,0-.21-2.29C491,355.84,488.23,355,487.33,353.87Z"/><path class="cls-7" d="M498,355c-1.12.9-4,1.17-5.08,1.24-.43,1.16-.69,2.19-.69,2.19s4.14-.13,5.54-1.26,2.94-5.6,2.94-5.6l-.67.1A10.35,10.35,0,0,1,498,355Z"/><path class="cls-7" d="M491.79,347.6c1,1.22,1.1,4.83,1.1,4.83s-3.5-.87-4.49-2.08-1.49-5.31-1.49-5.31S490.81,346.39,491.79,347.6Z"/><path class="cls-7" d="M497.71,351.33c-1.22,1-4.82,1.1-4.82,1.1s.86-3.51,2.08-4.49,5.31-1.49,5.31-1.49S498.93,350.35,497.71,351.33Z"/><path class="cls-7" d="M488.62,348.26a8.44,8.44,0,0,1-1.09-3l-.62-.22s.51,4.09,1.49,5.31,4.49,2.08,4.49,2.08a21.29,21.29,0,0,0-.22-2.2C491.7,350,489.39,349.22,488.62,348.26Z"/><path class="cls-7" d="M497.93,349.25c-.95.77-3.37,1-4.37,1.07a19.6,19.6,0,0,0-.67,2.11s3.6-.12,4.82-1.1,2.57-4.88,2.57-4.88l-.66.09A8.37,8.37,0,0,1,497.93,349.25Z"/><path class="cls-7" d="M492.59,343.16c.78,1,.87,3.84.87,3.84s-2.79-.69-3.57-1.66-1.19-4.23-1.19-4.23S491.81,342.19,492.59,343.16Z"/><path class="cls-7" d="M497.31,346.13c-1,.78-3.85.87-3.85.87s.69-2.79,1.66-3.57,4.23-1.19,4.23-1.19S498.27,345.35,497.31,346.13Z"/><path class="cls-7" d="M490.05,343.8a7,7,0,0,1-.9-2.52l-.45-.17s.4,3.27,1.19,4.23,3.57,1.66,3.57,1.66a14.79,14.79,0,0,0-.15-1.62C492.56,345.16,490.67,344.57,490.05,343.8Z"/><path class="cls-7" d="M497.47,344.59c-.77.62-2.74.8-3.52.85a15.84,15.84,0,0,0-.49,1.56s2.88-.09,3.85-.87,2-3.89,2-3.89l-.48.07A7.09,7.09,0,0,1,497.47,344.59Z"/><path class="cls-7" d="M493.23,339.44c.63.78.7,3.1.7,3.1s-2.24-.56-2.87-1.34-1-3.41-1-3.41S492.6,338.66,493.23,339.44Z"/><path class="cls-7" d="M497,341.83c-.78.63-3.1.71-3.1.71s.56-2.25,1.34-2.88,3.41-1,3.41-1S497.81,341.2,497,341.83Z"/><path class="cls-7" d="M491.17,340.09a6,6,0,0,1-.75-2.18l-.32-.12s.32,2.63,1,3.41,2.87,1.34,2.87,1.34a10.86,10.86,0,0,0-.1-1.17A6.35,6.35,0,0,1,491.17,340.09Z"/><path class="cls-7" d="M497.15,340.73a6.53,6.53,0,0,1-2.87.69c-.22.6-.35,1.12-.35,1.12s2.32-.08,3.1-.71,1.65-3.13,1.65-3.13l-.34.05A6.21,6.21,0,0,1,497.15,340.73Z"/><path class="cls-7" d="M493.73,336.35a6.07,6.07,0,0,1,.59,2.58,6.13,6.13,0,0,1-2.4-1.12,8.43,8.43,0,0,1-.8-2.84A8.5,8.5,0,0,1,493.73,336.35Z"/><path class="cls-7" d="M496.89,338.34a6,6,0,0,1-2.57.59,6.07,6.07,0,0,1,1.11-2.4,8.43,8.43,0,0,1,2.84-.8A8.61,8.61,0,0,1,496.89,338.34Z"/><path class="cls-7" d="M492.08,336.33a3.46,3.46,0,0,1-.49-1.18l-.47-.18a8.43,8.43,0,0,0,.8,2.84,6.13,6.13,0,0,0,2.4,1.12,10.62,10.62,0,0,0-.19-1.58A4.89,4.89,0,0,1,492.08,336.33Z"/><path class="cls-7" d="M497.05,336.86a4.93,4.93,0,0,1-2.22.56,9.32,9.32,0,0,0-.51,1.51,6,6,0,0,0,2.57-.59,8.61,8.61,0,0,0,1.38-2.61l-.5.07A3.47,3.47,0,0,1,497.05,336.86Z"/><line class="cls-8" x1="447.43" y1="330.81" x2="444.01" y2="363.19"/><path class="cls-7" d="M443.43,351.21c1.13,1.39,1.26,5.53,1.26,5.53s-4-1-5.15-2.39-1.71-6.09-1.71-6.09S442.31,349.81,443.43,351.21Z"/><path class="cls-7" d="M450.22,355.48c-1.39,1.13-5.53,1.26-5.53,1.26s1-4,2.39-5.15,6.09-1.71,6.09-1.71S451.62,354.36,450.22,355.48Z"/><path class="cls-7" d="M439.77,352.18a10.34,10.34,0,0,1-1.3-3.69l-.64-.23s.58,4.7,1.71,6.09,5.15,2.39,5.15,2.39a22,22,0,0,0-.21-2.29C443.41,354.15,440.67,353.3,439.77,352.18Z"/><path class="cls-7" d="M450.45,353.31c-1.11.9-4,1.17-5.07,1.24-.43,1.16-.69,2.19-.69,2.19s4.14-.13,5.53-1.26,2.95-5.6,2.95-5.6l-.67.1A10.3,10.3,0,0,1,450.45,353.31Z"/><path class="cls-7" d="M444.23,345.91c1,1.22,1.1,4.82,1.1,4.82s-3.51-.86-4.49-2.08-1.49-5.31-1.49-5.31S443.25,344.7,444.23,345.91Z"/><path class="cls-7" d="M450.15,349.64c-1.22,1-4.82,1.09-4.82,1.09s.86-3.5,2.08-4.48,5.31-1.49,5.31-1.49S451.36,348.66,450.15,349.64Z"/><path class="cls-7" d="M441.06,346.57a8.32,8.32,0,0,1-1.09-3l-.62-.23s.51,4.1,1.49,5.31,4.49,2.08,4.49,2.08a21.56,21.56,0,0,0-.22-2.2C444.14,348.26,441.83,347.53,441.06,346.57Z"/><path class="cls-7" d="M450.37,347.56c-.95.77-3.37,1-4.37,1.07a19.85,19.85,0,0,0-.67,2.1s3.6-.11,4.82-1.09,2.57-4.88,2.57-4.88l-.66.09A8.37,8.37,0,0,1,450.37,347.56Z"/><path class="cls-7" d="M445,341.47c.78,1,.87,3.84.87,3.84s-2.79-.69-3.58-1.66-1.18-4.23-1.18-4.23S444.24,340.5,445,341.47Z"/><path class="cls-7" d="M449.74,344.44c-1,.78-3.84.87-3.84.87s.69-2.79,1.66-3.57,4.23-1.19,4.23-1.19S450.71,343.65,449.74,344.44Z"/><path class="cls-7" d="M442.49,342.11a7,7,0,0,1-.9-2.52l-.45-.17s.4,3.26,1.18,4.23,3.58,1.66,3.58,1.66a15.06,15.06,0,0,0-.15-1.63C445,343.47,443.11,342.88,442.49,342.11Z"/><path class="cls-7" d="M449.91,342.9c-.77.62-2.74.8-3.52.85a15,15,0,0,0-.49,1.56s2.88-.09,3.84-.87,2.05-3.89,2.05-3.89l-.48.07A7.09,7.09,0,0,1,449.91,342.9Z"/><path class="cls-7" d="M445.67,337.75c.63.78.7,3.09.7,3.09s-2.25-.55-2.88-1.33-.95-3.41-.95-3.41S445,337,445.67,337.75Z"/><path class="cls-7" d="M449.47,340.14c-.78.63-3.1.7-3.1.7s.56-2.24,1.34-2.88,3.41-.95,3.41-.95S450.25,339.51,449.47,340.14Z"/><path class="cls-7" d="M443.61,338.4a6.1,6.1,0,0,1-.75-2.18l-.32-.12s.32,2.63.95,3.41,2.88,1.33,2.88,1.33a10.78,10.78,0,0,0-.1-1.16A6.48,6.48,0,0,1,443.61,338.4Z"/><path class="cls-7" d="M449.59,339a6.44,6.44,0,0,1-2.87.7c-.22.6-.35,1.11-.35,1.11s2.32-.07,3.1-.7,1.65-3.13,1.65-3.13l-.34.05A6,6,0,0,1,449.59,339Z"/><path class="cls-7" d="M446.17,334.66a6,6,0,0,1,.58,2.57,6,6,0,0,1-2.39-1.11,8.43,8.43,0,0,1-.8-2.84A8.61,8.61,0,0,1,446.17,334.66Z"/><path class="cls-7" d="M449.33,336.65a6.18,6.18,0,0,1-2.58.58,6.1,6.1,0,0,1,1.12-2.39,8.43,8.43,0,0,1,2.84-.8A8.61,8.61,0,0,1,449.33,336.65Z"/><path class="cls-7" d="M444.51,334.64a3.68,3.68,0,0,1-.48-1.18l-.47-.18a8.43,8.43,0,0,0,.8,2.84,6,6,0,0,0,2.39,1.11,9.22,9.22,0,0,0-.19-1.57A5,5,0,0,1,444.51,334.64Z"/><path class="cls-7" d="M449.49,335.17a5,5,0,0,1-2.22.56,10,10,0,0,0-.52,1.5,6.18,6.18,0,0,0,2.58-.58,8.61,8.61,0,0,0,1.38-2.61l-.5.07A3.47,3.47,0,0,1,449.49,335.17Z"/><line class="cls-8" x1="306.49" y1="324.43" x2="303.06" y2="356.81"/><path class="cls-7" d="M302.49,344.82c1.13,1.4,1.25,5.53,1.25,5.53s-4-1-5.14-2.38-1.71-6.1-1.71-6.1S301.36,343.43,302.49,344.82Z"/><path class="cls-7" d="M309.28,349.1c-1.4,1.13-5.54,1.25-5.54,1.25s1-4,2.39-5.14,6.1-1.71,6.1-1.71S310.67,348,309.28,349.1Z"/><path class="cls-7" d="M298.83,345.8a10.14,10.14,0,0,1-1.31-3.69l-.63-.24s.58,4.7,1.71,6.1,5.14,2.38,5.14,2.38a21.74,21.74,0,0,0-.21-2.28C302.46,347.76,299.73,346.91,298.83,345.8Z"/><path class="cls-7" d="M309.51,346.93c-1.11.9-4,1.16-5.08,1.23-.43,1.16-.69,2.19-.69,2.19s4.14-.12,5.54-1.25,3-5.6,3-5.6l-.68.09A10.07,10.07,0,0,1,309.51,346.93Z"/><path class="cls-7" d="M303.29,339.53c1,1.21,1.09,4.82,1.09,4.82s-3.5-.86-4.49-2.08S298.4,337,298.4,337,302.3,338.31,303.29,339.53Z"/><path class="cls-7" d="M309.2,343.25c-1.21,1-4.82,1.1-4.82,1.1s.86-3.5,2.08-4.49,5.31-1.49,5.31-1.49S310.42,342.27,309.2,343.25Z"/><path class="cls-7" d="M300.11,340.19a8.33,8.33,0,0,1-1.08-3c-.38-.15-.63-.23-.63-.23s.51,4.09,1.49,5.31,4.49,2.08,4.49,2.08a18.45,18.45,0,0,0-.22-2.2C303.2,341.87,300.88,341.14,300.11,340.19Z"/><path class="cls-7" d="M309.42,341.17c-.95.77-3.36,1-4.37,1.07a19.6,19.6,0,0,0-.67,2.11s3.61-.11,4.82-1.1,2.57-4.88,2.57-4.88l-.66.1A8.2,8.2,0,0,1,309.42,341.17Z"/><path class="cls-7" d="M304.08,335.08c.78,1,.87,3.85.87,3.85s-2.79-.69-3.57-1.66-1.19-4.24-1.19-4.24S303.3,334.11,304.08,335.08Z"/><path class="cls-7" d="M308.8,338.05c-1,.79-3.85.88-3.85.88s.69-2.8,1.66-3.58,4.23-1.19,4.23-1.19S309.77,337.27,308.8,338.05Z"/><path class="cls-7" d="M301.54,335.73a7.08,7.08,0,0,1-.9-2.53l-.45-.17s.4,3.27,1.19,4.24,3.57,1.66,3.57,1.66a15.06,15.06,0,0,0-.15-1.63C304.05,337.09,302.16,336.5,301.54,335.73Z"/><path class="cls-7" d="M309,336.51c-.77.62-2.74.81-3.52.86-.3.82-.49,1.56-.49,1.56s2.88-.09,3.85-.88,2-3.89,2-3.89l-.47.07A7.15,7.15,0,0,1,309,336.51Z"/><path class="cls-7" d="M304.72,331.36c.63.78.71,3.1.71,3.1s-2.25-.56-2.88-1.34-1-3.41-1-3.41S304.09,330.58,304.72,331.36Z"/><path class="cls-7" d="M308.52,333.76c-.78.63-3.09.7-3.09.7s.55-2.25,1.33-2.88,3.41-1,3.41-1S309.3,333.13,308.52,333.76Z"/><path class="cls-7" d="M302.66,332a6.16,6.16,0,0,1-.75-2.19l-.32-.12s.33,2.63,1,3.41,2.88,1.34,2.88,1.34,0-.53-.11-1.17A6.45,6.45,0,0,1,302.66,332Z"/><path class="cls-7" d="M308.64,332.65a6.53,6.53,0,0,1-2.87.69,11.35,11.35,0,0,0-.34,1.12s2.31-.07,3.09-.7,1.65-3.14,1.65-3.14l-.34.05A6,6,0,0,1,308.64,332.65Z"/><path class="cls-7" d="M305.22,328.27a6.07,6.07,0,0,1,.59,2.58,6.13,6.13,0,0,1-2.4-1.11,8.43,8.43,0,0,1-.8-2.84A8.42,8.42,0,0,1,305.22,328.27Z"/><path class="cls-7" d="M308.39,330.26a6.07,6.07,0,0,1-2.58.59,6.13,6.13,0,0,1,1.11-2.4,8.67,8.67,0,0,1,2.84-.8A8.42,8.42,0,0,1,308.39,330.26Z"/><path class="cls-7" d="M303.57,328.26a3.61,3.61,0,0,1-.49-1.19l-.47-.17a8.43,8.43,0,0,0,.8,2.84,6.13,6.13,0,0,0,2.4,1.11,10.62,10.62,0,0,0-.19-1.58A5,5,0,0,1,303.57,328.26Z"/><path class="cls-7" d="M308.54,328.78a4.93,4.93,0,0,1-2.21.57,10,10,0,0,0-.52,1.5,6.07,6.07,0,0,0,2.58-.59,8.42,8.42,0,0,0,1.37-2.61l-.5.08A3.24,3.24,0,0,1,308.54,328.78Z"/><line class="cls-8" x1="144.88" y1="334.26" x2="150.56" y2="366.33"/><path class="cls-7" d="M146.69,355c1.47,1,2.74,5,2.74,5s-4.14.16-5.61-.87-3.33-5.38-3.33-5.38S145.22,353.94,146.69,355Z"/><path class="cls-7" d="M154.4,357.19c-1,1.47-5,2.75-5,2.75s-.16-4.14.86-5.61,5.39-3.34,5.39-3.34S155.42,355.72,154.4,357.19Z"/><path class="cls-7" d="M143.44,356.92a10.3,10.3,0,0,1-2.28-3.18l-.67-.05s1.86,4.35,3.33,5.38,5.61.87,5.61.87-.33-1-.84-2.14C147.48,357.8,144.61,357.74,143.44,356.92Z"/><path class="cls-7" d="M154,355.05c-.82,1.17-3.49,2.21-4.54,2.59-.09,1.23,0,2.3,0,2.3s3.94-1.28,5-2.75,1.28-6.2,1.28-6.2l-.62.28A10.29,10.29,0,0,1,154,355.05Z"/><path class="cls-7" d="M146,349.66c1.28.9,2.38,4.33,2.38,4.33s-3.6.14-4.88-.76-2.91-4.68-2.91-4.68S144.7,348.76,146,349.66Z"/><path class="cls-7" d="M152.7,351.6c-.89,1.28-4.33,2.39-4.33,2.39s-.14-3.61.76-4.89,4.69-2.9,4.69-2.9S153.6,350.32,152.7,351.6Z"/><path class="cls-7" d="M143.12,351.17a8.31,8.31,0,0,1-1.88-2.58l-.66,0s1.63,3.79,2.91,4.68,4.88.76,4.88.76a19.61,19.61,0,0,0-.81-2.05C146.55,351.94,144.13,351.88,143.12,351.17Z"/><path class="cls-7" d="M152.34,349.54c-.7,1-3,1.9-3.9,2.24a18.81,18.81,0,0,0-.07,2.21s3.44-1.11,4.33-2.39,1.12-5.4,1.12-5.4l-.61.27A8.33,8.33,0,0,1,152.34,349.54Z"/><path class="cls-7" d="M145.52,345.17c1,.71,1.9,3.45,1.9,3.45s-2.87.11-3.89-.6-2.32-3.74-2.32-3.74S144.5,344.45,145.52,345.17Z"/><path class="cls-7" d="M150.87,346.72c-.71,1-3.45,1.9-3.45,1.9s-.11-2.87.6-3.9,3.74-2.31,3.74-2.31S151.59,345.69,150.87,346.72Z"/><path class="cls-7" d="M143.26,346.49a7,7,0,0,1-1.57-2.18l-.48,0s1.29,3,2.32,3.74,3.89.6,3.89.6a14.79,14.79,0,0,0-.6-1.52C146,347.1,144.07,347.06,143.26,346.49Z"/><path class="cls-7" d="M150.6,345.19c-.57.81-2.41,1.53-3.14,1.8a15.31,15.31,0,0,0,0,1.63s2.74-.88,3.45-1.9.89-4.31.89-4.31l-.44.2A7,7,0,0,1,150.6,345.19Z"/><path class="cls-7" d="M145.1,341.42c.83.57,1.54,2.78,1.54,2.78s-2.32.09-3.14-.49-1.86-3-1.86-3S144.28,340.84,145.1,341.42Z"/><path class="cls-7" d="M149.42,342.66c-.58.83-2.78,1.54-2.78,1.54s-.09-2.32.48-3.14,3-1.86,3-1.86S150,341.84,149.42,342.66Z"/><path class="cls-7" d="M143.31,342.62a5.91,5.91,0,0,1-1.33-1.89l-.34,0s1,2.44,1.86,3,3.14.49,3.14.49-.17-.51-.42-1.09A6.6,6.6,0,0,1,143.31,342.62Z"/><path class="cls-7" d="M149.22,341.57a6.45,6.45,0,0,1-2.56,1.46c0,.64,0,1.17,0,1.17s2.2-.71,2.78-1.54.71-3.46.71-3.46l-.31.13A6.06,6.06,0,0,1,149.22,341.57Z"/><path class="cls-7" d="M144.73,338.31a6.14,6.14,0,0,1,1.27,2.31,6.07,6.07,0,0,1-2.61-.4,8.62,8.62,0,0,1-1.55-2.51A8.53,8.53,0,0,1,144.73,338.31Z"/><path class="cls-7" d="M148.32,339.34a6.08,6.08,0,0,1-2.32,1.28,6.1,6.1,0,0,1,.41-2.61,8.38,8.38,0,0,1,2.5-1.55A8.37,8.37,0,0,1,148.32,339.34Z"/><path class="cls-7" d="M143.13,338.75a3.31,3.31,0,0,1-.79-1l-.5,0a8.62,8.62,0,0,0,1.55,2.51,6.07,6.07,0,0,0,2.61.4,9.75,9.75,0,0,0-.62-1.46A4.9,4.9,0,0,1,143.13,338.75Z"/><path class="cls-7" d="M148.06,337.88a5,5,0,0,1-2,1.16,10.16,10.16,0,0,0-.08,1.58,6.08,6.08,0,0,0,2.32-1.28,8.37,8.37,0,0,0,.59-2.88l-.45.21A3.49,3.49,0,0,1,148.06,337.88Z"/><line class="cls-8" x1="112.68" y1="340.5" x2="118.36" y2="372.56"/><path class="cls-7" d="M114.49,361.21c1.47,1,2.74,5,2.74,5s-4.14.17-5.61-.86-3.33-5.38-3.33-5.38S113,360.18,114.49,361.21Z"/><path class="cls-7" d="M122.2,363.43c-1,1.47-5,2.74-5,2.74s-.16-4.13.87-5.6,5.38-3.34,5.38-3.34S123.23,362,122.2,363.43Z"/><path class="cls-7" d="M111.24,363.16A10.13,10.13,0,0,1,109,360l-.68-.05s1.86,4.35,3.33,5.38,5.61.86,5.61.86-.33-1-.84-2.14C115.28,364,112.41,364,111.24,363.16Z"/><path class="cls-7" d="M121.82,361.28c-.82,1.18-3.49,2.22-4.54,2.6-.09,1.23,0,2.29,0,2.29s3.94-1.27,5-2.74,1.28-6.2,1.28-6.2l-.62.28A10.17,10.17,0,0,1,121.82,361.28Z"/><path class="cls-7" d="M113.79,355.9c1.28.89,2.39,4.33,2.39,4.33s-3.61.14-4.89-.76-2.9-4.68-2.9-4.68S112.51,355,113.79,355.9Z"/><path class="cls-7" d="M120.51,357.84c-.9,1.28-4.33,2.39-4.33,2.39s-.14-3.61.75-4.89,4.69-2.9,4.69-2.9S121.4,356.56,120.51,357.84Z"/><path class="cls-7" d="M110.92,357.41a8.15,8.15,0,0,1-1.87-2.58l-.66,0s1.62,3.79,2.9,4.68,4.89.76,4.89.76a21.9,21.9,0,0,0-.82-2.06C114.35,358.18,111.93,358.11,110.92,357.41Z"/><path class="cls-7" d="M120.14,355.78c-.7,1-3,1.9-3.9,2.24a20.11,20.11,0,0,0-.06,2.21s3.43-1.11,4.33-2.39,1.11-5.4,1.11-5.4l-.6.27A8.51,8.51,0,0,1,120.14,355.78Z"/><path class="cls-7" d="M113.32,351.41c1,.71,1.9,3.45,1.9,3.45s-2.87.11-3.89-.6-2.32-3.74-2.32-3.74S112.3,350.69,113.32,351.41Z"/><path class="cls-7" d="M118.67,353c-.71,1-3.45,1.91-3.45,1.91s-.11-2.88.61-3.9,3.73-2.31,3.73-2.31S119.39,351.93,118.67,353Z"/><path class="cls-7" d="M111.06,352.73a6.88,6.88,0,0,1-1.56-2.18l-.49,0s1.3,3,2.32,3.74,3.89.6,3.89.6a16.11,16.11,0,0,0-.59-1.52C113.85,353.34,111.87,353.3,111.06,352.73Z"/><path class="cls-7" d="M118.4,351.43c-.56.81-2.4,1.53-3.14,1.79a15.5,15.5,0,0,0,0,1.64S118,354,118.67,353s.89-4.3.89-4.3l-.44.2A6.84,6.84,0,0,1,118.4,351.43Z"/><path class="cls-7" d="M112.91,347.66c.82.57,1.53,2.78,1.53,2.78s-2.31.09-3.14-.49-1.86-3-1.86-3S112.08,347.08,112.91,347.66Z"/><path class="cls-7" d="M117.22,348.9c-.58.83-2.78,1.54-2.78,1.54s-.09-2.32.48-3.14,3-1.87,3-1.87S117.79,348.08,117.22,348.9Z"/><path class="cls-7" d="M111.11,348.86a6,6,0,0,1-1.33-1.89l-.34,0s1,2.44,1.86,3,3.14.49,3.14.49a11.14,11.14,0,0,0-.42-1.09A6.6,6.6,0,0,1,111.11,348.86Z"/><path class="cls-7" d="M117,347.81a6.58,6.58,0,0,1-2.56,1.46c0,.64,0,1.17,0,1.17s2.2-.71,2.78-1.54.71-3.47.71-3.47l-.31.14A5.87,5.87,0,0,1,117,347.81Z"/><path class="cls-7" d="M112.53,344.55a6.2,6.2,0,0,1,1.28,2.31,6.11,6.11,0,0,1-2.62-.4,8.62,8.62,0,0,1-1.55-2.51A8.53,8.53,0,0,1,112.53,344.55Z"/><path class="cls-7" d="M116.12,345.58a6.06,6.06,0,0,1-2.31,1.28,6.05,6.05,0,0,1,.4-2.61,8.4,8.4,0,0,1,2.51-1.55A8.45,8.45,0,0,1,116.12,345.58Z"/><path class="cls-7" d="M110.93,345a3.48,3.48,0,0,1-.79-1l-.5,0a8.62,8.62,0,0,0,1.55,2.51,6.11,6.11,0,0,0,2.62.4,10.42,10.42,0,0,0-.63-1.46A4.9,4.9,0,0,1,110.93,345Z"/><path class="cls-7" d="M115.86,344.12a4.89,4.89,0,0,1-2,1.15,9,9,0,0,0-.08,1.59,6.06,6.06,0,0,0,2.31-1.28,8.45,8.45,0,0,0,.6-2.88l-.46.21A3.49,3.49,0,0,1,115.86,344.12Z"/><path class="cls-7" d="M517.46,534.19l1.42-.6c-1.9,0-3.77,0-5.65-.05l-.46,0c-2.24.77-4.6,1.59-7,2.47Q511.6,535,517.46,534.19Z"/><path class="cls-7" d="M327.05,698.61c4.26,0,8.48-.18,12.68-.45C408.09,612.34,478.65,559.86,519,534l-1.57.23C429,570.9,344.14,639.15,284.89,694.06A197.11,197.11,0,0,0,327.05,698.61Z"/><path class="cls-7" d="M521.11,533.61l-1.51,0L519,534l2.07-.3Z"/><path class="cls-7" d="M370.75,693.72A196.81,196.81,0,0,0,520.6,536.39C462.83,579.91,411.29,639.2,370.75,693.72Z"/><path class="cls-7" d="M191.74,644.59c144-88.51,275.31-107.12,321-111l.12,0c-162.86-1.21-273.83,49-338.73,92A197.7,197.7,0,0,0,191.74,644.59Z"/><path class="cls-7" d="M257.8,686c98.85-88.34,196.2-131.52,247.93-150C396.44,555,282.34,617.25,212,661.39A195.94,195.94,0,0,0,257.8,686Z"/><path class="cls-4" d="M310.82,554.3C260.8,541.35,202.34,533,135,533.54l.12,0c25.53,2.17,77.75,8.95,143.94,29.89C289.3,560.22,299.91,557.14,310.82,554.3Z"/><path class="cls-7" d="M135.1,533.58l-.46,0c-1.89,0-3.76,0-5.65.05l1.42.6q5.85.84,11.73,1.86Q138.47,534.73,135.1,533.58Z"/><path class="cls-7" d="M128.27,533.59l-1.51,0v0l2.07.3Z"/><path class="cls-4" d="M259,570.18c-38.08-15-77.75-27.35-116.82-34.13a698.06,698.06,0,0,1,94.55,42.37C243.83,575.64,251.28,572.88,259,570.18Z"/><path class="cls-4" d="M194.67,596.31c-21.22-21.67-43.78-42.12-67.4-59.92a195.68,195.68,0,0,0,32,77.48C168.56,608.9,180.54,602.84,194.67,596.31Z"/><path class="cls-4" d="M223.22,583.83c-29.8-19.22-61.07-36.47-92.81-49.64l-1.57-.23a690.65,690.65,0,0,1,76.62,57.46C211.1,588.92,217.05,586.38,223.22,583.83Z"/><path class="cls-4" d="M510.88,535.2c0,.61-.05,1.22-.08,1.82q3.33-1.46,6.66-2.83C515.27,534.5,513.07,534.84,510.88,535.2Zm.05-1.46c0,.16,0,.32,0,.48l1.85-.64Zm-380.52.45q5.75,2.38,11.48,4.95c-.07-1-.13-2.1-.17-3.16Q136.05,535,130.41,534.19Zm11.3,1.71c0-.57-.05-1.14-.07-1.71q-3.51-.36-6.54-.61Q138.27,534.66,141.71,535.9ZM141.54,448H124.4v15h17.14ZM353.15,22.2H299.41c-96.69,0-175.35,78.66-175.35,175.35v331.1c0,96.69,78.66,175.35,175.35,175.35h53.74c96.69,0,175.35-78.66,175.35-175.35V197.55C528.5,100.86,449.84,22.2,353.15,22.2ZM299.41,686.52q-3.11,0-6.18-.12A156.91,156.91,0,0,1,213,660.74a159.22,159.22,0,0,1-38.39-35.47,157.45,157.45,0,0,1-31.85-76.68q-.36-2.9-.62-5.82c-.11-1.21-.21-2.41-.28-3.63-.07-1-.13-2.1-.17-3.16a.19.19,0,0,1,0-.08c0-.57-.05-1.14-.07-1.71,0-.22,0-.44,0-.67-.06-1.62-.08-3.24-.08-4.87V197.55c0-87.05,70.82-157.87,157.87-157.87h53.74C440.2,39.68,511,110.5,511,197.55v331.1c0,1.63,0,3.26-.08,4.88a1.48,1.48,0,0,1,0,.21c0,.16,0,.32,0,.48,0,.33,0,.66,0,1,0,.61-.05,1.22-.08,1.82,0,.81-.09,1.61-.15,2.41-.11,1.67-.25,3.34-.42,5C503.11,616,448,673.65,377.58,684.63a157.41,157.41,0,0,1-24.43,1.89Z"/><polygon class="cls-4" points="554.32 361.59 569.46 409.36 525.19 409.36 525.19 313.82 569.46 313.82 554.32 361.59"/><polygon class="cls-4" points="126.72 313.82 126.72 409.36 82.44 409.36 97.59 361.59 82.44 313.82 126.72 313.82"/><g class="cls-9"><path class="cls-10" d="M463.84,537.52v85.64s12.83-7.77,15.79-14.06l17.69-42.6-13.53-40.87Z"/><path class="cls-10" d="M193.87,537.52v85.64S181,615.39,178.08,609.1l-17.69-42.6,13.53-40.87Z"/><path class="cls-7" d="M407.24,331.27,374,320H283.75l-33.28,11.28a38.9,38.9,0,0,0-4.74,2l-18,124.79-22.5,183.88H461.69L429.11,441.29,413.69,334.13A38.81,38.81,0,0,0,407.24,331.27Z"/><path class="cls-4" d="M365.33,297.5s-18.7-10.67-37.93-10.67-35,10.67-35,10.67l9.68,35.9,50.68-3.89Z"/><path class="cls-10" d="M309,300c-3.28,15.35-6.9,33.39-6.9,33.39l29.49,27.85,21.19-31.74-6.38-29.2C331.93,307.58,318.78,304.86,309,300Z"/><path class="cls-10" d="M314.06,278.83c-.59.7-2.76,10.26-5.1,21.18,9.82,4.85,23,7.57,37.4.3l-4.7-21.48Z"/><path class="cls-7" d="M229.26,447.74l16.47-114.47a39.73,39.73,0,0,0-17,15.91l-73.41,128.4a40.8,40.8,0,0,0-4.87,26.69l8.18,51.23a38.91,38.91,0,0,1,12.75-16.69c8.85-6.71,17.25-7.95,23.05-7.7L198.49,485Z"/><path class="cls-11" d="M171.38,538.81a38.91,38.91,0,0,0-12.75,16.69l1.76,11c11.85-29.66,33.48-29,33.48-29l.56-6.41C188.63,530.86,180.23,532.1,171.38,538.81Z"/><path class="cls-7" d="M506.24,484.32,429,349.18a39.69,39.69,0,0,0-15.29-15.05l15.42,112.32,30.76,31.84,3.64,50.13c10.32.36,26.18,4.9,35.57,27l9.41-58.82A18.81,18.81,0,0,0,506.24,484.32Z"/><path class="cls-11" d="M463.51,528.42l.33,9.1c26.8-1,33.48,29,33.48,29l1.76-11.07C489.69,533.32,473.83,528.78,463.51,528.42Z"/><path class="cls-12" d="M205.27,641.94V717a330.88,330.88,0,0,0,256.42-6.36V641.94Z"/><path class="cls-13" d="M325,738.85V668.18s-7,7-8.18-12.2"/><polygon class="cls-4" points="292.38 297.5 319.28 336.11 307.21 367.56 283.75 319.99 292.38 297.5"/><polygon class="cls-4" points="365.33 297.5 338.43 336.11 350.5 367.56 373.96 319.99 365.33 297.5"/><polygon class="cls-4" points="338.43 336.11 331.55 361.25 344.42 351.73 338.43 336.11"/><polygon class="cls-4" points="331.55 361.25 319.28 336.11 314.46 348.68 331.55 361.25"/><path class="cls-10" d="M323,399.44a3.72,3.72,0,1,1-3.71-3.72A3.71,3.71,0,0,1,323,399.44Z"/><path class="cls-10" d="M323,367.56a3.72,3.72,0,1,1-3.71-3.71A3.72,3.72,0,0,1,323,367.56Z"/><path class="cls-4" d="M392.88,119.64,365.52,71.05a18.34,18.34,0,0,0-16-9.34H306.67a18.32,18.32,0,0,0-15.07,7.9c-8.06,11.64-22,33.84-32.31,50.6C286.42,116.51,332.78,113.09,392.88,119.64Z"/><path class="cls-7" d="M259.29,120.21c-7.35,12-12.87,21.16-13.06,21.74H405.44l-12.56-22.31C332.78,113.09,286.42,116.51,259.29,120.21Z"/><path class="cls-4" d="M325.36,133.68c106.08,0,192.42,16.42,195.54,36.91a8.36,8.36,0,0,0,.1-1.22C521,147.05,433.41,129,325.36,129s-195.64,18.1-195.64,40.42a8.36,8.36,0,0,0,.1,1.22C132.94,150.1,219.29,133.68,325.36,133.68Z"/><path class="cls-4" d="M325.36,133.68c-106.07,0-192.42,16.42-195.54,36.91a7.34,7.34,0,0,0-.1,1.15c0,21,87.59,38,195.64,38s195.64-17,195.64-38a7.34,7.34,0,0,0-.1-1.15C517.78,150.1,431.44,133.68,325.36,133.68Z"/><path class="cls-7" d="M399.88,165.26a3.71,3.71,0,0,0-1.58-1.4c-16-9.29-37.24-14.71-55.59-15.55-20.78-.94-41.63,1.31-62,5.36-9,1.79-18.07,3.94-26.42,7.82a4.8,4.8,0,0,0-2.65,2.2,4.91,4.91,0,0,0,0,2.84q4.89,23.33,10.58,46.47c1.44,5.87,2.69,12.18,4.11,18.48,2.9-1.08,5.56-2.6,7.12-5.2,2.14-3.58,1.54-8.1.87-12.22-.55-3.4-1.11-6.81-1.66-10.22a5.13,5.13,0,0,1-.09-1.7,6.59,6.59,0,0,1,1.35-2.49c4-5.79,2.26-13.59.4-20.35.58,2.11,33.69-8.29,36.75-9.45,11.43-4.35,22.9-9,33.06-15.9a113.58,113.58,0,0,0,16.15,12.91c5.49,3.62,12.42,7.8,18.76,9.59a120.43,120.43,0,0,0-4.57,18.71c-.68,4.25-.56,9.67,3.31,11.55a4.83,4.83,0,0,1,2.11,1.28,3.16,3.16,0,0,1,.27,2.13c-.45,3.61-1.6,7.09-2.17,10.68s-.48,7.46,1.38,10.58a8.67,8.67,0,0,0,6.47,4.19c1.48-4.8,2.8-9.64,3.9-14.54q1.29-5.76,2.23-11.6c2.28-14.21,5.54-27.61,8-41.78A3.81,3.81,0,0,0,399.88,165.26Z"/><path class="cls-7" d="M351.66,231.19a72.15,72.15,0,0,0-40.49-2.44,66.75,66.75,0,0,0-16.46,5.86,57.61,57.61,0,0,0-21.42,19.47c.35.77.69,1.54,1.07,2.28,10,20.1,28.52,37.39,52.14,37.39,24.31,0,43.68-18.3,52.69-39.68.22-.52.42-1,.63-1.55A60.79,60.79,0,0,0,351.66,231.19Z"/><path class="cls-10" d="M379.4,231.38c-1.86-3.12-1.94-7-1.38-10.58s1.72-7.07,2.17-10.68a3.16,3.16,0,0,0-.27-2.13,4.83,4.83,0,0,0-2.11-1.28c-3.87-1.88-4-7.3-3.31-11.55a120.43,120.43,0,0,1,4.57-18.71c-6.34-1.79-13.27-6-18.76-9.59A113.58,113.58,0,0,1,344.16,154c-10.16,6.92-21.63,11.55-33.06,15.9-3.06,1.16-36.17,11.56-36.75,9.45,1.86,6.76,3.57,14.56-.4,20.35a6.59,6.59,0,0,0-1.35,2.49,5.13,5.13,0,0,0,.09,1.7c.55,3.41,1.11,6.82,1.66,10.22.67,4.12,1.27,8.64-.87,12.22-1.56,2.6-4.22,4.12-7.12,5.2,1.77,7.85,3.83,15.67,6.93,22.6a57.61,57.61,0,0,1,21.42-19.47,66.75,66.75,0,0,1,16.46-5.86,72.15,72.15,0,0,1,40.49,2.44,60.79,60.79,0,0,1,28.16,21.33q3.42-8.34,6.05-17A8.67,8.67,0,0,1,379.4,231.38Z"/><path class="cls-10" d="M316.29,228.41a10.38,10.38,0,0,0-.55,4.57c.66,3.56,4.68,5.36,8.26,5.89a13.89,13.89,0,0,0,7.16-.5,7,7,0,0,0,4.51-5.25,10.8,10.8,0,0,0-.51-4.13c-.91-3.59-5.69-29.66-9-29.33C322.22,200.06,317.45,224.37,316.29,228.41Z"/><path class="cls-10" d="M328,262.11a18.9,18.9,0,0,0-4.88,4.55c6.91,2.36,14.5,1.37,20-3.91A14,14,0,0,0,345.9,259C340.14,256.91,332.87,258.84,328,262.11Z"/><path class="cls-10" d="M347.18,250.61a11.15,11.15,0,0,0-.3-1.82l-33.54,7.83a32.1,32.1,0,0,0,1.42,3.49,4,4,0,0,0,.24.41,107.75,107.75,0,0,0,32.24-8.22A16,16,0,0,0,347.18,250.61Z"/><path class="cls-10" d="M315,260.52a11.08,11.08,0,0,0,5.1,4.62,25.38,25.38,0,0,0,3.15,1.33A18.63,18.63,0,0,1,328,262c4.79-3.2,11.9-5.09,17.54-3a14.94,14.94,0,0,0,1.67-6.71"/><path class="cls-7" d="M356.27,202.42a4.58,4.58,0,1,1-4.58-4.58A4.58,4.58,0,0,1,356.27,202.42Z"/><path class="cls-7" d="M306.85,202.42a4.58,4.58,0,1,1-4.58-4.58A4.58,4.58,0,0,1,306.85,202.42Z"/><path class="cls-7" d="M289.18,189.66c.79-2.2,2.76-4,4.59-5.29a23.4,23.4,0,0,1,8.94-4c3-.6,6.84-.76,9.57.87a4.37,4.37,0,0,1,2.24,2.68c.52,2.59-2.14,4.69-4.45,4.93h-.41a29.15,29.15,0,0,0-4.32.39,20,20,0,0,0-4.09,1.11c-2.37.86-4.54,2.23-6.82,3.3-1.06.5-2.58,1.24-3.77.74a3.29,3.29,0,0,1-1.82-3.09A6.39,6.39,0,0,1,289.18,189.66Z"/><path class="cls-7" d="M364.22,189.66c-.79-2.2-2.76-4-4.59-5.29a23.34,23.34,0,0,0-8.94-4c-3-.6-6.84-.76-9.56.87a4.35,4.35,0,0,0-2.25,2.68c-.52,2.59,2.14,4.69,4.45,4.93h.41a29.15,29.15,0,0,1,4.32.39,20,20,0,0,1,4.1,1.11c2.36.86,4.53,2.23,6.81,3.3,1.06.5,2.58,1.24,3.77.74a3.28,3.28,0,0,0,1.82-3.09A6,6,0,0,0,364.22,189.66Z"/></g><polygon class="cls-14" points="62.56 482.28 34.75 482.28 34.75 524.62 111.18 524.62 111.18 500.51 62.56 500.51 62.56 482.28"/><rect class="cls-14" x="34.75" y="425.37" width="27.82" height="56.91"/><path class="cls-14" d="M147.46,446.21c-21.54,0-37.13,15.62-39,36.07h77.82C184.31,462.35,171.91,446.21,147.46,446.21ZM134.13,480c1.43-8.37,6.31-13.9,13.48-13.9,7.45,0,12.47,5.39,13.48,13.9Z"/><path class="cls-14" d="M108.5,482.28c-.12,1.33-.19,2.68-.19,4.06v.28c0,23.82,17.21,39.84,41.59,39.84,15.49,0,26.24-6.24,33.7-15.6l-15.06-12.33c-5.59,5.39-10.75,7.8-17.2,7.8-8.46,0-14.63-4.26-16.78-12.62h51.91c.14-1.85.14-3.83.14-5.53q0-3-.29-5.9Z"/><polygon class="cls-14" points="243.64 482.28 208.14 482.28 188.05 504.63 188.05 524.62 276.81 524.62 276.81 501.36 226.48 501.36 243.64 482.28"/><polygon class="cls-14" points="276.81 445.36 276.81 425.37 189.77 425.37 189.77 448.62 238.38 448.62 208.14 482.28 243.64 482.28 276.81 445.36"/><path class="cls-14" d="M321.44,482.28l-3.75,11.85-4-11.85H287.54l16.53,40.92a6.83,6.83,0,0,1-6.31,3.12c-3,0-7.6-1.56-11.91-4.11l-8.46,18.85a50.59,50.59,0,0,0,25,6.67c15.48,0,22.8-7.09,29.54-25l15.36-40.49Z"/><polygon class="cls-14" points="302.2 447.91 273.67 447.91 287.54 482.28 313.72 482.28 302.2 447.91"/><polygon class="cls-14" points="360.28 447.91 332.32 447.91 321.44 482.28 347.25 482.28 360.28 447.91"/><path class="cls-14" d="M404.74,462.8c-13.91-3.12-17.35-5.11-17.35-9.64v-.29c0-3.54,3.29-6.38,10-6.38,8.9,0,18.93,3.41,28.11,9.79l13.91-19.43c-10.9-8.65-24.23-13.18-41.3-13.18-24.09,0-38.86,13.32-38.86,31.76v.28c0,14.68,8.53,21.89,21.27,26.57h59.26C434.87,471.78,422.35,466.59,404.74,462.8Z"/><path class="cls-14" d="M380.55,482.28a135.53,135.53,0,0,0,16.59,4.62c13.62,3.12,16.92,5.39,16.92,9.5v.29c0,4.25-4,6.8-11.47,6.8-11.62,0-22.66-4.11-32.56-11.91l-15.48,18.29c12.33,10.92,29.25,16.45,47,16.45,24.38,0,40.59-12.05,40.59-32.33v-.28a26.34,26.34,0,0,0-2.36-11.43Z"/><polygon class="cls-14" points="522.76 463.79 474.58 463.79 474.58 448.76 527.78 448.76 527.78 425.37 447.05 425.37 447.05 482.28 522.76 482.28 522.76 463.79"/><polygon class="cls-14" points="474.58 485.48 522.76 485.48 522.76 482.28 447.05 482.28 447.05 524.62 528.5 524.62 528.5 501.22 474.58 501.22 474.58 485.48"/><rect class="cls-14" x="534.09" y="482.28" width="27.25" height="42.34"/><polygon class="cls-14" points="640.78 425.37 611.39 425.37 587.44 463.79 563.49 425.37 534.09 425.37 534.09 482.28 561.34 482.28 561.34 467.9 570.85 482.28 603.42 482.28 613.11 467.62 613.11 482.28 640.78 482.28 640.78 425.37"/><polygon class="cls-14" points="586.87 506.47 587.44 506.47 603.42 482.28 570.85 482.28 586.87 506.47"/><rect class="cls-14" x="613.11" y="482.28" width="27.68" height="42.34"/><polygon class="cls-15" points="62.56 482.28 34.75 482.28 34.75 524.62 111.18 524.62 111.18 500.51 62.56 500.51 62.56 482.28"/><rect class="cls-2" x="34.75" y="425.37" width="27.82" height="56.91"/><path class="cls-2" d="M147.46,446.21c-21.54,0-37.13,15.62-39,36.07h77.82C184.31,462.35,171.91,446.21,147.46,446.21ZM134.13,480c1.43-8.37,6.31-13.9,13.48-13.9,7.45,0,12.47,5.39,13.48,13.9Z"/><path class="cls-15" d="M108.5,482.28c-.12,1.33-.19,2.68-.19,4.06v.28c0,23.82,17.21,39.84,41.59,39.84,15.49,0,26.24-6.24,33.7-15.6l-15.06-12.33c-5.59,5.39-10.75,7.8-17.2,7.8-8.46,0-14.63-4.26-16.78-12.62h51.91c.14-1.85.14-3.83.14-5.53q0-3-.29-5.9Z"/><polygon class="cls-15" points="243.64 482.28 208.14 482.28 188.05 504.63 188.05 524.62 276.81 524.62 276.81 501.36 226.48 501.36 243.64 482.28"/><polygon class="cls-2" points="276.81 445.36 276.81 425.37 189.77 425.37 189.77 448.62 238.38 448.62 208.14 482.28 243.64 482.28 276.81 445.36"/><path class="cls-15" d="M321.44,482.28l-3.75,11.85-4-11.85H287.54l16.53,40.92a6.83,6.83,0,0,1-6.31,3.12c-3,0-7.6-1.56-11.91-4.11l-8.46,18.85a50.59,50.59,0,0,0,25,6.67c15.48,0,22.8-7.09,29.54-25l15.36-40.49Z"/><polygon class="cls-2" points="302.2 447.91 273.67 447.91 287.54 482.28 313.72 482.28 302.2 447.91"/><polygon class="cls-2" points="360.28 447.91 332.32 447.91 321.44 482.28 347.25 482.28 360.28 447.91"/><path class="cls-2" d="M404.74,462.8c-13.91-3.12-17.35-5.11-17.35-9.64v-.29c0-3.54,3.29-6.38,10-6.38,8.9,0,18.93,3.41,28.11,9.79l13.91-19.43c-10.9-8.65-24.23-13.18-41.3-13.18-24.09,0-38.86,13.32-38.86,31.76v.28c0,14.68,8.53,21.89,21.27,26.57h59.26C434.87,471.78,422.35,466.59,404.74,462.8Z"/><path class="cls-15" d="M380.55,482.28a135.53,135.53,0,0,0,16.59,4.62c13.62,3.12,16.92,5.39,16.92,9.5v.29c0,4.25-4,6.8-11.47,6.8-11.62,0-22.66-4.11-32.56-11.91l-15.48,18.29c12.33,10.92,29.25,16.45,47,16.45,24.38,0,40.59-12.05,40.59-32.33v-.28a26.34,26.34,0,0,0-2.36-11.43Z"/><polygon class="cls-2" points="522.76 463.79 474.58 463.79 474.58 448.76 527.78 448.76 527.78 425.37 447.05 425.37 447.05 482.28 522.76 482.28 522.76 463.79"/><polygon class="cls-15" points="474.58 485.48 522.76 485.48 522.76 482.28 447.05 482.28 447.05 524.62 528.5 524.62 528.5 501.22 474.58 501.22 474.58 485.48"/><rect class="cls-15" x="534.09" y="482.28" width="27.25" height="42.34"/><polygon class="cls-2" points="640.78 425.37 611.39 425.37 587.44 463.79 563.49 425.37 534.09 425.37 534.09 482.28 561.34 482.28 561.34 467.9 570.85 482.28 603.42 482.28 613.11 467.62 613.11 482.28 640.78 482.28 640.78 425.37"/><polygon class="cls-15" points="586.87 506.47 587.44 506.47 603.42 482.28 570.85 482.28 586.87 506.47"/><rect class="cls-15" x="613.11" y="482.28" width="27.68" height="42.34"/></svg>